<svg width="15" height="14" viewBox="0 0 15 14" fill="none" xmlns="http://www.w3.org/2000/svg">
<path d="M10.6873 0.625C12.8393 0.625 14.5832 2.39583 14.5832 4.875C14.5832 9.83333 9.27067 12.6667 7.49984 13.7292C5.729 12.6667 0.416504 9.83333 0.416504 4.875C0.416504 2.39583 2.18734 0.625 4.31234 0.625C5.62984 0.625 6.7915 1.33333 7.49984 2.04167C8.20817 1.33333 9.36984 0.625 10.6873 0.625ZM8.16142 11.6778C8.78546 11.284 9.34859 10.8923 9.87559 10.473C11.9871 8.79421 13.1665 6.95963 13.1665 4.875C13.1665 3.20333 12.0778 2.04167 10.6873 2.04167C9.92517 2.04167 9.10067 2.44542 8.50142 3.04325L7.49984 4.04483L6.49826 3.04325C5.899 2.44542 5.0745 2.04167 4.31234 2.04167C2.93817 2.04167 1.83317 3.21467 1.83317 4.875C1.83317 6.96033 3.01325 8.79421 5.12338 10.473C5.65109 10.8923 6.21421 11.284 6.83825 11.6771C7.05005 11.811 7.25971 11.9392 7.49984 12.0823C7.73996 11.9392 7.94963 11.811 8.16142 11.6778Z" fill="#303030"/>
</svg>
