<svg width="20" height="20" viewBox="0 0 20 20" fill="none" xmlns="http://www.w3.org/2000/svg">
<path d="M13.3333 1.66699L17.5 5.83366L17.5 17.507C17.4998 17.7263 17.4125 17.9366 17.2573 18.0916C17.1022 18.2466 16.8918 18.3337 16.6725 18.3337L3.3275 18.3337C3.10865 18.3321 2.89918 18.2446 2.74435 18.0899C2.58952 17.9352 2.50175 17.7258 2.5 17.507L2.5 2.49366C2.5 2.03699 2.87083 1.66699 3.3275 1.66699L13.3333 1.66699ZM10.8333 10.0003L13.3333 10.0003L10 6.66699L6.66667 10.0003L9.16667 10.0003L9.16667 13.3337L10.8333 13.3337L10.8333 10.0003Z" fill="#19AB6E"/>
</svg>
