<svg width="20" height="20" viewBox="0 0 20 20" fill="none" xmlns="http://www.w3.org/2000/svg">
<path d="M14.1666 5.00008H18.3333V6.66675H16.6666V17.5001C16.6666 17.7211 16.5788 17.9331 16.4225 18.0893C16.2663 18.2456 16.0543 18.3334 15.8333 18.3334H4.16663C3.94561 18.3334 3.73365 18.2456 3.57737 18.0893C3.42109 17.9331 3.33329 17.7211 3.33329 17.5001V6.66675H1.66663V5.00008H5.83329V2.50008C5.83329 2.27907 5.92109 2.06711 6.07737 1.91083C6.23365 1.75455 6.44561 1.66675 6.66663 1.66675H13.3333C13.5543 1.66675 13.7663 1.75455 13.9225 1.91083C14.0788 2.06711 14.1666 2.27907 14.1666 2.50008V5.00008ZM7.49996 9.16675V14.1667H9.16663V9.16675H7.49996ZM10.8333 9.16675V14.1667H12.5V9.16675H10.8333ZM7.49996 3.33341V5.00008H12.5V3.33341H7.49996Z" fill="#DA1515"/>
</svg>
