<svg width="16" height="16" viewBox="0 0 16 16" fill="none" xmlns="http://www.w3.org/2000/svg">
<path d="M3.64167 2.95501C4.85138 1.90679 6.399 1.33078 7.99967 1.33301C11.6817 1.33301 14.6663 4.31768 14.6663 7.99968C14.6663 9.42368 14.2197 10.7437 13.4597 11.8263L11.333 7.99968H13.333C13.3331 6.9541 13.0258 5.93155 12.4495 5.05918C11.8731 4.18682 11.053 3.50312 10.0911 3.0931C9.12929 2.68307 8.06815 2.56482 7.03965 2.75303C6.01114 2.94124 5.06064 3.42761 4.30634 4.15168L3.64167 2.95501ZM12.3577 13.0443C11.148 14.0926 9.60035 14.6686 7.99967 14.6663C4.31767 14.6663 1.33301 11.6817 1.33301 7.99968C1.33301 6.57568 1.77967 5.25568 2.53967 4.17301L4.66634 7.99968H2.66634C2.66626 9.04526 2.97351 10.0678 3.5499 10.9402C4.12629 11.8125 4.94639 12.4962 5.90822 12.9063C6.87006 13.3163 7.9312 13.4345 8.9597 13.2463C9.98821 13.0581 10.9387 12.5717 11.693 11.8477L12.3577 13.0443Z" fill="#111111"/>
</svg>
