<svg width="28" height="28" viewBox="0 0 28 28" fill="none" xmlns="http://www.w3.org/2000/svg">
<path d="M24.5 10.4997V24.4915C24.5011 24.6447 24.472 24.7966 24.4143 24.9386C24.3567 25.0806 24.2717 25.2098 24.1641 25.3189C24.0565 25.428 23.9285 25.5148 23.7873 25.5744C23.6462 25.634 23.4947 25.6653 23.3415 25.6663H4.6585C4.35145 25.6663 4.05696 25.5444 3.83973 25.3274C3.6225 25.1104 3.50031 24.8161 3.5 24.509V3.49034C3.5 2.86384 4.0215 2.33301 4.66433 2.33301H16.3333V9.33301C16.3333 9.64243 16.4562 9.93917 16.675 10.158C16.8938 10.3768 17.1906 10.4997 17.5 10.4997H24.5ZM24.5 8.16634H18.6667V2.33651L24.5 8.16634Z" fill="#B8B8B8"/>
</svg>
