<svg width="20" height="20" viewBox="0 0 20 20" fill="none" xmlns="http://www.w3.org/2000/svg">
<path d="M11.6663 11.8763V18.333H3.33301C3.33275 17.3154 3.56544 16.3113 4.01326 15.3975C4.46107 14.4837 5.11212 13.6846 5.91652 13.0614C6.72092 12.4381 7.65732 12.0073 8.65397 11.8019C9.65062 11.5965 10.6811 11.6219 11.6663 11.8763ZM9.99967 10.833C7.23717 10.833 4.99967 8.59551 4.99967 5.83301C4.99967 3.07051 7.23717 0.833008 9.99967 0.833008C12.7622 0.833008 14.9997 3.07051 14.9997 5.83301C14.9997 8.59551 12.7622 10.833 9.99967 10.833ZM14.9997 14.1663V11.6663H16.6663V14.1663H19.1663V15.833H16.6663V18.333H14.9997V15.833H12.4997V14.1663H14.9997Z" fill="white"/>
</svg>
