<svg width="16" height="16" viewBox="0 0 16 16" fill="none" xmlns="http://www.w3.org/2000/svg">
<path d="M7.49984 15.0832C3.58771 15.0832 0.416504 11.912 0.416504 7.99984C0.416504 4.08771 3.58771 0.916506 7.49984 0.916506C8.59963 0.91568 9.68447 1.17134 10.6682 1.66319C11.6519 2.15503 12.5073 2.8695 13.1665 3.74984H11.2469C10.429 3.02859 9.42025 2.55868 8.34184 2.3965C7.26343 2.23432 6.16113 2.38676 5.16722 2.83553C4.1733 3.2843 3.32998 4.01034 2.73847 4.92651C2.14696 5.84269 1.83237 6.91009 1.83246 8.00062C1.83255 9.09116 2.14732 10.1585 2.73898 11.0746C3.33065 11.9907 4.17408 12.7166 5.16808 13.1652C6.16207 13.6138 7.26439 13.766 8.34278 13.6037C9.42116 13.4413 10.4298 12.9712 11.2476 12.2498H13.1672C12.5079 13.1303 11.6524 13.8448 10.6686 14.3366C9.68473 14.8285 8.59975 15.0841 7.49984 15.0832ZM12.4582 10.8332V8.70817H6.7915V7.29151H12.4582V5.16651L15.9998 7.99984L12.4582 10.8332Z" fill="#303030"/>
</svg>
