<svg width="13" height="16" viewBox="0 0 13 16" fill="none" xmlns="http://www.w3.org/2000/svg">
<path d="M0.833496 15.0835C0.833496 13.5806 1.43052 12.1393 2.49322 11.0766C3.55593 10.0139 4.99727 9.41683 6.50016 9.41683C8.00306 9.41683 9.4444 10.0139 10.5071 11.0766C11.5698 12.1393 12.1668 13.5806 12.1668 15.0835H10.7502C10.7502 13.9563 10.3024 12.8753 9.50537 12.0783C8.70834 11.2813 7.62733 10.8335 6.50016 10.8335C5.37299 10.8335 4.29199 11.2813 3.49496 12.0783C2.69793 12.8753 2.25016 13.9563 2.25016 15.0835H0.833496ZM6.50016 8.7085C4.15204 8.7085 2.25016 6.80662 2.25016 4.4585C2.25016 2.11037 4.15204 0.208496 6.50016 0.208496C8.84829 0.208496 10.7502 2.11037 10.7502 4.4585C10.7502 6.80662 8.84829 8.7085 6.50016 8.7085ZM6.50016 7.29183C8.06558 7.29183 9.3335 6.02391 9.3335 4.4585C9.3335 2.89308 8.06558 1.62516 6.50016 1.62516C4.93475 1.62516 3.66683 2.89308 3.66683 4.4585C3.66683 6.02391 4.93475 7.29183 6.50016 7.29183Z" fill="#303030"/>
</svg>
