<svg width="18" height="18" viewBox="0 0 18 18" fill="none" xmlns="http://www.w3.org/2000/svg">
<path d="M12.4022 18V11.034H14.7352L15.0842 8.326H12.4022V6.598C12.4022 5.814 12.6202 5.279 13.7442 5.279H15.1782V2.857C14.484 2.78334 13.7863 2.74763 13.0882 2.75C11.0212 2.75 9.60625 4.012 9.60625 6.33V8.326H7.26824V11.034H9.60625V18H1.00024C0.735028 18 0.480674 17.8946 0.293137 17.7071C0.105601 17.5196 0.000244141 17.2652 0.000244141 17V1C0.000244141 0.734784 0.105601 0.48043 0.293137 0.292893C0.480674 0.105357 0.735028 0 1.00024 0H17.0002C17.2655 0 17.5198 0.105357 17.7074 0.292893C17.8949 0.48043 18.0002 0.734784 18.0002 1V17C18.0002 17.2652 17.8949 17.5196 17.7074 17.7071C17.5198 17.8946 17.2655 18 17.0002 18H12.4022Z" fill="#424242"/>
</svg>
