<svg width="20" height="25" viewBox="0 0 20 25" fill="none" xmlns="http://www.w3.org/2000/svg">
<path d="M10.0002 21.1419L15.3628 15.7794C16.4232 14.7188 17.1454 13.3676 17.4379 11.8966C17.7305 10.4256 17.5802 8.90089 17.0063 7.51526C16.4323 6.12963 15.4603 4.94532 14.2132 4.11209C12.9662 3.27886 11.5001 2.83412 10.0002 2.83412C8.50044 2.83412 7.03431 3.27886 5.78726 4.11209C4.5402 4.94532 3.56822 6.12963 2.99424 7.51526C2.42025 8.90089 2.27003 10.4256 2.56257 11.8966C2.85511 13.3676 3.57728 14.7188 4.63775 15.7794L10.0002 21.1419ZM10.0002 24.2056L3.10592 17.3112C1.74237 15.9477 0.81378 14.2104 0.437583 12.3191C0.0613871 10.4278 0.254477 8.46737 0.992435 6.6858C1.73039 4.90423 2.98007 3.38149 4.58345 2.31016C6.18683 1.23882 8.07189 0.666992 10.0002 0.666992C11.9286 0.666992 13.8137 1.23882 15.417 2.31016C17.0204 3.38149 18.2701 4.90423 19.0081 6.6858C19.746 8.46737 19.9391 10.4278 19.5629 12.3191C19.1867 14.2104 18.2581 15.9477 16.8946 17.3112L10.0002 24.2056ZM10.0002 12.5836C10.5749 12.5836 11.126 12.3553 11.5323 11.949C11.9386 11.5426 12.1669 10.9915 12.1669 10.4169C12.1669 9.84227 11.9386 9.29117 11.5323 8.88484C11.126 8.47851 10.5749 8.25024 10.0002 8.25024C9.42561 8.25024 8.87451 8.47851 8.46818 8.88484C8.06186 9.29117 7.83358 9.84227 7.83358 10.4169C7.83358 10.9915 8.06186 11.5426 8.46818 11.949C8.87451 12.3553 9.42561 12.5836 10.0002 12.5836ZM10.0002 14.7502C8.85098 14.7502 7.74878 14.2937 6.93612 13.481C6.12346 12.6684 5.66691 11.5662 5.66691 10.4169C5.66691 9.26764 6.12346 8.16544 6.93612 7.35278C7.74878 6.54012 8.85098 6.08357 10.0002 6.08357C11.1495 6.08357 12.2517 6.54012 13.0644 7.35278C13.877 8.16544 14.3336 9.26764 14.3336 10.4169C14.3336 11.5662 13.877 12.6684 13.0644 13.481C12.2517 14.2937 11.1495 14.7502 10.0002 14.7502Z" fill="#424242"/>
</svg>
