<svg width="113" height="22" viewBox="0 0 113 22" fill="none" xmlns="http://www.w3.org/2000/svg">
<path d="M23.6122 0.775273C24.5333 0.56467 25.2057 1.63123 24.6186 2.37155L16.8296 12.1915L13.6366 21.2002C13.3219 22.088 12.0662 22.088 11.7515 21.2001L8.55843 12.1915L0.769503 2.37154C0.182306 1.63123 0.854709 0.564668 1.77586 0.775271L12.694 3.2715L23.6122 0.775273Z" fill="#7210BE"/>
<path d="M33.0864 2.05763H35.5846V6.16175H37.9317V8.17949H35.5846V17.774C35.5846 18.2865 35.7584 18.6296 36.1062 18.8035C36.2983 18.9042 36.6186 18.9545 37.067 18.9545C37.1859 18.9545 37.3141 18.9545 37.4513 18.9545C37.5886 18.9453 37.7487 18.9316 37.9317 18.9133V20.8624C37.6481 20.9448 37.3507 21.0043 37.0395 21.0409C36.7376 21.0775 36.4081 21.0958 36.0513 21.0958C34.8983 21.0958 34.1159 20.8029 33.7041 20.2173C33.2923 19.6225 33.0864 18.8538 33.0864 17.9113V8.17949H31.0961V6.16175H33.0864V2.05763Z" fill="#141414"/>
<path d="M41.3281 6.16175H43.6753V8.70108C43.8675 8.20694 44.3387 7.60756 45.0891 6.90296C45.8394 6.1892 46.7042 5.83232 47.6833 5.83232C47.7291 5.83232 47.8069 5.83689 47.9167 5.84605C48.0265 5.8552 48.2141 5.8735 48.4794 5.90095V8.50891C48.333 8.48146 48.1958 8.46316 48.0676 8.45401C47.9487 8.44486 47.816 8.44028 47.6696 8.44028C46.4251 8.44028 45.4688 8.84292 44.8008 9.64818C44.1328 10.4443 43.7988 11.3639 43.7988 12.4071V20.8624H41.3281V6.16175Z" fill="#141414"/>
<path d="M51.464 6.23038H53.9759V20.8624H51.464V6.23038ZM51.464 0.698747H53.9759V3.49888H51.464V0.698747Z" fill="#141414"/>
<path d="M60.1313 13.6837C60.1313 15.2576 60.4653 16.5753 61.1333 17.6368C61.8013 18.6983 62.8719 19.229 64.3452 19.229C65.489 19.229 66.427 18.7395 67.159 17.7603C67.9003 16.772 68.2709 15.3583 68.2709 13.519C68.2709 11.6613 67.8911 10.2887 67.1316 9.40111C66.3721 8.50434 65.4341 8.05595 64.3177 8.05595C63.0732 8.05595 62.0621 8.53179 61.2843 9.48347C60.5156 10.4351 60.1313 11.8352 60.1313 13.6837ZM63.8511 5.90095C64.9766 5.90095 65.9191 6.13887 66.6786 6.61471C67.1179 6.88923 67.6166 7.36964 68.1748 8.05595V0.630116H70.5494V20.8624H68.3258V18.8172C67.7493 19.7232 67.0675 20.3774 66.2806 20.7801C65.4936 21.1827 64.5923 21.384 63.5765 21.384C61.9385 21.384 60.5202 20.6977 59.3214 19.3251C58.1227 17.9433 57.5233 16.1086 57.5233 13.8209C57.5233 11.6796 58.0678 9.82662 59.1567 8.26184C60.2548 6.68791 61.8196 5.90095 63.8511 5.90095Z" fill="#141414"/>
<path d="M75.0576 6.16175H77.5009V8.24812C78.0865 7.52521 78.6173 6.99904 79.0931 6.66961C79.9075 6.11142 80.8317 5.83232 81.8658 5.83232C83.0371 5.83232 83.9796 6.12057 84.6934 6.69706C85.096 7.02649 85.462 7.51148 85.7915 8.15203C86.3405 7.36507 86.9856 6.784 87.7268 6.40882C88.468 6.02448 89.3008 5.83232 90.225 5.83232C92.2016 5.83232 93.5467 6.54608 94.2605 7.97359C94.6448 8.74226 94.837 9.77629 94.837 11.0757V20.8624H92.2702V10.6502C92.2702 9.67106 92.0231 8.99848 91.529 8.63245C91.044 8.26642 90.4492 8.0834 89.7446 8.0834C88.7746 8.0834 87.9373 8.40826 87.2327 9.05796C86.5372 9.70766 86.1895 10.792 86.1895 12.3111V20.8624H83.6776V11.2679C83.6776 10.2704 83.5587 9.54295 83.3207 9.08541C82.9456 8.39911 82.2455 8.05595 81.2206 8.05595C80.2873 8.05595 79.4362 8.41741 78.6676 9.14032C77.9081 9.86322 77.5283 11.1718 77.5283 13.066V20.8624H75.0576V6.16175Z" fill="#141414"/>
<path d="M105.151 19.2702C106.789 19.2702 107.91 18.6525 108.514 17.4172C109.127 16.1727 109.434 14.7909 109.434 13.2719C109.434 11.8993 109.214 10.7829 108.775 9.9227C108.08 8.56839 106.881 7.89124 105.179 7.89124C103.669 7.89124 102.571 8.46774 101.885 9.62073C101.198 10.7737 100.855 12.1646 100.855 13.7935C100.855 15.3583 101.198 16.6622 101.885 17.7054C102.571 18.7486 103.66 19.2702 105.151 19.2702ZM105.247 5.73624C107.142 5.73624 108.743 6.36764 110.052 7.63044C111.36 8.89324 112.014 10.7508 112.014 13.2032C112.014 15.5733 111.438 17.5316 110.285 19.078C109.132 20.6245 107.343 21.3977 104.918 21.3977C102.896 21.3977 101.29 20.716 100.1 19.3526C98.9105 17.9799 98.3157 16.1406 98.3157 13.8347C98.3157 11.3639 98.9425 9.39654 100.196 7.93242C101.45 6.4683 103.134 5.73624 105.247 5.73624Z" fill="#141414"/>
</svg>
