<svg width="20" height="21" viewBox="0 0 20 21" fill="none" xmlns="http://www.w3.org/2000/svg">
<path d="M7.1465 9.07217C8.16303 10.858 9.64198 12.337 11.4278 13.3535L12.3855 12.0123C12.5395 11.7967 12.7672 11.645 13.0255 11.5859C13.2839 11.5268 13.5549 11.5644 13.7873 11.6917C15.3195 12.529 17.0116 13.0326 18.7523 13.1693C19.0239 13.1909 19.2775 13.314 19.4624 13.5142C19.6474 13.7144 19.75 13.9769 19.75 14.2494V19.0833C19.7501 19.3515 19.6506 19.6102 19.4709 19.8093C19.2912 20.0084 19.044 20.1338 18.7772 20.1612C18.203 20.2208 17.6245 20.25 17.0417 20.25C7.76833 20.25 0.25 12.7317 0.25 3.45833C0.25 2.8755 0.27925 2.297 0.338833 1.72283C0.366193 1.45601 0.491566 1.20881 0.690689 1.0291C0.889812 0.849393 1.14852 0.749942 1.41675 0.75H6.25058C6.52311 0.749966 6.78564 0.852647 6.98582 1.03757C7.18601 1.2225 7.30914 1.47608 7.33067 1.74775C7.46741 3.48844 7.971 5.18049 8.80833 6.71267C8.93559 6.94511 8.97323 7.21614 8.91414 7.47446C8.85505 7.73279 8.70332 7.9605 8.48767 8.1145L7.1465 9.07217ZM4.41433 8.36042L6.47267 6.89033C5.88851 5.62944 5.4883 4.29124 5.28425 2.91667H2.4275C2.421 3.0965 2.41775 3.27742 2.41775 3.45833C2.41667 11.5357 8.96433 18.0833 17.0417 18.0833C17.2226 18.0833 17.4035 18.0801 17.5833 18.0725V15.2158C16.2088 15.0117 14.8706 14.6115 13.6097 14.0273L12.1396 16.0857C11.5477 15.8557 10.9728 15.5842 10.4193 15.2732L10.3564 15.2374C8.23154 14.0281 6.47189 12.2685 5.26258 10.1436L5.22683 10.0808C4.91582 9.52716 4.64431 8.95228 4.41433 8.36042Z" fill="#424242"/>
</svg>
