<svg width="23" height="22" viewBox="0 0 23 22" fill="none" xmlns="http://www.w3.org/2000/svg">
<g clip-path="url(#clip0_2701_3273)">
<path d="M5.50791 4.06327C7.17126 2.62196 9.29924 1.82995 11.5002 1.83302C16.5629 1.83302 20.6668 5.93693 20.6668 10.9997C20.6668 12.9577 20.0527 14.7727 19.0077 16.2614L16.0835 10.9997H18.8335C18.8336 9.56201 18.4111 8.156 17.6186 6.9565C16.8261 5.757 15.6984 4.81691 14.3759 4.25313C13.0534 3.68935 11.5943 3.52674 10.1801 3.78553C8.76593 4.04432 7.459 4.71309 6.42183 5.70868L5.50791 4.06327ZM17.4924 17.9361C15.8291 19.3774 13.7011 20.1694 11.5002 20.1664C6.43741 20.1664 2.3335 16.0624 2.3335 10.9997C2.3335 9.04168 2.94766 7.22668 3.99266 5.73802L6.91683 10.9997H4.16683C4.16671 12.4374 4.58919 13.8434 5.38172 15.0429C6.17426 16.2424 7.30189 17.1825 8.62442 17.7462C9.94694 18.31 11.406 18.4726 12.8202 18.2138C14.2344 17.955 15.5413 17.2863 16.5785 16.2907L17.4924 17.9361Z" fill="#303030"/>
</g>
<defs>
<clipPath id="clip0_2701_3273">
<rect width="22" height="22" fill="white" transform="translate(0.5)"/>
</clipPath>
</defs>
</svg>
