<svg width="24" height="24" viewBox="0 0 24 24" fill="none" xmlns="http://www.w3.org/2000/svg">
<path d="M9.49976 4.5V7H3.24976V20.75H16.9998V14.5H19.4998V22C19.4998 22.3315 19.3681 22.6495 19.1336 22.8839C18.8992 23.1183 18.5813 23.25 18.2498 23.25H1.99976C1.66824 23.25 1.35029 23.1183 1.11587 22.8839C0.881452 22.6495 0.749756 22.3315 0.749756 22V5.75C0.749756 5.41848 0.881452 5.10054 1.11587 4.86612C1.35029 4.6317 1.66824 4.5 1.99976 4.5H9.49976ZM23.2498 0.75V10.75H20.7498V5.01625L11.0085 14.7588L9.24101 12.9913L18.981 3.25H13.2498V0.75H23.2498Z" fill="#424242"/>
</svg>
