<svg width="24" height="28" viewBox="0 0 24 28" fill="none" xmlns="http://www.w3.org/2000/svg">
<path d="M22.6667 27.3332H1.33333C0.979711 27.3332 0.640573 27.1927 0.390524 26.9427C0.140476 26.6926 0 26.3535 0 25.9998V1.99984C0 1.64622 0.140476 1.30708 0.390524 1.05703C0.640573 0.80698 0.979711 0.666504 1.33333 0.666504H22.6667C23.0203 0.666504 23.3594 0.80698 23.6095 1.05703C23.8595 1.30708 24 1.64622 24 1.99984V25.9998C24 26.3535 23.8595 26.6926 23.6095 26.9427C23.3594 27.1927 23.0203 27.3332 22.6667 27.3332ZM21.3333 24.6665V3.33317H2.66667V24.6665H21.3333ZM14.6667 13.9998V20.6665H9.33333V16.6665H12V13.9998H14.6667ZM12 3.33317H14.6667V5.99984H12V3.33317ZM9.33333 5.99984H12V8.66651H9.33333V5.99984ZM12 8.66651H14.6667V11.3332H12V8.66651ZM9.33333 11.3332H12V13.9998H9.33333V11.3332Z" fill="#424242"/>
</svg>
