<svg width="20" height="20" viewBox="0 0 20 20" fill="none" xmlns="http://www.w3.org/2000/svg">
<path d="M11.6666 11.8766V18.3333H3.33325C3.33299 17.3157 3.56569 16.3115 4.0135 15.3977C4.46132 14.484 5.11237 13.6849 5.91677 13.0616C6.72117 12.4384 7.65757 12.0075 8.65421 11.8021C9.65086 11.5967 10.6813 11.6222 11.6666 11.8766ZM9.99992 10.8333C7.23742 10.8333 4.99992 8.59575 4.99992 5.83325C4.99992 3.07075 7.23742 0.833252 9.99992 0.833252C12.7624 0.833252 14.9999 3.07075 14.9999 5.83325C14.9999 8.59575 12.7624 10.8333 9.99992 10.8333ZM14.9999 14.1666V11.6666H16.6666V14.1666H19.1666V15.8333H16.6666V18.3333H14.9999V15.8333H12.4999V14.1666H14.9999Z" fill="white"/>
</svg>
