<svg width="111" height="24" viewBox="0 0 111 24" fill="none" xmlns="http://www.w3.org/2000/svg">
<path d="M17.7449 0H12.1481V8.26337H12.0823C10.93 6.71605 9.28395 5.92593 7.20988 5.92593C2.37037 5.92593 0 10.1399 0 14.5844C0 19.4239 2.2716 24 7.63786 24C9.64609 24 11.2263 23.177 12.3457 21.5309H12.4115V23.5062H17.7449V0ZM9.02058 10.2058C11.4568 10.2058 12.3457 12.4774 12.3457 14.9465C12.3457 17.1193 11.7531 19.7202 9.02058 19.7202C6.4856 19.7202 5.59671 17.1193 5.59671 14.7819C5.59671 12.6091 6.4856 10.2058 9.02058 10.2058Z" fill="#141414"/>
<path d="M39.206 16.3292C39.4694 10.535 36.4077 5.92593 30.2842 5.92593C25.2472 5.92593 21.0661 9.67901 21.0661 14.9136C21.0661 20.642 24.8521 24 30.4159 24C34.2348 24 37.8562 22.2881 38.9097 18.3374H33.6751C33.1484 19.6214 31.8315 20.214 30.4817 20.214C28.1114 20.214 26.7616 18.6996 26.6628 16.3292H39.206ZM26.6628 13.2016C27.0249 11.0947 28.3089 9.71193 30.2842 9.71193C32.1608 9.71193 33.5105 11.2593 33.6093 13.2016H26.6628Z" fill="#141414"/>
<path d="M42.3444 23.5062H47.9411V15.177C47.9411 11.7202 48.7971 10.535 50.8053 10.535C52.3526 10.535 52.9123 11.786 52.9123 13.7942V23.5062H58.509V15.144C58.509 12.3786 58.7395 10.535 61.1427 10.535C62.5913 10.535 63.4802 11.6214 63.4802 13.465V23.5062H69.0769V13.3004C69.0769 10.0412 68.4843 5.92593 63.0522 5.92593C60.7148 5.92593 59.0687 6.84774 57.7189 8.69136C56.7971 6.61728 54.8876 5.92593 52.7477 5.92593C50.6407 5.92593 48.8629 7.04527 47.8423 8.7572H47.7765V6.41975H42.3444V23.5062Z" fill="#141414"/>
<path d="M72.329 14.9794C72.329 20.1152 76.0162 24 81.3166 24C86.617 24 90.3372 20.1152 90.3372 14.9794C90.3372 9.84362 86.617 5.92593 81.3166 5.92593C76.0162 5.92593 72.329 9.84362 72.329 14.9794ZM77.9257 14.9794C77.9257 12.8066 78.7158 10.2058 81.3166 10.2058C83.9503 10.2058 84.7405 12.8066 84.7405 14.9794C84.7405 17.1852 83.9503 19.7202 81.3166 19.7202C78.7158 19.7202 77.9257 17.1852 77.9257 14.9794Z" fill="#141414"/>
<path d="M110.529 0H104.932V8.26337H104.867C103.714 6.71605 102.068 5.92593 99.9941 5.92593C95.1546 5.92593 92.7842 10.1399 92.7842 14.5844C92.7842 19.4239 95.0558 24 100.422 24C102.43 24 104.011 23.177 105.13 21.5309H105.196V23.5062H110.529V0ZM101.805 10.2058C104.241 10.2058 105.13 12.4774 105.13 14.9465C105.13 17.1193 104.537 19.7202 101.805 19.7202C99.2698 19.7202 98.3809 17.1193 98.3809 14.7819C98.3809 12.6091 99.2698 10.2058 101.805 10.2058Z" fill="#141414"/>
</svg>
