<svg width="56" height="56" viewBox="0 0 56 56" fill="none" xmlns="http://www.w3.org/2000/svg">
<circle cx="28" cy="28" r="28" fill="#E7E7E7"/>
<path d="M27.9999 28.7817L33.6572 34.4377L31.7705 36.3243L29.3332 33.887V41.3337H26.6665V33.8843L24.2292 36.3243L22.3425 34.4377L27.9999 28.7817ZM27.9999 14.667C30.2892 14.6671 32.4986 15.5085 34.2081 17.0312C35.9176 18.5538 37.008 20.6516 37.2719 22.9257C38.9309 23.3781 40.3782 24.3991 41.3607 25.8104C42.3433 27.2216 42.7987 28.9332 42.6474 30.6462C42.496 32.3591 41.7475 33.9644 40.5326 35.1814C39.3178 36.3985 37.7138 37.1499 36.0012 37.3043L35.9999 34.667C36.002 32.5699 35.1805 30.5557 33.7123 29.0583C32.2441 27.5608 30.2467 26.6997 28.1499 26.6604C26.0531 26.621 24.0247 27.4066 22.5014 28.848C20.9781 30.2894 20.0817 32.2712 20.0052 34.367L19.9999 34.667V37.3043C18.2871 37.1501 16.6831 36.3989 15.468 35.1819C14.253 33.965 13.5043 32.3597 13.3528 30.6468C13.2012 28.9338 13.6565 27.222 14.639 25.8107C15.6215 24.3993 17.0688 23.3782 18.7279 22.9257C18.9915 20.6515 20.0817 18.5535 21.7913 17.0308C23.5009 15.5081 25.7105 14.6668 27.9999 14.667Z" fill="#A0A0A0"/>
</svg>
