<svg width="30" height="28" viewBox="0 0 30 28" fill="none" xmlns="http://www.w3.org/2000/svg">
<path d="M14.9999 14.7813L20.6572 20.4373L18.7705 22.324L16.3332 19.8867V27.3333H13.6665V19.884L11.2292 22.324L9.34253 20.4373L14.9999 14.7813ZM14.9999 0.666672C17.2892 0.666781 19.4986 1.50816 21.2081 3.03083C22.9176 4.5535 24.008 6.65129 24.2719 8.92534C25.9309 9.37776 27.3782 10.3988 28.3607 11.81C29.3433 13.2213 29.7987 14.9329 29.6474 16.6459C29.496 18.3588 28.7475 19.9641 27.5326 21.1811C26.3178 22.3981 24.7138 23.1495 23.0012 23.304L22.9999 20.6667C23.002 18.5695 22.1805 16.5554 20.7123 15.0579C19.2441 13.5605 17.2467 12.6994 15.1499 12.66C13.0531 12.6207 11.0247 13.4063 9.50144 14.8477C7.97814 16.289 7.08173 18.2709 7.00519 20.3667L6.99986 20.6667V23.304C5.28713 23.1498 3.68307 22.3985 2.46804 21.1816C1.25301 19.9647 0.504295 18.3594 0.352758 16.6464C0.20122 14.9335 0.656498 13.2217 1.63902 11.8104C2.62154 10.399 4.0688 9.37785 5.72786 8.92534C5.99147 6.65117 7.08173 4.55322 8.7913 3.03049C10.5009 1.50776 12.7105 0.666489 14.9999 0.666672Z" fill="#47BC8B"/>
</svg>
