<svg width="14" height="14" viewBox="0 0 14 14" fill="none" xmlns="http://www.w3.org/2000/svg">
<path d="M6.99967 13.6667C3.31767 13.6667 0.333008 10.682 0.333008 7.00004C0.333008 3.31804 3.31767 0.333374 6.99967 0.333374C10.6817 0.333374 13.6663 3.31804 13.6663 7.00004C13.6663 10.682 10.6817 13.6667 6.99967 13.6667ZM6.99967 12.3334C8.41416 12.3334 9.77072 11.7715 10.7709 10.7713C11.7711 9.77108 12.333 8.41453 12.333 7.00004C12.333 5.58555 11.7711 4.229 10.7709 3.2288C9.77072 2.22861 8.41416 1.66671 6.99967 1.66671C5.58519 1.66671 4.22863 2.22861 3.22844 3.2288C2.22824 4.229 1.66634 5.58555 1.66634 7.00004C1.66634 8.41453 2.22824 9.77108 3.22844 10.7713C4.22863 11.7715 5.58519 12.3334 6.99967 12.3334ZM6.33301 3.66671H7.66634V5.00004H6.33301V3.66671ZM6.33301 6.33337H7.66634V10.3334H6.33301V6.33337Z" fill="#888888"/>
</svg>
