<svg width="128" height="36" viewBox="0 0 128 36" fill="none" xmlns="http://www.w3.org/2000/svg">
<path fill-rule="evenodd" clip-rule="evenodd" d="M124.283 20.2429C124.201 19.7106 123.982 19.2047 123.59 18.7129H128L122.431 25.8188C122.508 25.6643 122.584 25.5121 122.66 25.3621C123.269 24.1491 123.804 23.0842 124.092 22.1233C124.289 21.4618 124.374 20.8398 124.283 20.2429ZM123.59 18.4929H128L122.431 11.3869C122.508 11.5416 122.585 11.6939 122.66 11.844L122.66 11.844C123.269 13.0569 123.804 14.1218 124.092 15.0826C124.289 15.7441 124.374 16.366 124.283 16.9629C124.201 17.4952 123.982 18.0011 123.59 18.4929Z" fill="#FF0000"/>
<path fill-rule="evenodd" clip-rule="evenodd" d="M28.176 7.01297C29.1376 7.01297 29.9562 6.67532 30.6321 6.00001C31.3338 5.29874 31.6847 4.46758 31.6847 3.50657C31.6847 2.54538 31.3338 1.72722 30.6321 1.05191C29.9562 0.350634 29.1376 0 28.176 0C27.2144 0 26.3827 0.350634 25.681 1.05191C25.0053 1.72722 24.6674 2.54538 24.6674 3.50657C24.6674 4.46758 25.0053 5.29874 25.681 6.00001C26.3827 6.67532 27.2144 7.01297 28.176 7.01297ZM25.2522 28.2079H31.0999V19.2384H25.2522V28.2079ZM25.2522 17.9178V8.72721H31.0999V17.9178L25.2522 17.9178ZM38.4845 19.2384L34.7944 24.3117V28.2078H50.3882V22.7533H42.6303L45.1869 19.2384H38.4845ZM46.1474 17.9178H39.445L42.1625 14.1817H35.1842V8.72714H49.9984V12.6233L46.1474 17.9178ZM53.8821 19.2384V28.2079H59.7298V19.2384H53.8821ZM59.7298 17.9178H53.8821V8.72724H59.7298V17.9178ZM64.0092 19.2384V36H69.857V26.3765C71.2084 27.9611 73.1446 28.7533 75.6655 28.7533C78.2386 28.7533 80.4347 27.7663 82.2541 25.7921C83.9103 23.9951 84.8126 21.8105 84.9611 19.2384H79.0906C78.9581 20.3364 78.5312 21.2353 77.8098 21.9351C76.9522 22.7922 75.8475 23.2208 74.496 23.2208C73.1446 23.2208 72.027 22.7922 71.1434 21.9351C70.4432 21.2353 70.0289 20.3364 69.9003 19.2384H64.0092ZM69.8785 17.9178H64.0092V8.72714H69.857V10.5584C71.2084 8.97389 73.1446 8.1817 75.6655 8.1817C78.2126 8.1817 80.4087 9.18185 82.2541 11.1818C83.9566 13.029 84.8624 15.2745 84.9717 17.9178H79.1131C79.0135 16.7188 78.5791 15.7462 77.8098 14.9999C76.9522 14.1427 75.8475 13.7142 74.496 13.7142C73.1446 13.7142 72.027 14.1427 71.1434 14.9999C70.3968 15.7462 69.9751 16.7188 69.8785 17.9178ZM88.2993 19.2384V28.2079H94.147V19.4025C94.147 19.3473 94.1476 19.2926 94.1488 19.2384H88.2993ZM94.3219 17.9178L88.2993 17.9178V8.72716H94.147V12.1948C94.5108 10.974 95.2255 10.026 96.2911 9.35069C97.3826 8.67521 98.6171 8.33755 99.9947 8.33755V14.9611C98.5392 14.7272 97.2007 14.9741 95.9792 15.7014C95.1352 16.1859 94.5828 16.9247 94.3219 17.9178ZM101.207 19.2384C101.371 21.7884 102.364 23.9729 104.185 25.7921C106.159 27.7663 108.603 28.7533 111.512 28.7533C114.423 28.7533 116.867 27.7663 118.842 25.7921C120.662 23.9729 121.655 21.7884 121.82 19.2384H115.947C115.811 20.2442 115.398 21.0912 114.71 21.7793C113.853 22.6364 112.786 23.0649 111.512 23.0649C110.24 23.0649 109.173 22.6364 108.316 21.7793C107.628 21.0912 107.215 20.2442 107.079 19.2384H101.207ZM107.054 17.9178H101.195C101.316 15.2977 102.313 13.0522 104.185 11.1818C106.184 9.18185 108.628 8.1817 111.512 8.1817C114.398 8.1817 116.842 9.18185 118.842 11.1818C120.713 13.0522 121.711 15.2977 121.832 17.9178H115.972C115.869 16.8143 115.448 15.8937 114.71 15.1559C113.853 14.2986 112.786 13.87 111.512 13.87C110.24 13.87 109.173 14.2986 108.316 15.1559C107.578 15.8937 107.157 16.8143 107.054 17.9178ZM20.9626 17.9178H15.0933C14.9965 16.7192 14.5749 15.7469 13.8285 15.0007C12.9708 14.1436 11.8531 13.715 10.4757 13.715C9.09826 13.715 7.98073 14.1436 7.12309 15.0007C6.37645 15.7469 5.95482 16.7192 5.85806 17.9178H-2.23736e-10C0.109482 15.2748 1.0155 13.0297 2.71775 11.1826C4.56298 9.1827 6.75924 8.18255 9.30617 8.18255C11.8271 8.18255 13.7635 8.97474 15.1149 10.5593V0.935818L20.9626 0.935818V17.9178ZM0.0105869 19.2384C0.158893 21.8109 1.06137 23.9957 2.71775 25.793C4.53699 27.7671 6.73325 28.7541 9.30617 28.7541C11.8271 28.7541 13.7635 27.9619 15.1149 26.3774V28.2087H20.9626V19.2384H15.0717C14.9432 20.3368 14.5288 21.236 13.8285 21.9359C12.9708 22.7931 11.8531 23.2216 10.4757 23.2216C9.09826 23.2216 7.98073 22.7931 7.12309 21.9359C6.42257 21.236 6.00814 20.3368 5.87971 19.2384H0.0105869ZM56.806 7.013C57.7676 7.013 58.5863 6.67535 59.262 6.00005C59.9637 5.29877 60.3147 4.46761 60.3147 3.5066C60.3147 2.54541 59.9637 1.72725 59.262 1.05194C58.5863 0.350665 57.7676 3.05176e-05 56.806 3.05176e-05C55.8444 3.05176e-05 55.0128 0.350665 54.3111 1.05194C53.6352 1.72725 53.2973 2.54541 53.2973 3.5066C53.2973 4.46761 53.6352 5.29877 54.3111 6.00005C55.0128 6.67535 55.8444 7.013 56.806 7.013Z" fill="black"/>
</svg>
