<svg width="18" height="18" viewBox="0 0 18 18" fill="none" xmlns="http://www.w3.org/2000/svg">
<path d="M2.80575 1.0562L16.6522 8.6717C16.711 8.70407 16.7601 8.75163 16.7942 8.80941C16.8284 8.8672 16.8464 8.93308 16.8464 9.0002C16.8464 9.06732 16.8284 9.13321 16.7942 9.19099C16.7601 9.24877 16.711 9.29633 16.6522 9.3287L2.80575 16.9442C2.74866 16.9756 2.68436 16.9916 2.6192 16.9906C2.55405 16.9896 2.49028 16.9716 2.43418 16.9385C2.37809 16.9053 2.3316 16.8581 2.2993 16.8015C2.267 16.7449 2.25001 16.6809 2.25 16.6157V1.3847C2.25001 1.31954 2.267 1.2555 2.2993 1.1989C2.3316 1.14231 2.37809 1.0951 2.43418 1.06194C2.49028 1.02879 2.55405 1.01082 2.6192 1.00981C2.68436 1.0088 2.74866 1.02479 2.80575 1.0562ZM3.75 9.7502V14.713L14.1375 9.0002L3.75 3.28745V8.2502H7.5V9.7502H3.75Z" fill="white"/>
</svg>
