<svg width="16" height="18" viewBox="0 0 16 18" fill="none" xmlns="http://www.w3.org/2000/svg">
<path d="M11.3333 0.666502L15.5 4.83317L15.5 16.5065C15.4998 16.7258 15.4125 16.9361 15.2573 17.0911C15.1022 17.2461 14.8918 17.3332 14.6725 17.3332L1.3275 17.3332C1.10865 17.3316 0.899184 17.2441 0.744351 17.0894C0.589518 16.9347 0.501748 16.7254 0.500003 16.5065L0.5 1.49317C0.5 1.0365 0.870833 0.666504 1.3275 0.666504L11.3333 0.666502ZM8.83333 8.99984L11.3333 8.99984L8 5.6665L4.66667 8.99984L7.16667 8.99984L7.16667 12.3332L8.83334 12.3332L8.83333 8.99984Z" fill="#19AB6E"/>
</svg>
