<svg width="18" height="16" viewBox="0 0 18 16" fill="none" xmlns="http://www.w3.org/2000/svg">
<path d="M7.18984 2.16667L5.52317 3.83333H2.33317V13.8333H15.6665V3.83333H12.4765L10.8098 2.16667H7.18984ZM6.49984 0.5H11.4998L13.1665 2.16667H16.4998C16.7209 2.16667 16.9328 2.25446 17.0891 2.41074C17.2454 2.56702 17.3332 2.77899 17.3332 3V14.6667C17.3332 14.8877 17.2454 15.0996 17.0891 15.2559C16.9328 15.4122 16.7209 15.5 16.4998 15.5H1.49984C1.27882 15.5 1.06686 15.4122 0.910582 15.2559C0.754301 15.0996 0.666504 14.8877 0.666504 14.6667V3C0.666504 2.77899 0.754301 2.56702 0.910582 2.41074C1.06686 2.25446 1.27882 2.16667 1.49984 2.16667H4.83317L6.49984 0.5ZM8.99984 13C7.78426 13 6.61847 12.5171 5.75893 11.6576C4.89939 10.798 4.4165 9.63224 4.4165 8.41667C4.4165 7.20109 4.89939 6.0353 5.75893 5.17576C6.61847 4.31622 7.78426 3.83333 8.99984 3.83333C10.2154 3.83333 11.3812 4.31622 12.2407 5.17576C13.1003 6.0353 13.5832 7.20109 13.5832 8.41667C13.5832 9.63224 13.1003 10.798 12.2407 11.6576C11.3812 12.5171 10.2154 13 8.99984 13ZM8.99984 11.3333C9.77339 11.3333 10.5153 11.026 11.0622 10.4791C11.6092 9.93208 11.9165 9.19021 11.9165 8.41667C11.9165 7.64312 11.6092 6.90125 11.0622 6.35427C10.5153 5.80729 9.77339 5.5 8.99984 5.5C8.22629 5.5 7.48442 5.80729 6.93744 6.35427C6.39046 6.90125 6.08317 7.64312 6.08317 8.41667C6.08317 9.19021 6.39046 9.93208 6.93744 10.4791C7.48442 11.026 8.22629 11.3333 8.99984 11.3333V11.3333Z" fill="white"/>
</svg>
