<svg width="14" height="14" viewBox="0 0 14 14" fill="none" xmlns="http://www.w3.org/2000/svg">
<path d="M1.66634 4.33331H12.333V13C12.333 13.1768 12.2628 13.3464 12.1377 13.4714C12.0127 13.5964 11.8432 13.6666 11.6663 13.6666H2.33301C2.1562 13.6666 1.98663 13.5964 1.8616 13.4714C1.73658 13.3464 1.66634 13.1768 1.66634 13V4.33331ZM2.99967 5.66665V12.3333H10.9997V5.66665H2.99967ZM4.99967 6.99998H6.33301V11H4.99967V6.99998ZM7.66634 6.99998H8.99967V11H7.66634V6.99998ZM3.66634 2.33331V0.99998C3.66634 0.823169 3.73658 0.653599 3.8616 0.528575C3.98663 0.403551 4.1562 0.333313 4.33301 0.333313H9.66634C9.84315 0.333313 10.0127 0.403551 10.1377 0.528575C10.2628 0.653599 10.333 0.823169 10.333 0.99998V2.33331H13.6663V3.66665H0.333008V2.33331H3.66634ZM4.99967 1.66665V2.33331H8.99967V1.66665H4.99967Z" fill="#DA1515"/>
</svg>
