<svg width="18" height="18" viewBox="0 0 18 18" fill="none" xmlns="http://www.w3.org/2000/svg">
<path d="M14.0258 12.8476L17.595 16.4159L16.4158 17.5951L12.8475 14.0259C11.5198 15.0903 9.86833 15.6692 8.16666 15.6667C4.02666 15.6667 0.666664 12.3067 0.666664 8.16675C0.666664 4.02675 4.02666 0.666748 8.16666 0.666748C12.3067 0.666748 15.6667 4.02675 15.6667 8.16675C15.6691 9.86842 15.0902 11.5199 14.0258 12.8476ZM12.3542 12.2292C13.4118 11.1417 14.0024 9.68377 14 8.16675C14 4.94341 11.3892 2.33341 8.16666 2.33341C4.94333 2.33341 2.33333 4.94341 2.33333 8.16675C2.33333 11.3892 4.94333 14.0001 8.16666 14.0001C9.68369 14.0025 11.1416 13.4118 12.2292 12.3542L12.3542 12.2292Z" fill="white"/>
</svg>
