<svg width="14" height="14" viewBox="0 0 14 14" fill="none" xmlns="http://www.w3.org/2000/svg">
<path d="M2.64167 1.95532C3.85138 0.907093 5.399 0.331086 6.99967 0.333319C10.6817 0.333319 13.6663 3.31799 13.6663 6.99999C13.6663 8.42399 13.2197 9.74399 12.4597 10.8267L10.333 6.99999H12.333C12.3331 5.9544 12.0258 4.93186 11.4495 4.05949C10.8731 3.18712 10.053 2.50343 9.09113 2.0934C8.12929 1.68338 7.06815 1.56512 6.03965 1.75333C5.01114 1.94154 4.06064 2.42792 3.30634 3.15199L2.64167 1.95532ZM11.3577 12.0447C10.148 13.0929 8.60035 13.6689 6.99967 13.6667C3.31767 13.6667 0.333008 10.682 0.333008 6.99999C0.333008 5.57599 0.779674 4.25599 1.53967 3.17332L3.66634 6.99999H1.66634C1.66626 8.04557 1.97351 9.06812 2.5499 9.94048C3.12629 10.8128 3.94639 11.4965 4.90822 11.9066C5.87006 12.3166 6.9312 12.4349 7.9597 12.2466C8.98821 12.0584 9.93871 11.5721 10.693 10.848L11.3577 12.0447Z" fill="#111111"/>
</svg>
