<svg width="17" height="18" viewBox="0 0 17 18" fill="none" xmlns="http://www.w3.org/2000/svg">
<path d="M3.33398 14H5.00065V15.6667H15.0007V2.33335H5.00065V4.00002H3.33398V1.50002C3.33398 1.27901 3.42178 1.06704 3.57806 0.910765C3.73434 0.754484 3.9463 0.666687 4.16732 0.666687H15.834C16.055 0.666687 16.267 0.754484 16.4232 0.910765C16.5795 1.06704 16.6673 1.27901 16.6673 1.50002V16.5C16.6673 16.721 16.5795 16.933 16.4232 17.0893C16.267 17.2456 16.055 17.3334 15.834 17.3334H4.16732C3.9463 17.3334 3.73434 17.2456 3.57806 17.0893C3.42178 16.933 3.33398 16.721 3.33398 16.5V14ZM5.00065 8.16669H10.834V9.83335H5.00065V12.3334L0.833984 9.00002L5.00065 5.66669V8.16669Z" fill="#DA1515"/>
</svg>
