<svg width="124" height="32" viewBox="0 0 124 32" fill="none" xmlns="http://www.w3.org/2000/svg">
<path d="M24.896 30.6376L15.4289 21.8082C15.1661 21.5631 15.1072 21.169 15.2869 20.8578L19.3131 13.8843C19.5262 13.5151 19.9983 13.3886 20.3675 13.6017L25.3216 16.462C25.5604 16.5998 25.7075 16.8547 25.7075 17.1305L25.7075 30.2848C25.7075 30.7066 25.2045 30.9253 24.896 30.6376Z" fill="#0646E6"/>
<path d="M17.6418 12.9194C17.855 12.5502 17.7285 12.0781 17.3593 11.8649L12.4052 9.00472C12.1664 8.86683 11.8722 8.86683 11.6333 9.00472L0.241321 15.5819C-0.123932 15.7928 -0.0618112 16.3378 0.341519 16.4611L12.7216 20.2451C13.0653 20.3502 13.436 20.2041 13.6157 19.8929L17.6418 12.9194Z" fill="#0646E6"/>
<path d="M15.1069 8.33623C14.5923 8.03912 14.5923 7.29635 15.1069 6.99924L24.9838 1.2968C25.3055 1.11111 25.7075 1.34322 25.7075 1.71461L25.7075 13.1195C25.7075 13.7137 25.0643 14.0851 24.5496 13.788L15.1069 8.33623Z" fill="#0646E6"/>
<path d="M33.4051 13.9009V11.1424H35.4706V7.01132H39.3027V11.1424H41.7079V13.9009H39.3027V21.7281C39.3027 22.3351 39.3797 22.7156 39.5337 22.8696C39.6877 23.0145 40.1588 23.087 40.9469 23.087C41.0647 23.087 41.187 23.087 41.3138 23.087C41.4497 23.078 41.5811 23.0689 41.7079 23.0598V25.9543L39.8734 26.0222C38.0434 26.0856 36.7933 25.7686 36.1229 25.071C35.688 24.6271 35.4706 23.9431 35.4706 23.0191V13.9009H33.4051Z" fill="#141414"/>
<path d="M53.0742 10.6532C53.1467 10.6532 53.2056 10.6577 53.2509 10.6667C53.3053 10.6667 53.4185 10.6713 53.5906 10.6803V14.6483C53.346 14.6211 53.1286 14.603 52.9384 14.5939C52.7481 14.5849 52.5941 14.5803 52.4763 14.5803C50.9181 14.5803 49.8718 15.0877 49.3373 16.1023C49.0383 16.673 48.8889 17.5518 48.8889 18.7386V25.8184H44.9888V11.0065H48.685V13.5884C49.2829 12.6009 49.8038 11.926 50.2477 11.5636C50.9725 10.9566 51.9147 10.6532 53.0742 10.6532Z" fill="#141414"/>
<path d="M60.69 9.2399H56.7628V5.66602H60.69V9.2399ZM56.7628 11.0065H60.69V25.8184H56.7628V11.0065Z" fill="#141414"/>
<path d="M70.7518 10.6532C71.6487 10.6532 72.4459 10.8525 73.1435 11.2511C73.841 11.6406 74.4072 12.1842 74.8421 12.8817V5.81549H78.7693V25.8184H75.0051V23.7665C74.4525 24.6452 73.8229 25.2839 73.1163 25.6825C72.4097 26.0811 71.5309 26.2804 70.48 26.2804C68.7497 26.2804 67.2912 25.5828 66.1044 24.1877C64.9267 22.7835 64.3378 20.9853 64.3378 18.7929C64.3378 16.2654 64.9176 14.2769 66.0772 12.8274C67.2459 11.3779 68.8041 10.6532 70.7518 10.6532ZM71.5943 23.0191C72.6905 23.0191 73.5239 22.6114 74.0947 21.7961C74.6654 20.9807 74.9508 19.9253 74.9508 18.6298C74.9508 16.818 74.4933 15.5225 73.5783 14.7434C73.0166 14.2723 72.3644 14.0368 71.6215 14.0368C70.4891 14.0368 69.6556 14.4671 69.1211 15.3277C68.5957 16.1793 68.333 17.2392 68.333 18.5075C68.333 19.8755 68.6002 20.9717 69.1347 21.7961C69.6783 22.6114 70.4981 23.0191 71.5943 23.0191Z" fill="#141414"/>
<path d="M99.6886 10.6803C100.341 10.6803 100.984 10.8072 101.618 11.0608C102.252 11.3145 102.828 11.7584 103.344 12.3925C103.761 12.9089 104.042 13.5431 104.187 14.295C104.277 14.7932 104.322 15.5225 104.322 16.4828L104.295 25.8184H100.327V16.3877C100.327 15.826 100.237 15.364 100.056 15.0016C99.7113 14.3131 99.0771 13.9688 98.1531 13.9688C97.0841 13.9688 96.3457 14.4128 95.9381 15.3006C95.7297 15.7716 95.6255 16.3379 95.6255 16.9992V25.8184H91.7255V16.9992C91.7255 16.1204 91.6349 15.4817 91.4537 15.0831C91.1276 14.3675 90.4889 14.0096 89.5377 14.0096C88.4324 14.0096 87.6896 14.3675 87.3091 15.0831C87.1007 15.4908 86.9965 16.0978 86.9965 16.9041V25.8184H83.0694V11.0336H86.8335V13.1943C87.3136 12.4242 87.7666 11.8762 88.1924 11.55C88.9443 10.9702 89.9182 10.6803 91.114 10.6803C92.2464 10.6803 93.1614 10.9295 93.859 11.4277C94.4206 11.8897 94.8464 12.4831 95.1363 13.2079C95.6436 12.3382 96.2733 11.6995 97.0252 11.2918C97.8224 10.8842 98.7102 10.6803 99.6886 10.6803Z" fill="#141414"/>
<path d="M115.376 23.087C116.509 23.087 117.378 22.6839 117.985 21.8776C118.592 21.0713 118.896 19.9253 118.896 18.4396C118.896 16.9539 118.592 15.8124 117.985 15.0152C117.378 14.2089 116.509 13.8058 115.376 13.8058C114.244 13.8058 113.37 14.2089 112.754 15.0152C112.147 15.8124 111.843 16.9539 111.843 18.4396C111.843 19.9253 112.147 21.0713 112.754 21.8776C113.37 22.6839 114.244 23.087 115.376 23.087ZM122.959 18.4396C122.959 20.6138 122.334 22.4755 121.084 24.0247C119.833 25.5647 117.935 26.3348 115.39 26.3348C112.844 26.3348 110.946 25.5647 109.696 24.0247C108.446 22.4755 107.821 20.6138 107.821 18.4396C107.821 16.3016 108.446 14.449 109.696 12.8817C110.946 11.3145 112.844 10.5309 115.39 10.5309C117.935 10.5309 119.833 11.3145 121.084 12.8817C122.334 14.449 122.959 16.3016 122.959 18.4396Z" fill="#141414"/>
</svg>
