<svg width="131" height="48" viewBox="0 0 131 48" fill="none" xmlns="http://www.w3.org/2000/svg">
<path d="M49.4977 40.5776L52.2193 33.152L45.8017 15.344H49.8673L53.9329 29.12H54.1009L58.1329 15.344H62.2321L55.5121 33.8912L53.5633 40.5776H49.4977ZM68.6218 35.4368C67.0314 35.4368 65.721 34.888 64.6906 33.7904C63.6602 32.6928 63.145 31.136 63.145 29.12C63.145 27.5072 63.481 26.2416 64.153 25.3232C64.8474 24.4048 65.8106 23.7552 67.0426 23.3744C68.297 22.9712 69.7642 22.7696 71.4442 22.7696H74.5354C74.5354 21.7168 74.4906 20.8768 74.401 20.2496C74.3338 19.6 74.1994 19.1184 73.9978 18.8048C73.8186 18.5584 73.561 18.3904 73.225 18.3008C72.9114 18.1888 72.4522 18.1328 71.8474 18.1328C71.0186 18.1328 70.1786 18.2112 69.3274 18.368C68.4762 18.5024 67.6922 18.6704 66.9754 18.872C66.281 19.0736 65.7098 19.2528 65.2618 19.4096C64.8362 19.5664 64.6234 19.6448 64.6234 19.6448L63.6154 16.7552C63.6154 16.7552 63.8282 16.6656 64.2538 16.4864C64.7018 16.3072 65.2954 16.0944 66.0346 15.848C66.7962 15.6016 67.6474 15.3888 68.5882 15.2096C69.5514 15.008 70.5482 14.9072 71.5786 14.9072C73.2586 14.9072 74.5914 15.2096 75.577 15.8144C76.585 16.4192 77.3018 17.2704 77.7274 18.368C78.1754 19.4432 78.3994 20.7088 78.3994 22.1648V35H75.913L75.409 32.8832H75.2074C75.073 32.9728 74.8042 33.152 74.401 33.4208C73.9978 33.6896 73.4938 33.9808 72.889 34.2944C72.3066 34.608 71.6458 34.8768 70.9066 35.1008C70.1674 35.3248 69.4058 35.4368 68.6218 35.4368ZM69.5626 32.1776C70.2794 32.1776 70.985 32.0656 71.6794 31.8416C72.3962 31.6176 73.001 31.3824 73.4938 31.136C74.009 30.8672 74.3562 30.6768 74.5354 30.5648V25.928C74.3786 25.9056 74.0202 25.872 73.4602 25.8272C72.9002 25.76 72.161 25.7264 71.2426 25.7264C69.4506 25.7264 68.3306 25.9168 67.8826 26.2976C67.3898 26.7232 67.1434 27.6304 67.1434 29.0192C67.1434 30.1392 67.3226 30.9456 67.681 31.4384C68.0618 31.9312 68.689 32.1776 69.5626 32.1776ZM83.1389 35V15.344H85.6589L86.1293 17.2928H86.2637C86.6669 17.0688 87.2269 16.7664 87.9437 16.3856C88.6605 16.0048 89.4557 15.6576 90.3293 15.344C91.2253 15.0304 92.1214 14.8736 93.0173 14.8736C94.0478 14.8736 94.9102 15.1088 95.6045 15.5792C96.3214 16.0272 96.8477 16.6432 97.1837 17.4272C98.1021 16.8448 99.1214 16.2736 100.241 15.7136C101.384 15.1536 102.616 14.8736 103.937 14.8736C105.214 14.8736 106.211 15.1872 106.928 15.8144C107.645 16.4192 108.137 17.2592 108.406 18.3344C108.697 19.4096 108.843 20.664 108.843 22.0976V35H104.945V23.0384C104.945 22.0528 104.923 21.224 104.878 20.552C104.833 19.88 104.699 19.376 104.475 19.04C104.296 18.7712 104.038 18.6032 103.702 18.536C103.389 18.4464 103.086 18.4016 102.795 18.4016C102.168 18.4016 101.507 18.5136 100.813 18.7376C100.141 18.9392 99.5246 19.1856 98.9646 19.4768C98.427 19.7456 98.0462 19.9472 97.8221 20.0816C97.8446 20.4176 97.867 20.7648 97.8894 21.1232C97.9118 21.4592 97.923 21.8064 97.923 22.1648V35H94.0589V22.9712C94.0589 21.8512 94.0253 21 93.9581 20.4176C93.9133 19.8128 93.7789 19.3424 93.555 19.0064C93.3534 18.76 93.0957 18.6032 92.7821 18.536C92.4909 18.4464 92.2109 18.4016 91.9421 18.4016C91.3373 18.4016 90.7101 18.5024 90.0605 18.704C89.4333 18.8832 88.8509 19.096 88.3133 19.3424C87.7757 19.5888 87.3501 19.8016 87.0365 19.9808V35H83.1389ZM120.262 35.4368C118.246 35.4368 116.656 35.0224 115.491 34.1936C114.349 33.3648 113.531 32.1888 113.038 30.6656C112.545 29.12 112.299 27.2944 112.299 25.1888C112.299 23.0832 112.545 21.2688 113.038 19.7456C113.531 18.2 114.349 17.0128 115.491 16.184C116.656 15.3328 118.246 14.9072 120.262 14.9072C122.256 14.9072 123.824 15.3328 124.966 16.184C126.131 17.0128 126.949 18.2 127.419 19.7456C127.912 21.2688 128.158 23.0832 128.158 25.1888C128.158 27.2944 127.912 29.12 127.419 30.6656C126.949 32.1888 126.131 33.3648 124.966 34.1936C123.824 35.0224 122.256 35.4368 120.262 35.4368ZM120.262 32.312C121.27 32.312 122.054 32.1328 122.614 31.7744C123.197 31.416 123.6 30.7216 123.824 29.6912C124.07 28.6608 124.193 27.16 124.193 25.1888C124.193 23.1952 124.07 21.6832 123.824 20.6528C123.6 19.6224 123.197 18.928 122.614 18.5696C122.032 18.2112 121.248 18.032 120.262 18.032C119.232 18.032 118.425 18.2112 117.843 18.5696C117.261 18.928 116.846 19.6224 116.6 20.6528C116.353 21.6832 116.23 23.1952 116.23 25.1888C116.23 27.16 116.353 28.6608 116.6 29.6912C116.846 30.7216 117.261 31.416 117.843 31.7744C118.425 32.1328 119.232 32.312 120.262 32.312Z" fill="#111111"/>
<path d="M9.07178 21.0637L18.1437 30.1357L9.07178 39.2076L0.84837 30.9842C0.379741 30.5156 0.379741 29.7558 0.84837 29.2871L9.07178 21.0637Z" fill="#197DB5"/>
<path d="M20.5278 30.1356L29.5998 21.0636L37.8232 29.287C38.2918 29.7557 38.2918 30.5155 37.8232 30.9841L29.5998 39.2075L20.5278 30.1356Z" fill="#197DB5"/>
<path d="M10.2637 19.8719L18.4871 11.6485C18.9557 11.1799 19.7155 11.1799 20.1841 11.6485L28.4075 19.8719L19.3356 28.9439L10.2637 19.8719Z" fill="#197DB5"/>
</svg>
