<svg width="24" height="25" viewBox="0 0 24 25" fill="none" xmlns="http://www.w3.org/2000/svg">
<path d="M21.4302 16.7334L22.8325 17.5745C22.919 17.6263 22.9906 17.6997 23.0403 17.7874C23.0901 17.8751 23.1162 17.9742 23.1162 18.075C23.1162 18.1759 23.0901 18.275 23.0403 18.3627C22.9906 18.4504 22.919 18.5237 22.8325 18.5755L12.6008 24.7145C12.4194 24.8236 12.2117 24.8812 12 24.8812C11.7883 24.8812 11.5806 24.8236 11.3992 24.7145L1.16749 18.5755C1.08098 18.5237 1.00937 18.4504 0.959647 18.3627C0.909925 18.275 0.883789 18.1759 0.883789 18.075C0.883789 17.9742 0.909925 17.8751 0.959647 17.7874C1.00937 17.6997 1.08098 17.6263 1.16749 17.5745L2.56983 16.7334L12 22.3917L21.4302 16.7334ZM21.4302 11.25L22.8325 12.0912C22.919 12.143 22.9906 12.2163 23.0403 12.304C23.0901 12.3918 23.1162 12.4909 23.1162 12.5917C23.1162 12.6925 23.0901 12.7916 23.0403 12.8794C22.9906 12.9671 22.919 13.0404 22.8325 13.0922L12 19.5917L1.16749 13.0922C1.08098 13.0404 1.00937 12.9671 0.959647 12.8794C0.909925 12.7916 0.883789 12.6925 0.883789 12.5917C0.883789 12.4909 0.909925 12.3918 0.959647 12.304C1.00937 12.2163 1.08098 12.143 1.16749 12.0912L2.56983 11.25L12 16.9084L21.4302 11.25ZM12.5997 0.527207L22.8325 6.66621C22.919 6.718 22.9906 6.79133 23.0403 6.87905C23.0901 6.96677 23.1162 7.06588 23.1162 7.16671C23.1162 7.26754 23.0901 7.36665 23.0403 7.45436C22.9906 7.54208 22.919 7.61542 22.8325 7.66721L12 14.1667L1.16749 7.66721C1.08098 7.61542 1.00937 7.54208 0.959647 7.45436C0.909925 7.36665 0.883789 7.26754 0.883789 7.16671C0.883789 7.06588 0.909925 6.96677 0.959647 6.87905C1.00937 6.79133 1.08098 6.718 1.16749 6.66621L11.3992 0.527207C11.5806 0.41819 11.7883 0.360596 12 0.360596C12.2117 0.360596 12.4194 0.41819 12.6008 0.527207H12.5997ZM12 2.88737L4.86816 7.16671L12 11.446L19.1318 7.16671L12 2.88737Z" fill="#197DB5"/>
</svg>
