<svg width="500" height="500" viewBox="0 0 500 500" fill="none" xmlns="http://www.w3.org/2000/svg">
<path d="M250.56 489.48C383.28 489.48 490.87 433.802 490.87 365.12C490.87 296.438 383.28 240.76 250.56 240.76C117.84 240.76 10.25 296.438 10.25 365.12C10.25 433.802 117.84 489.48 250.56 489.48Z" fill="#F5F5F5"/>
<path d="M106.08 45.1302L96.9 50.4302C96.9 50.0202 96.98 49.6202 96.98 49.2202V46.5602C96.98 41.8302 93.65 39.9102 89.56 42.2802C87.7935 43.3565 86.2847 44.8073 85.14 46.5302C84.46 40.5302 79.8 38.3602 74.14 41.6402C68 45.1702 63 53.7802 63 60.8602V64.8602C62.9824 66.4461 63.3243 68.0154 64 69.4502L56.37 73.8502C55.1642 74.6302 54.1603 75.6849 53.4407 76.9277C52.7211 78.1705 52.3062 79.5661 52.23 81.0002C52.23 83.6202 54.07 84.6802 56.34 83.3702L106.08 54.6602C107.276 53.8776 108.272 52.8244 108.986 51.5858C109.7 50.3471 110.112 48.9578 110.19 47.5302C110.19 44.8902 108.35 43.8202 106.08 45.1302Z" fill="#EBEBEB"/>
<path d="M150.24 65.0001L143.31 69.0001C143.35 68.695 143.37 68.3877 143.37 68.0801V66.0801C143.37 62.5101 140.87 61.0801 137.77 62.8501C136.441 63.6666 135.305 64.7618 134.44 66.0601C133.93 61.5701 130.44 59.9001 126.13 62.3701C121.5 65.0401 117.75 71.5301 117.75 76.8801V79.8801C117.723 81.0786 117.966 82.2679 118.46 83.3601L112.71 86.6801C111.805 87.2688 111.051 88.0629 110.511 88.9978C109.97 89.9326 109.658 90.9818 109.6 92.0601C109.6 94.0601 110.99 94.8401 112.71 93.8501L150.24 72.1801C151.145 71.5914 151.899 70.7973 152.439 69.8624C152.98 68.9276 153.292 67.8783 153.35 66.8001C153.35 64.8301 152 64.0001 150.24 65.0001Z" fill="#EBEBEB"/>
<path d="M398.11 432.13C425.332 432.13 447.4 419.388 447.4 403.67C447.4 387.952 425.332 375.21 398.11 375.21C370.888 375.21 348.82 387.952 348.82 403.67C348.82 419.388 370.888 432.13 398.11 432.13Z" fill="#E0E0E0"/>
<path d="M79.49 431.39L35.75 406.13C33.28 404.71 33.28 402.4 35.75 400.98L280.51 259.83C281.894 259.13 283.424 258.765 284.975 258.765C286.526 258.765 288.056 259.13 289.44 259.83L333.19 285.09C335.65 286.51 335.65 288.82 333.19 290.24L88.42 431.39C87.0358 432.09 85.5062 432.455 83.955 432.455C82.4037 432.455 80.8741 432.09 79.49 431.39Z" fill="#E0E0E0"/>
<path d="M314.39 341.39L309 338.25C296.65 331.12 277.15 330.77 265.54 337.47L245.18 349.2C244.835 349.399 244.583 349.727 244.48 350.111C244.377 350.495 244.431 350.905 244.63 351.25C244.829 351.595 245.157 351.846 245.541 351.949C245.925 352.053 246.335 351.999 246.68 351.8L267 340.07C277.78 333.84 295.94 334.19 307.46 340.84L312.9 343.99C318.2 347.05 321.12 350.99 321.12 355.19C321.12 359.39 318.2 363.33 312.9 366.39L238.41 409.39C226.88 416.05 208.13 416.04 196.6 409.39L174.9 396.88C162.55 389.75 142.45 389.75 130.1 396.88L124.66 400C118.13 403.77 114.53 408.79 114.53 414.12C114.53 419.04 117.65 423.55 123.32 426.82L142.74 438.04L134.74 442.75C131.09 444.9 131.11 448.39 134.74 450.51L149.39 459C149.521 459.044 149.634 459.128 149.714 459.24C149.795 459.353 149.838 459.487 149.838 459.625C149.838 459.763 149.795 459.897 149.714 460.009C149.634 460.121 149.521 460.206 149.39 460.25L148.17 460.94C147.57 461.28 147.57 461.84 148.17 462.19L150.06 463.28C150.395 463.453 150.767 463.543 151.145 463.543C151.522 463.543 151.894 463.453 152.23 463.28L158.85 459.48C159.187 459.313 159.558 459.225 159.935 459.225C160.311 459.225 160.683 459.313 161.02 459.48L173.02 466.48C173.355 466.648 173.725 466.735 174.1 466.735C174.475 466.735 174.845 466.648 175.18 466.48L177.08 465.38C177.68 465.04 177.68 464.48 177.08 464.13L165.08 457.13C164.48 456.78 164.48 456.22 165.08 455.88L169.7 453.21C170.034 453.037 170.404 452.947 170.78 452.947C171.156 452.947 171.526 453.037 171.86 453.21L183.92 460.16C184.254 460.333 184.624 460.423 185 460.423C185.376 460.423 185.746 460.333 186.08 460.16L188 459C188.131 458.956 188.244 458.871 188.324 458.759C188.405 458.647 188.448 458.513 188.448 458.375C188.448 458.237 188.405 458.103 188.324 457.99C188.244 457.878 188.131 457.794 188 457.75L176 450.75C175.869 450.706 175.756 450.621 175.676 450.509C175.595 450.397 175.552 450.263 175.552 450.125C175.552 449.987 175.595 449.853 175.676 449.74C175.756 449.628 175.869 449.544 176 449.5L182 446.06C182.131 446.016 182.244 445.931 182.324 445.819C182.405 445.707 182.448 445.573 182.448 445.435C182.448 445.297 182.405 445.163 182.324 445.05C182.244 444.938 182.131 444.854 182 444.81L180.1 443.72C179.764 443.547 179.392 443.457 179.015 443.457C178.637 443.457 178.265 443.547 177.93 443.72L176.04 444.81C175.703 444.977 175.331 445.064 174.955 445.064C174.578 445.064 174.207 444.977 173.87 444.81L155.34 434.11C154.419 433.639 153.399 433.394 152.365 433.394C151.331 433.394 150.311 433.639 149.39 434.11L145.7 436.28C145.574 436.116 145.418 435.977 145.24 435.87L124.93 424.15C120.23 421.43 117.64 417.85 117.64 414.04C117.64 409.88 120.79 405.68 126.27 402.52L131.71 399.37C143.24 392.72 161.99 392.72 173.51 399.37L195.09 412C207.45 419.13 227.54 419.13 239.9 412L314.39 369C320.66 365.38 324.11 360.48 324.11 355.2C324.11 349.92 320.66 345 314.39 341.39Z" fill="#E0E0E0"/>
<path d="M416.43 402.36C416.04 383.07 423.61 365.64 430.09 357.06C436.57 348.48 447.44 340.06 455 342.46C462 344.66 461.53 353.83 453.23 360.13C444.93 366.43 432.42 374.39 429 385L420.62 404.48L416.43 402.36Z" fill="#CB93F6"/>
<path opacity="0.15" d="M416.43 402.36C416.04 383.07 423.61 365.64 430.09 357.06C436.57 348.48 447.44 340.06 455 342.46C462 344.66 461.53 353.83 453.23 360.13C444.93 366.43 432.42 374.39 429 385L420.62 404.48L416.43 402.36Z" fill="black"/>
<path d="M418.73 400.52C418.832 400.506 418.927 400.46 419.001 400.388C419.075 400.316 419.124 400.222 419.14 400.12C420.94 389.44 424.52 377.12 430.6 367.4C437.14 356.96 446.6 350.55 452.14 348.34C452.255 348.294 452.347 348.203 452.396 348.089C452.445 347.975 452.446 347.846 452.4 347.73C452.377 347.672 452.343 347.619 452.299 347.574C452.255 347.529 452.202 347.494 452.145 347.47C452.087 347.445 452.025 347.433 451.962 347.433C451.9 347.433 451.838 347.446 451.78 347.47C446.15 349.73 436.41 356.38 429.71 367.1C423.6 376.86 420.02 389.23 418.21 399.97C418.2 400.031 418.202 400.094 418.216 400.154C418.231 400.214 418.257 400.271 418.293 400.321C418.329 400.371 418.375 400.414 418.428 400.446C418.48 400.479 418.539 400.5 418.6 400.51L418.73 400.52Z" fill="white"/>
<path d="M423.4 406.55C424.34 402.89 428.62 396.77 435.66 391.62C443.45 385.93 453.43 383.14 455.66 378.81C458.31 373.61 453.86 368.89 445.73 370.12C437.6 371.35 422.37 383.07 419.24 404.12L423.4 406.55Z" fill="#CB93F6"/>
<path d="M421.72 402.78C421.811 402.771 421.896 402.736 421.967 402.679C422.038 402.623 422.091 402.546 422.12 402.46C428.37 383.37 442.61 376.34 449.27 375.29C449.331 375.28 449.39 375.258 449.442 375.226C449.495 375.193 449.541 375.151 449.577 375.101C449.613 375.051 449.639 374.994 449.653 374.934C449.668 374.873 449.67 374.811 449.66 374.75C449.65 374.689 449.628 374.63 449.596 374.578C449.563 374.525 449.521 374.479 449.471 374.443C449.421 374.407 449.364 374.381 449.304 374.367C449.243 374.352 449.181 374.35 449.12 374.36C441.76 375.52 427.6 382.68 421.22 402.16C421.182 402.279 421.192 402.409 421.248 402.521C421.304 402.633 421.402 402.719 421.52 402.76C421.584 402.781 421.653 402.788 421.72 402.78Z" fill="white"/>
<path d="M144.38 434.11C144.117 434.109 143.859 434.04 143.63 433.91L123.32 422.18C117.65 418.91 114.53 414.4 114.53 409.48C114.53 404.14 118.13 399.13 124.66 395.36L130.1 392.21C142.45 385.08 162.55 385.08 174.9 392.21L196.59 404.74C208.12 411.39 226.87 411.39 238.4 404.74L312.89 361.74C318.19 358.68 321.11 354.74 321.11 350.53C321.11 346.32 318.19 342.39 312.89 339.33L307.45 336.19C295.92 329.54 277.77 329.19 266.99 335.42L246.68 347.14C246.335 347.339 245.925 347.393 245.541 347.29C245.157 347.187 244.829 346.935 244.63 346.59C244.431 346.246 244.377 345.836 244.48 345.451C244.583 345.067 244.835 344.739 245.18 344.54L265.49 332.82C277.1 326.11 296.6 326.46 308.95 333.59L314.39 336.74C320.66 340.35 324.11 345.25 324.11 350.53C324.11 355.81 320.66 360.72 314.39 364.33L239.9 407.33C227.54 414.47 207.45 414.47 195.09 407.33L173.4 394.81C161.88 388.16 143.13 388.16 131.6 394.81L126.16 398C120.68 401.17 117.53 405.37 117.53 409.53C117.53 413.33 120.12 416.92 124.82 419.63L145.13 431.36C145.416 431.525 145.64 431.78 145.767 432.085C145.894 432.391 145.916 432.729 145.831 433.048C145.745 433.368 145.556 433.65 145.294 433.851C145.032 434.052 144.71 434.161 144.38 434.16V434.11Z" fill="#404040"/>
<path d="M131.76 437.36V439.09C131.843 440.592 132.278 442.054 133.03 443.357C133.782 444.66 134.83 445.767 136.09 446.59L152.09 455.81L168.33 446.43V432.36L152.55 425.08C151.127 424.515 149.601 424.258 148.072 424.327C146.543 424.396 145.046 424.789 143.68 425.48L136.09 429.86C134.83 430.682 133.781 431.79 133.029 433.093C132.277 434.396 131.842 435.858 131.76 437.36Z" fill="#404040"/>
<path d="M152.55 425.08C151.127 424.515 149.601 424.258 148.072 424.327C146.543 424.396 145.046 424.789 143.68 425.48L136.09 429.86C133.7 431.24 133.8 433.3 136.3 434.46L152.07 441.74L168.33 432.36L152.55 425.08Z" fill="#404040"/>
<path opacity="0.1" d="M150.54 438.35C149.91 438.762 149.387 439.315 149.011 439.967C148.636 440.619 148.42 441.35 148.38 442.1V453.68L152.08 455.81L168.32 446.43V432.36L164.2 430.46L150.54 438.35Z" fill="black"/>
<path d="M169.71 429.94C169.466 429.83 169.197 429.786 168.93 429.812C168.663 429.838 168.408 429.934 168.19 430.09L152.19 439.32C151.558 439.73 151.033 440.284 150.656 440.935C150.279 441.587 150.061 442.319 150.02 443.07V456.83C149.991 457.1 150.036 457.372 150.148 457.618C150.261 457.864 150.438 458.076 150.66 458.23L152.66 459.4C152.905 459.516 153.176 459.563 153.446 459.536C153.715 459.51 153.972 459.411 154.19 459.25L170.19 450.03C170.818 449.618 171.341 449.064 171.717 448.413C172.092 447.761 172.309 447.031 172.35 446.28V432.51C172.377 432.242 172.332 431.972 172.222 431.726C172.111 431.481 171.938 431.268 171.72 431.11L169.71 429.94Z" fill="#404040"/>
<path d="M154.24 440.49L170.24 431.26C171.43 430.57 172.4 431.13 172.4 432.51V446.28C172.359 447.031 172.142 447.761 171.767 448.412C171.391 449.064 170.868 449.618 170.24 450.03L154.24 459.25C153.04 459.94 152.07 459.38 152.07 458V444.24C152.111 443.488 152.329 442.757 152.706 442.105C153.083 441.454 153.608 440.9 154.24 440.49Z" fill="#404040"/>
<path d="M170.79 450.89L157.57 443.26L156.14 444.09V453.47L169.35 461.1C169.658 461.321 170.02 461.456 170.398 461.491C170.776 461.526 171.156 461.46 171.5 461.3L172.94 460.47C173.256 460.25 173.505 459.946 173.66 459.594C173.816 459.241 173.871 458.852 173.82 458.47V456.09C173.756 455.047 173.449 454.033 172.923 453.13C172.396 452.227 171.666 451.46 170.79 450.89ZM168.36 453.4C168.945 453.787 169.432 454.307 169.779 454.916C170.126 455.526 170.325 456.209 170.36 456.91C170.359 457.099 170.335 457.287 170.29 457.47C170.109 457.42 169.935 457.35 169.77 457.26C169.185 456.87 168.7 456.348 168.353 455.737C168.005 455.126 167.806 454.442 167.77 453.74C167.771 453.548 167.794 453.357 167.84 453.17C168.023 453.223 168.198 453.301 168.36 453.4Z" fill="#CB93F6"/>
<path opacity="0.85" d="M170.79 450.89L157.57 443.26L156.14 444.09L169.35 451.72C170.227 452.298 170.956 453.075 171.477 453.987C171.998 454.899 172.297 455.921 172.35 456.97V459.35C172.395 459.739 172.329 460.133 172.161 460.486C171.994 460.84 171.73 461.139 171.4 461.35H171.47L172.91 460.51C173.227 460.291 173.477 459.987 173.632 459.634C173.787 459.281 173.842 458.892 173.79 458.51V456.13C173.733 455.083 173.432 454.064 172.912 453.154C172.391 452.244 171.664 451.469 170.79 450.89Z" fill="white"/>
<path d="M173.82 456.14V458.52C173.872 458.902 173.817 459.292 173.662 459.645C173.507 459.998 173.257 460.301 172.94 460.52L171.5 461.36H171.44C171.768 461.148 172.03 460.848 172.196 460.495C172.362 460.141 172.426 459.748 172.38 459.36V457C172.344 455.941 172.038 454.908 171.49 454L172.93 453.17C173.474 454.069 173.78 455.091 173.82 456.14Z" fill="#CB93F6"/>
<path opacity="0.6" d="M173.82 456.14V458.52C173.872 458.902 173.817 459.292 173.662 459.645C173.507 459.998 173.257 460.301 172.94 460.52L171.5 461.36H171.44C171.768 461.148 172.03 460.848 172.196 460.495C172.362 460.141 172.426 459.748 172.38 459.36V457C172.344 455.941 172.038 454.908 171.49 454L172.93 453.17C173.474 454.069 173.78 455.091 173.82 456.14Z" fill="white"/>
<path opacity="0.05" d="M173.82 456.14V458.52C173.872 458.902 173.817 459.292 173.662 459.645C173.507 459.998 173.257 460.301 172.94 460.52L171.5 461.36H171.44C171.768 461.148 172.03 460.848 172.196 460.495C172.362 460.141 172.426 459.748 172.38 459.36V457C172.344 455.941 172.038 454.908 171.49 454L172.93 453.17C173.474 454.069 173.78 455.091 173.82 456.14Z" fill="black"/>
<path opacity="0.6" d="M167.77 453.74C167.77 453.548 167.794 453.357 167.84 453.17C166.97 452.93 166.33 453.48 166.33 454.57C166.364 455.273 166.563 455.957 166.911 456.569C167.258 457.18 167.744 457.701 168.33 458.09C169.27 458.64 170.07 458.35 170.33 457.47C170.146 457.429 169.971 457.358 169.81 457.26C169.217 456.876 168.723 456.356 168.368 455.745C168.014 455.133 167.809 454.446 167.77 453.74Z" fill="white"/>
<path opacity="0.1" d="M167.77 453.74C167.77 453.548 167.794 453.357 167.84 453.17C166.97 452.93 166.33 453.48 166.33 454.57C166.364 455.273 166.563 455.957 166.911 456.569C167.258 457.18 167.744 457.701 168.33 458.09C169.27 458.64 170.07 458.35 170.33 457.47C170.146 457.429 169.971 457.358 169.81 457.26C169.217 456.876 168.723 456.356 168.368 455.745C168.014 455.133 167.809 454.446 167.77 453.74Z" fill="black"/>
<path opacity="0.7" d="M169.35 451.72L156.14 444.09V453.47L169.35 461.1C171.03 462.1 172.35 461.28 172.35 459.35V457C172.304 455.945 172.008 454.917 171.487 453.999C170.965 453.08 170.233 452.3 169.35 451.72ZM168.35 458.09C167.765 457.7 167.28 457.179 166.933 456.567C166.585 455.956 166.386 455.272 166.35 454.57C166.35 453.27 167.26 452.75 168.35 453.4C168.935 453.787 169.422 454.307 169.769 454.917C170.117 455.526 170.315 456.209 170.35 456.91C170.39 458.21 169.48 458.73 168.36 458.09H168.35Z" fill="white"/>
<path d="M181.54 444.68L168.33 437.05L166.89 437.88V447.26L180.1 454.89C180.407 455.115 180.768 455.253 181.146 455.29C181.524 455.327 181.906 455.261 182.25 455.1L183.69 454.26C183.999 454.045 184.243 453.75 184.398 453.406C184.553 453.063 184.613 452.684 184.57 452.31V449.93C184.514 448.878 184.21 447.855 183.684 446.942C183.157 446.03 182.423 445.255 181.54 444.68ZM179.11 447.19C179.697 447.578 180.184 448.099 180.531 448.711C180.879 449.323 181.077 450.008 181.11 450.71C181.11 450.896 181.086 451.081 181.04 451.26C180.856 451.219 180.681 451.148 180.52 451.05C179.934 450.661 179.448 450.14 179.101 449.529C178.753 448.917 178.554 448.233 178.52 447.53C178.52 447.341 178.544 447.153 178.59 446.97C178.772 447.02 178.947 447.094 179.11 447.19Z" fill="#CB93F6"/>
<path opacity="0.85" d="M181.54 444.68L168.32 437.05L166.89 437.88L180.1 445.51C180.977 446.088 181.706 446.865 182.227 447.777C182.748 448.689 183.047 449.711 183.1 450.76V453.14C183.145 453.529 183.079 453.923 182.911 454.276C182.744 454.63 182.48 454.929 182.15 455.14H182.22L183.66 454.3C183.969 454.085 184.213 453.79 184.368 453.446C184.523 453.103 184.582 452.724 184.54 452.35V449.97C184.491 448.915 184.194 447.886 183.673 446.967C183.151 446.047 182.421 445.264 181.54 444.68Z" fill="white"/>
<path d="M184.57 449.93V452.31C184.613 452.684 184.553 453.063 184.398 453.406C184.243 453.749 183.999 454.045 183.69 454.26L182.25 455.1H182.19C182.518 454.888 182.78 454.588 182.946 454.235C183.112 453.881 183.176 453.488 183.13 453.1V450.72C183.094 449.661 182.788 448.628 182.24 447.72L183.68 446.89C184.236 447.809 184.542 448.857 184.57 449.93Z" fill="#CB93F6"/>
<path opacity="0.6" d="M184.57 449.93V452.31C184.613 452.684 184.553 453.063 184.398 453.406C184.243 453.749 183.999 454.045 183.69 454.26L182.25 455.1H182.19C182.518 454.888 182.78 454.588 182.946 454.235C183.112 453.881 183.176 453.488 183.13 453.1V450.72C183.094 449.661 182.788 448.628 182.24 447.72L183.68 446.89C184.236 447.809 184.542 448.857 184.57 449.93Z" fill="white"/>
<path opacity="0.05" d="M184.57 449.93V452.31C184.613 452.684 184.553 453.063 184.398 453.406C184.243 453.749 183.999 454.045 183.69 454.26L182.25 455.1H182.19C182.518 454.888 182.78 454.588 182.946 454.235C183.112 453.881 183.176 453.488 183.13 453.1V450.72C183.094 449.661 182.788 448.628 182.24 447.72L183.68 446.89C184.236 447.809 184.542 448.857 184.57 449.93Z" fill="black"/>
<path opacity="0.6" d="M178.52 447.53C178.52 447.341 178.544 447.153 178.59 446.97C177.73 446.73 177.08 447.27 177.08 448.36C177.114 449.063 177.313 449.747 177.661 450.359C178.008 450.97 178.494 451.491 179.08 451.88C180.02 452.43 180.82 452.14 181.08 451.26C180.896 451.219 180.721 451.148 180.56 451.05C179.967 450.666 179.473 450.146 179.118 449.535C178.764 448.923 178.559 448.236 178.52 447.53Z" fill="white"/>
<path opacity="0.1" d="M178.52 447.53C178.52 447.341 178.544 447.153 178.59 446.97C177.73 446.73 177.08 447.27 177.08 448.36C177.114 449.063 177.313 449.747 177.661 450.359C178.008 450.97 178.494 451.491 179.08 451.88C180.02 452.43 180.82 452.14 181.08 451.26C180.896 451.219 180.721 451.148 180.56 451.05C179.967 450.666 179.473 450.146 179.118 449.535C178.764 448.923 178.559 448.236 178.52 447.53Z" fill="black"/>
<path opacity="0.7" d="M180.11 445.51L166.89 437.88V447.26L180.1 454.89C181.78 455.89 183.1 455.08 183.1 453.14V450.76C183.046 449.713 182.747 448.692 182.228 447.78C181.709 446.869 180.984 446.091 180.11 445.51ZM179.11 451.88C178.524 451.491 178.038 450.97 177.691 450.359C177.343 449.747 177.144 449.063 177.11 448.36C177.11 447.07 178.02 446.54 179.11 447.19C179.697 447.578 180.184 448.099 180.531 448.711C180.879 449.323 181.077 450.008 181.11 450.71C181.14 452 180.23 452.53 179.11 451.88Z" fill="white"/>
<path d="M227.05 392.14L264.65 370.39C268.53 368.16 270.47 365.22 270.47 362.29C270.47 359.36 270.47 357.06 270.47 357.06L231.47 335.06C230.379 334.349 229.471 333.391 228.82 332.263C228.168 331.135 227.791 329.87 227.72 328.57V282.21L162.04 320.21V366.58C162.109 367.878 162.483 369.142 163.133 370.268C163.783 371.394 164.69 372.351 165.78 373.06L199 392.14C206.73 396.61 219.3 396.61 227.05 392.14Z" fill="#CB93F6"/>
<g opacity="0.6">
<path d="M227.05 392.14L264.65 370.39C268.53 368.16 270.47 365.22 270.47 362.29C270.47 359.36 270.47 357.06 270.47 357.06L231.47 335.06C230.379 334.349 229.471 333.391 228.82 332.263C228.168 331.135 227.791 329.87 227.72 328.57V282.21L162.04 320.21V366.58C162.109 367.878 162.483 369.142 163.133 370.268C163.783 371.394 164.69 372.351 165.78 373.06L199 392.14C206.73 396.61 219.3 396.61 227.05 392.14Z" fill="black"/>
</g>
<path opacity="0.3" d="M177.81 374.74V380L165.81 373.06C164.723 372.348 163.818 371.391 163.168 370.265C162.519 369.14 162.143 367.877 162.07 366.58V320.17L174.55 313C174.8 316.17 175.09 319.46 175.35 322.66L166.57 327.74V363.96C166.634 365.26 167.006 366.525 167.657 367.652C168.307 368.779 169.217 369.735 170.31 370.44L177.81 374.74Z" fill="black"/>
<path d="M166.57 363.92C166.639 365.218 167.013 366.482 167.663 367.608C168.313 368.734 169.22 369.691 170.31 370.4L199 386.91C206.75 391.38 219.32 391.39 227.08 386.91L264.7 365.17C272.45 360.7 272.45 353.44 264.7 348.96L236 332.45C234.91 331.738 234.004 330.78 233.354 329.652C232.704 328.524 232.329 327.26 232.26 325.96V289.73L166.58 327.73L166.57 363.92Z" fill="#CB93F6"/>
<path opacity="0.3" d="M166.57 363.92C166.639 365.218 167.013 366.482 167.663 367.608C168.313 368.734 169.22 369.691 170.31 370.4L199 386.91C206.75 391.38 219.32 391.39 227.08 386.91L264.7 365.17C272.45 360.7 272.45 353.44 264.7 348.96L236 332.45C234.91 331.738 234.004 330.78 233.354 329.652C232.704 328.524 232.329 327.26 232.26 325.96V289.73L166.58 327.73L166.57 363.92Z" fill="black"/>
<path opacity="0.5" d="M243.62 336.85L236 332.45C234.91 331.738 234.004 330.78 233.354 329.652C232.704 328.524 232.329 327.26 232.26 325.96V289.73L166.58 327.73V363.96C166.649 365.258 167.023 366.522 167.673 367.648C168.323 368.774 169.23 369.731 170.32 370.44L177.82 374.77L243.62 336.85Z" fill="black"/>
<path d="M270.48 357.06V362.29C270.48 365.23 268.48 368.15 264.66 370.4L227.05 392.13C222.929 394.334 218.324 395.479 213.65 395.46V390.25C218.324 390.269 222.929 389.125 227.05 386.92L264.66 365.17C268.53 362.94 270.48 360 270.48 357.06Z" fill="#CB93F6"/>
<path opacity="0.5" d="M270.48 357.06V362.29C270.48 365.23 268.48 368.15 264.66 370.4L227.05 392.13C222.929 394.334 218.324 395.479 213.65 395.46V390.25C218.324 390.269 222.929 389.125 227.05 386.92L264.66 365.17C268.53 362.94 270.48 360 270.48 357.06Z" fill="black"/>
<path d="M61.1 409C62.5182 409.689 64.0791 410.032 65.6554 410.003C67.2316 409.973 68.7786 409.571 70.17 408.83L324.17 262.17C326.75 260.68 328.84 257.05 328.84 258.07V26.7202C328.84 19.7202 326.84 16.1802 324.45 14.7802C323.033 14.0932 321.474 13.7505 319.9 13.7801C318.325 13.8096 316.78 14.2105 315.39 14.9502L61.4 161.61C60.037 162.496 58.9027 163.692 58.0895 165.099C57.2762 166.507 56.8069 168.087 56.72 169.71V401C56.7634 402.585 57.1832 404.138 57.9448 405.529C58.7064 406.92 59.7879 408.11 61.1 409Z" fill="#CB93F6"/>
<path d="M70.17 408.78L324.17 262.12C326.75 260.63 328.85 257 328.85 258.01V26.7104C328.85 19.7104 326.75 18.5204 324.17 20.0104L70.17 166.67C68.8071 167.557 67.6728 168.752 66.8595 170.16C66.0462 171.567 65.577 173.147 65.49 174.77V406.07C65.49 409.06 67.59 410.27 70.17 408.78Z" fill="#CB93F6"/>
<path opacity="0.5" d="M70.17 408.78L324.17 262.12C326.75 260.63 328.85 257 328.85 258.01V26.7104C328.85 19.7104 326.75 18.5204 324.17 20.0104L70.17 166.67C68.8071 167.557 67.6728 168.752 66.8595 170.16C66.0462 171.567 65.577 173.147 65.49 174.77V406.07C65.49 409.06 67.59 410.27 70.17 408.78Z" fill="black"/>
<path d="M69.48 414.12C68.1518 414.693 66.7162 414.973 65.2704 414.942C63.8245 414.911 62.4023 414.569 61.1 413.94C59.7941 413.057 58.7156 411.877 57.9527 410.497C57.1897 409.117 56.7639 407.576 56.71 406V391.28L65.49 396.36V411.07C65.49 413.79 67.22 415 69.48 414.12Z" fill="#CB93F6"/>
<path opacity="0.5" d="M69.48 414.12C68.1518 414.693 66.7162 414.973 65.2704 414.942C63.8245 414.911 62.4023 414.569 61.1 413.94C59.7941 413.057 58.7156 411.877 57.9527 410.497C57.1897 409.117 56.7639 407.576 56.71 406V391.28L65.49 396.36V411.07C65.49 413.79 67.22 415 69.48 414.12Z" fill="black"/>
<path d="M65.49 396.36V411.06C65.49 414.06 67.59 415.26 70.17 413.76L324.17 267.11C325.533 266.221 326.666 265.024 327.48 263.615C328.293 262.206 328.762 260.625 328.85 259V244.26L65.49 396.36Z" fill="#CB93F6"/>
<path opacity="0.3" d="M65.49 396.32V411.06C65.49 414.06 67.59 415.26 70.17 413.76L324.17 267.11C325.533 266.221 326.666 265.024 327.48 263.615C328.293 262.206 328.762 260.625 328.85 259V244.26L65.49 396.32Z" fill="black"/>
<path d="M74.27 377.88V177.69C74.3239 176.715 74.6063 175.766 75.0944 174.92C75.5825 174.074 76.2627 173.355 77.08 172.82L317.28 34.1401C318.83 33.2501 320.09 33.9701 320.09 35.7601V236C320.036 236.974 319.754 237.921 319.266 238.766C318.777 239.61 318.097 240.328 317.28 240.86L77.08 379.51C75.53 380.4 74.27 379.67 74.27 377.88Z" fill="#CB93F6"/>
<path d="M74.27 377.88V177.69C74.3239 176.715 74.6063 175.766 75.0944 174.92C75.5825 174.074 76.2627 173.355 77.08 172.82L317.28 34.1401C318.83 33.2501 320.09 33.9701 320.09 35.7601V236C320.036 236.974 319.754 237.921 319.266 238.766C318.777 239.61 318.097 240.328 317.28 240.86L77.08 379.51C75.53 380.4 74.27 379.67 74.27 377.88Z" fill="#263238"/>
<path opacity="0.7" d="M66.87 170.14C66.0385 171.548 65.5646 173.137 65.49 174.77V396.36L56.71 391.28V169.71C56.7703 168.08 57.2416 166.49 58.08 165.09L66.87 170.14Z" fill="black"/>
<path opacity="0.3" d="M328.83 21.9401C328.5 19.5301 326.55 18.6601 324.19 20.0101L70.19 166.67C68.8068 167.527 67.667 168.726 66.88 170.15L58.1 165.08C58.8928 163.66 60.0313 162.463 61.41 161.6L315.42 15.0001C316.811 14.2588 318.358 13.857 319.935 13.8274C321.511 13.7979 323.072 14.1415 324.49 14.8301C325.677 15.6384 326.679 16.6908 327.427 17.9168C328.176 19.1429 328.654 20.5145 328.83 21.9401Z" fill="black"/>
<path d="M98.4 390.08C97.8434 390.409 97.2154 390.597 96.57 390.63C95.6496 390.75 94.7144 390.586 93.89 390.16C93.2358 389.714 92.697 389.118 92.318 388.423C91.9389 387.727 91.7306 386.952 91.71 386.16V204.56L96.1 207.09V388.73C96.1 389.79 96.63 390.4 97.39 390.4C97.7465 390.371 98.0918 390.262 98.4 390.08Z" fill="#F0F0F0"/>
<path d="M339.83 248C339.782 248.803 339.546 249.582 339.141 250.277C338.736 250.972 338.174 251.562 337.5 252L98.4001 390.08C97.1201 390.82 96.0801 390.22 96.0801 388.73V192L102.49 188.3C103.77 187.56 105.86 176.3 107.15 175.51L162.75 143.41C164.04 142.67 167.07 151.02 168.35 150.27L339.83 51.27V248Z" fill="#FAFAFA"/>
<path d="M338.75 53.0997V248C338.706 248.618 338.521 249.218 338.211 249.755C337.901 250.292 337.473 250.752 336.96 251.1L97.8601 389.15C97.7121 389.244 97.5444 389.302 97.3701 389.32C97.1501 389.32 97.1501 388.76 97.1501 388.73V192.61L103.03 189.21C103.96 188.67 104.54 186.86 105.85 182.21C106.318 180.217 106.96 178.269 107.77 176.39L162.87 144.58C163.524 145.464 164.109 146.397 164.62 147.37C166.12 150.01 166.96 151.37 168.18 151.37C168.431 151.37 168.676 151.301 168.89 151.17L338.75 53.0997ZM339.83 51.2397L168.35 150.24C168.299 150.271 168.24 150.288 168.18 150.29C166.88 150.29 164.18 143.29 162.92 143.29C162.864 143.275 162.806 143.275 162.75 143.29L107.15 175.39C105.86 176.14 103.77 187.39 102.49 188.18L96.0801 192V388.73C96.0801 389.79 96.6001 390.4 97.3701 390.4C97.726 390.384 98.0712 390.274 98.3701 390.08L337.5 252C338.174 251.562 338.736 250.972 339.141 250.277C339.546 249.582 339.782 248.802 339.83 248V51.2397Z" fill="#E0E0E0"/>
<path d="M93.8901 199.15C93.234 198.705 92.6933 198.11 92.3125 197.414C91.9317 196.719 91.7218 195.943 91.7001 195.15V177C91.746 176.2 91.9778 175.423 92.377 174.728C92.7763 174.034 93.332 173.442 94.0001 173L333.1 35.0001C333.773 34.5737 334.55 34.3398 335.346 34.3236C336.142 34.3075 336.928 34.5099 337.617 34.9087C338.307 35.3076 338.874 35.8877 339.257 36.586C339.64 37.2844 339.824 38.0743 339.79 38.8701V57.0001C339.743 57.803 339.508 58.5835 339.103 59.2785C338.698 59.9734 338.135 60.5632 337.46 61.0001L98.4001 199.07C97.7072 199.436 96.938 199.634 96.1546 199.648C95.3712 199.661 94.5955 199.491 93.8901 199.15Z" fill="#CB93F6"/>
<path opacity="0.4" d="M339.8 38.4099C339.64 37.1999 338.66 36.7599 337.5 37.4099L98.4 175.49C97.7176 175.932 97.1517 176.533 96.75 177.24L92.38 174.71C92.7716 174.016 93.328 173.428 94 173L333.1 34.9999C333.744 34.5894 334.485 34.356 335.248 34.3233C336.011 34.2906 336.769 34.4599 337.445 34.8139C338.122 35.168 338.693 35.6943 339.101 36.3397C339.51 36.9851 339.74 37.7269 339.77 38.4899L339.8 38.4099Z" fill="white"/>
<path opacity="0.1" d="M96.75 177.24C96.3343 177.933 96.1035 178.722 96.08 179.53V207.14L91.69 204.61V177C91.685 176.906 91.685 176.813 91.69 176.72C91.7079 176.525 91.738 176.331 91.78 176.14C91.9052 175.635 92.1004 175.15 92.36 174.7L96.75 177.24Z" fill="black"/>
<path d="M339.82 38.7799V51.2399L168.34 150.24C167.06 150.99 166.02 150.38 166.02 148.9V144.18C166.02 142.7 165.02 142.09 163.68 142.84L107.14 175.48C106.466 175.919 105.905 176.509 105.5 177.203C105.096 177.898 104.859 178.678 104.81 179.48V184.19C104.759 184.992 104.522 185.771 104.118 186.465C103.713 187.16 103.153 187.75 102.48 188.19L96.0801 192V179.53C96.1298 178.729 96.3653 177.95 96.768 177.256C97.1706 176.562 97.7294 175.971 98.4001 175.53L337.5 37.5299C338.78 36.6899 339.82 37.2999 339.82 38.7799Z" fill="#CB93F6"/>
<path d="M328.9 46.5897C330.52 45.6597 331.83 46.4197 331.83 48.2897C331.775 49.307 331.481 50.297 330.972 51.1795C330.463 52.0621 329.753 52.8124 328.9 53.3697C327.28 54.2997 325.96 53.5397 325.96 51.6697C326.017 50.6517 326.313 49.6615 326.824 48.779C327.335 47.8965 328.046 47.1466 328.9 46.5897Z" fill="white"/>
<path d="M318.34 52.6801C319.96 51.7501 321.27 52.5001 321.27 54.3701C321.216 55.3878 320.923 56.3784 320.414 57.2612C319.904 58.144 319.194 58.894 318.34 59.4501C316.72 60.3901 315.41 59.6301 315.41 57.7601C315.465 56.7428 315.76 55.7529 316.269 54.8703C316.778 53.9878 317.487 53.2375 318.34 52.6801Z" fill="white"/>
<path d="M307.78 58.77C309.4 57.83 310.71 58.59 310.71 60.46C310.655 61.4773 310.361 62.4673 309.852 63.3498C309.343 64.2323 308.633 64.9826 307.78 65.54C306.16 66.47 304.85 65.72 304.85 63.85C304.904 62.8323 305.197 61.8417 305.706 60.959C306.216 60.0762 306.926 59.3262 307.78 58.77Z" fill="white"/>
<path d="M339.83 51.2397V66.3897L96.0801 207.14V192L100.87 189.23C102.15 188.49 102.58 187.36 103.19 185.23L104.82 179.59C105.33 177.59 105.82 176.3 107.15 175.59L162.75 143.49C164.04 142.75 165.05 142.67 166.03 144.29L168.03 147.91C168.76 149.17 169.13 149.91 170.41 149.17L339.83 51.2397Z" fill="#E6E6E6"/>
<path d="M96.0801 191.98V207.14L91.6901 204.61V189.47L96.0801 191.98Z" fill="#E0E0E0"/>
<path opacity="0.5" d="M106.77 193.08L103.11 195.19L104.5 192.51C104.556 192.409 104.585 192.296 104.585 192.18C104.585 192.065 104.556 191.951 104.5 191.85C104.39 191.72 104.21 191.85 104.08 192.05L102.08 195.86C102.08 195.86 102.08 195.95 102.03 196C101.98 196.05 102.03 196 102.03 196C102.025 196.063 102.025 196.127 102.03 196.19C102.023 196.247 102.023 196.304 102.03 196.36C102.044 196.388 102.061 196.415 102.08 196.44L104.08 197.96C104.108 197.983 104.144 197.995 104.18 197.995C104.216 197.995 104.252 197.983 104.28 197.96C104.382 197.894 104.46 197.795 104.5 197.68C104.61 197.43 104.59 197.15 104.5 197.06L103.11 195.98L106.77 193.87C106.863 193.796 106.937 193.702 106.988 193.594C107.038 193.487 107.063 193.369 107.06 193.25C107.06 193.11 106.93 193 106.77 193.08Z" fill="#404040"/>
<path opacity="0.5" d="M109.82 191.31L113.48 189.2L112.08 188.13C112.021 188.035 111.989 187.926 111.989 187.815C111.989 187.703 112.021 187.594 112.08 187.5C112.18 187.25 112.37 187.13 112.49 187.22L114.49 188.75C114.517 188.77 114.538 188.798 114.55 188.83C114.56 188.886 114.56 188.944 114.55 189C114.56 189.066 114.56 189.133 114.55 189.2L114.49 189.35L112.49 193.17C112.452 193.261 112.385 193.338 112.3 193.39C112.27 193.418 112.231 193.434 112.19 193.434C112.149 193.434 112.11 193.418 112.08 193.39C112.023 193.291 111.993 193.179 111.993 193.065C111.993 192.951 112.023 192.839 112.08 192.74L113.48 190.06L109.82 192.17C109.66 192.26 109.53 192.17 109.53 191.89C109.535 191.778 109.563 191.669 109.613 191.569C109.663 191.469 109.733 191.38 109.82 191.31Z" fill="#404040"/>
<path opacity="0.5" d="M121.82 180.78C121.82 180.56 121.61 180.58 121.51 180.78L121.01 182.01C120.15 181.92 119.12 182.75 118.42 184.23C117.51 186.15 117.51 188.42 118.42 189.29C118.639 189.495 118.923 189.617 119.222 189.635C119.521 189.653 119.818 189.567 120.06 189.39C120.792 188.897 121.365 188.202 121.71 187.39C121.765 187.293 121.794 187.182 121.794 187.07C121.794 186.958 121.765 186.848 121.71 186.75C121.59 186.64 121.41 186.75 121.29 186.99C120.61 188.42 119.51 189.06 118.84 188.41C118.17 187.76 118.16 186.06 118.84 184.63C119.32 183.63 120.01 183.01 120.61 182.97L120.24 183.9C120.14 184.14 120.24 184.36 120.38 184.26L121.87 183.26C121.931 183.215 121.979 183.154 122.009 183.083C122.039 183.013 122.05 182.936 122.04 182.86L121.82 180.78Z" fill="#404040"/>
<path opacity="0.5" d="M161.14 150.31L162.48 147.49C162.555 147.356 162.595 147.204 162.595 147.05C162.595 146.896 162.555 146.744 162.48 146.61C162.32 146.46 162.06 146.61 161.91 146.94L160.57 149.76L159.24 148.48C159.08 148.33 158.83 148.48 158.67 148.81C158.59 148.943 158.547 149.095 158.547 149.25C158.547 149.405 158.59 149.557 158.67 149.69L160 151L158.67 153.82C158.59 153.953 158.547 154.105 158.547 154.26C158.547 154.415 158.59 154.567 158.67 154.7C158.708 154.734 158.758 154.754 158.81 154.754C158.862 154.754 158.911 154.734 158.95 154.7C159.081 154.616 159.182 154.494 159.24 154.35L160.57 151.53L161.91 152.81C161.948 152.844 161.998 152.864 162.05 152.864C162.102 152.864 162.151 152.844 162.19 152.81C162.321 152.726 162.422 152.604 162.48 152.46C162.555 152.326 162.595 152.174 162.595 152.02C162.595 151.866 162.555 151.714 162.48 151.58L161.14 150.31Z" fill="#404040"/>
<path d="M126.68 184.25V179.53C126.729 178.727 126.965 177.947 127.369 177.253C127.774 176.558 128.336 175.968 129.01 175.53L324.38 62.7398C325.67 61.9898 326.71 62.5998 326.71 64.0798V68.7998C326.662 69.6023 326.426 70.3822 326.021 71.0769C325.616 71.7716 325.054 72.3617 324.38 72.7998L129 185.59C127.72 186.34 126.68 185.73 126.68 184.25Z" fill="#FAFAFA"/>
<path d="M321.21 73.1997C321.14 73.2111 321.07 73.2111 321 73.1997C320.869 73.1392 320.763 73.0357 320.7 72.9065C320.636 72.7773 320.618 72.6302 320.65 72.4897L320.88 70.5797L319.98 69.9297C319.902 69.8681 319.839 69.7889 319.797 69.6985C319.756 69.6081 319.736 69.5092 319.74 69.4097C319.736 69.2544 319.768 69.1004 319.834 68.9598C319.9 68.8192 319.998 68.6959 320.12 68.5997L321.49 67.5397C321.517 67.5073 321.537 67.4699 321.55 67.4297L322.16 65.4297C322.197 65.2651 322.283 65.1153 322.406 64.9996C322.529 64.8838 322.683 64.8073 322.85 64.7797C322.963 64.7669 323.076 64.7913 323.174 64.849C323.271 64.9068 323.347 64.9948 323.39 65.0997L323.9 66.1897L325.06 65.7497C325.163 65.7036 325.278 65.6924 325.388 65.7176C325.498 65.7429 325.597 65.8033 325.67 65.8897C325.765 66.028 325.816 66.1919 325.816 66.3597C325.816 66.5275 325.765 66.6914 325.67 66.8297L324.67 68.6897C324.666 68.7262 324.666 68.7632 324.67 68.7997L324.91 70.4797C324.928 70.6334 324.911 70.7892 324.859 70.935C324.807 71.0808 324.722 71.2124 324.61 71.3197C324.544 71.3967 324.461 71.4562 324.367 71.4929C324.272 71.5295 324.17 71.5422 324.07 71.5297L323 71.3597L321.79 72.8997C321.726 72.9937 321.639 73.0703 321.538 73.1226C321.437 73.175 321.324 73.2015 321.21 73.1997ZM320.55 69.2997L321.45 69.9497C321.543 70.0257 321.614 70.1249 321.656 70.2373C321.698 70.3498 321.71 70.4713 321.69 70.5897L321.53 71.8697L322.34 70.8697C322.409 70.7712 322.503 70.692 322.611 70.6395C322.72 70.587 322.84 70.563 322.96 70.5697L324.08 70.7097C324.087 70.6667 324.087 70.6227 324.08 70.5797L323.84 68.8997C323.821 68.6923 323.863 68.4839 323.96 68.2997L324.83 66.6697L324 66.9997C323.868 67.0539 323.721 67.0551 323.589 67.0029C323.456 66.9507 323.349 66.8492 323.29 66.7197L322.89 65.8597L322.34 67.6497C322.283 67.8511 322.164 68.0295 322 68.1597L320.63 69.1597C320.591 69.1979 320.563 69.2464 320.55 69.2997Z" fill="#E0E0E0"/>
<g opacity="0.5">
<path d="M329.46 62.1601C329.281 62.1653 329.105 62.1101 328.961 62.0034C328.816 61.8966 328.712 61.7445 328.665 61.5714C328.618 61.3983 328.63 61.2144 328.7 61.0491C328.77 60.8838 328.893 60.7468 329.05 60.6601L335.61 56.8701C335.702 56.8096 335.806 56.7686 335.914 56.7495C336.023 56.7305 336.134 56.7337 336.241 56.7591C336.349 56.7846 336.449 56.8316 336.538 56.8974C336.626 56.9631 336.7 57.0463 336.756 57.1417C336.811 57.2371 336.846 57.3427 336.859 57.4521C336.872 57.5616 336.862 57.6725 336.831 57.7782C336.799 57.8838 336.747 57.9819 336.676 58.0665C336.606 58.1511 336.518 58.2204 336.42 58.2701L329.86 62.0501C329.74 62.1247 329.601 62.1629 329.46 62.1601Z" fill="#404040"/>
<path d="M329.46 66.0003C329.318 66.0016 329.179 65.9652 329.056 65.8949C328.933 65.8247 328.831 65.723 328.76 65.6003C328.654 65.4141 328.624 65.1937 328.679 64.9862C328.733 64.7787 328.866 64.6007 329.05 64.4903L335.61 60.7103C335.702 60.6563 335.804 60.621 335.909 60.6063C336.015 60.5917 336.122 60.598 336.225 60.6249C336.328 60.6519 336.425 60.6989 336.51 60.7633C336.595 60.8277 336.666 60.9083 336.72 61.0003C336.773 61.092 336.808 61.1935 336.822 61.2987C336.836 61.4039 336.828 61.5108 336.8 61.6131C336.772 61.7155 336.724 61.8113 336.659 61.8949C336.594 61.9786 336.513 62.0484 336.42 62.1003L329.86 65.8903C329.74 65.9649 329.601 66.0031 329.46 66.0003Z" fill="#404040"/>
<path d="M329.46 69.74C329.282 69.7406 329.108 69.6823 328.967 69.5742C328.825 69.4661 328.723 69.3143 328.676 69.1423C328.629 68.9702 328.641 68.7876 328.708 68.6227C328.776 68.4577 328.896 68.3197 329.05 68.23L335.61 64.44C335.797 64.3345 336.019 64.3068 336.226 64.3629C336.434 64.419 336.611 64.5544 336.72 64.74C336.773 64.8317 336.808 64.9332 336.822 65.0384C336.836 65.1436 336.828 65.2505 336.8 65.3528C336.772 65.4552 336.724 65.551 336.659 65.6346C336.594 65.7183 336.513 65.7881 336.42 65.84L329.86 69.63C329.738 69.7 329.601 69.7378 329.46 69.74Z" fill="#404040"/>
</g>
<g opacity="0.5">
<path d="M103.27 211.38C103.091 211.385 102.915 211.33 102.771 211.223C102.626 211.117 102.522 210.964 102.475 210.791C102.428 210.618 102.44 210.434 102.51 210.269C102.58 210.104 102.703 209.967 102.86 209.88L109.42 206.09C109.605 205.997 109.818 205.978 110.016 206.037C110.215 206.096 110.383 206.228 110.487 206.407C110.59 206.586 110.621 206.798 110.574 207C110.526 207.201 110.403 207.377 110.23 207.49L103.67 211.27C103.549 211.343 103.411 211.381 103.27 211.38Z" fill="#404040"/>
<path d="M103.27 215.17C103.128 215.171 102.989 215.135 102.866 215.065C102.743 214.994 102.641 214.893 102.57 214.77C102.516 214.678 102.481 214.577 102.466 214.471C102.451 214.365 102.458 214.258 102.485 214.155C102.511 214.052 102.559 213.955 102.623 213.87C102.687 213.785 102.768 213.714 102.86 213.66L109.42 209.88C109.511 209.826 109.612 209.791 109.717 209.777C109.822 209.762 109.928 209.769 110.03 209.795C110.133 209.822 110.229 209.869 110.313 209.934C110.397 209.998 110.467 210.078 110.52 210.17C110.574 210.262 110.609 210.364 110.624 210.469C110.639 210.575 110.632 210.682 110.605 210.785C110.578 210.888 110.531 210.985 110.467 211.07C110.403 211.155 110.322 211.226 110.23 211.28L103.67 215.06C103.549 215.133 103.411 215.171 103.27 215.17Z" fill="#404040"/>
<path d="M103.27 219C103.092 219.001 102.918 218.942 102.776 218.834C102.635 218.726 102.533 218.574 102.486 218.402C102.439 218.23 102.45 218.048 102.518 217.883C102.586 217.718 102.706 217.58 102.86 217.49L109.42 213.71C109.511 213.655 109.612 213.619 109.717 213.603C109.822 213.588 109.929 213.594 110.032 213.621C110.134 213.648 110.23 213.696 110.314 213.761C110.398 213.826 110.468 213.907 110.52 214C110.574 214.091 110.609 214.192 110.623 214.297C110.638 214.402 110.632 214.508 110.605 214.611C110.578 214.713 110.531 214.809 110.466 214.893C110.402 214.977 110.322 215.047 110.23 215.1L103.67 218.89C103.548 218.959 103.41 218.997 103.27 219Z" fill="#404040"/>
</g>
<path d="M161.45 178V183.81C161.45 185 162.29 185.48 163.32 184.89L241.25 139.83V129.69L163.33 174.75C162.783 175.105 162.327 175.585 162 176.15C161.674 176.714 161.485 177.348 161.45 178Z" fill="#E6E6E6"/>
<path d="M251.07 124C252.07 123.4 252.94 123.89 252.94 125.08V130.89C252.904 131.539 252.716 132.17 252.391 132.733C252.066 133.296 251.614 133.774 251.07 134.13L241.25 139.8V129.69L251.07 124Z" fill="#CB93F6"/>
<path d="M250.34 132L249.25 131.65C249.361 131.188 249.418 130.715 249.42 130.24C249.471 129.797 249.405 129.348 249.23 128.937C249.055 128.527 248.775 128.17 248.42 127.9C248.173 127.768 247.894 127.706 247.614 127.72C247.334 127.734 247.063 127.824 246.83 127.98C246.133 128.515 245.571 129.206 245.191 129.999C244.81 130.791 244.622 131.661 244.64 132.54C244.589 132.983 244.655 133.432 244.83 133.842C245.005 134.253 245.285 134.61 245.64 134.88C245.85 134.999 246.088 135.061 246.33 135.06C246.648 135.057 246.959 134.967 247.23 134.8C248.066 134.227 248.688 133.394 249 132.43L250.1 132.77C250.139 132.78 250.181 132.78 250.22 132.77C250.322 132.78 250.425 132.751 250.506 132.688C250.587 132.625 250.641 132.534 250.656 132.432C250.672 132.331 250.647 132.227 250.589 132.143C250.53 132.059 250.441 132 250.34 131.98V132ZM246.83 134.1C246.717 134.182 246.584 134.232 246.445 134.244C246.306 134.257 246.166 134.231 246.04 134.17C245.819 133.965 245.651 133.71 245.548 133.426C245.446 133.143 245.412 132.839 245.45 132.54C245.439 131.804 245.594 131.076 245.902 130.408C246.21 129.74 246.664 129.149 247.23 128.68C247.381 128.589 247.553 128.537 247.73 128.53C247.833 128.527 247.934 128.555 248.02 128.61C248.241 128.815 248.409 129.07 248.512 129.354C248.614 129.637 248.648 129.941 248.61 130.24C248.619 130.974 248.464 131.7 248.156 132.367C247.848 133.033 247.395 133.622 246.83 134.09V134.1Z" fill="#FAFAFA"/>
<path d="M129.06 194.53L117.81 201C117.266 201.351 116.813 201.826 116.488 202.386C116.163 202.945 115.975 203.574 115.94 204.22V210.01C115.94 211.2 116.78 211.68 117.81 211.09L129.06 204.58C129.603 204.226 130.054 203.749 130.377 203.188C130.7 202.627 130.886 201.997 130.92 201.35V195.6C130.92 194.42 130.09 193.93 129.06 194.53Z" fill="#CB93F6"/>
<path d="M324.71 81.5601C323.435 82.3928 322.375 83.5138 321.614 84.8323C320.853 86.1509 320.413 87.6301 320.33 89.1501C320.33 91.9501 322.33 93.0801 324.71 91.6901C325.987 90.857 327.05 89.7348 327.813 88.4145C328.575 87.0941 329.016 85.6127 329.1 84.0901C329.1 81.2901 327.13 80.1601 324.71 81.5601Z" fill="#CB93F6"/>
<path d="M324.2 86.0004C324.063 86.0027 323.929 85.9682 323.81 85.9004C323.671 85.8017 323.559 85.6691 323.485 85.515C323.412 85.361 323.379 85.1907 323.39 85.0204C323.409 84.6195 323.523 84.2289 323.723 83.8811C323.923 83.5332 324.203 83.2381 324.54 83.0204C324.677 82.9123 324.843 82.8478 325.017 82.8353C325.191 82.8227 325.364 82.8627 325.515 82.95C325.666 83.0373 325.787 83.1679 325.863 83.3248C325.939 83.4818 325.965 83.658 325.94 83.8304C325.919 84.2318 325.802 84.6223 325.601 84.97C325.399 85.3177 325.118 85.6126 324.78 85.8304C324.604 85.9344 324.404 85.9928 324.2 86.0004Z" fill="white"/>
<path d="M326.44 86.3103C326.197 86.1888 325.925 86.1357 325.653 86.1569C325.382 86.178 325.122 86.2725 324.9 86.4303L324.26 86.8003C323.679 87.1686 323.195 87.6701 322.847 88.2631C322.499 88.8562 322.298 89.5238 322.26 90.2103V90.6703C322.652 90.8396 323.08 90.9047 323.504 90.8591C323.928 90.8136 324.333 90.6589 324.68 90.4103C325.689 89.7828 326.522 88.9087 327.1 87.8703V87.7603C327.127 87.482 327.081 87.2013 326.965 86.9467C326.849 86.6921 326.668 86.4726 326.44 86.3103Z" fill="white"/>
<path d="M309.2 95.12V93.57C309.2 91.81 308.13 91 306.81 91.76C306.08 92.2825 305.482 92.969 305.065 93.7645C304.648 94.5599 304.424 95.4421 304.41 96.34V97.73C304.378 98.685 304.099 99.6153 303.6 100.43C303.476 100.643 303.407 100.884 303.4 101.13C303.4 101.58 303.67 101.78 304 101.59L309.61 98.36C309.793 98.226 309.942 98.0515 310.046 97.8503C310.15 97.6491 310.206 97.4265 310.21 97.2C310.216 97.1133 310.204 97.0261 310.173 96.9449C310.141 96.8636 310.093 96.7902 310.03 96.73C309.748 96.5738 309.518 96.3375 309.371 96.0509C309.223 95.7643 309.164 95.4404 309.2 95.12Z" fill="#CB93F6"/>
<path d="M308 99.8003C307.993 100.231 307.885 100.654 307.685 101.036C307.486 101.418 307.2 101.748 306.85 102C306.21 102.36 305.69 102 305.69 101.13L308 99.8003Z" fill="#CB93F6"/>
<path d="M288.52 102.48C288.826 102.299 289.167 102.183 289.52 102.14C289.797 102.108 290.077 102.164 290.32 102.3C290.555 102.444 290.74 102.657 290.85 102.91C290.979 103.258 291.03 103.63 291 104C291.003 104.337 290.967 104.673 290.89 105C290.818 105.293 290.724 105.581 290.61 105.86C290.501 106.124 290.377 106.381 290.24 106.63L289.84 107.35C289.72 107.58 289.6 107.82 289.5 108.05C289.404 108.272 289.334 108.503 289.29 108.74C289.28 108.854 289.253 108.965 289.21 109.07C289.176 109.151 289.121 109.22 289.05 109.27L287.92 109.92C287.85 109.92 287.79 109.92 287.75 109.92C287.721 109.89 287.699 109.853 287.686 109.814C287.672 109.774 287.667 109.732 287.67 109.69C287.668 109.382 287.712 109.076 287.8 108.78C287.881 108.491 287.981 108.207 288.1 107.93C288.23 107.66 288.36 107.39 288.51 107.14C288.66 106.89 288.78 106.64 288.91 106.42C289.04 106.2 289.13 105.97 289.22 105.76C289.295 105.573 289.336 105.373 289.34 105.17C289.34 104.89 289.27 104.71 289.14 104.64C289.01 104.57 288.79 104.64 288.51 104.76C288.27 104.886 288.067 105.072 287.92 105.3C287.81 105.48 287.719 105.671 287.65 105.87L287.51 106.37C287.479 106.506 287.396 106.624 287.28 106.7L286.15 107.35C286.13 107.365 286.105 107.373 286.08 107.373C286.055 107.373 286.03 107.365 286.01 107.35C285.987 107.323 285.97 107.291 285.96 107.256C285.95 107.222 285.946 107.186 285.95 107.15C285.964 106.761 286.025 106.375 286.13 106C286.257 105.556 286.425 105.124 286.63 104.71C286.848 104.274 287.117 103.864 287.43 103.49C287.729 103.091 288.099 102.749 288.52 102.48ZM289.32 111.72C289.32 111.828 289.296 111.933 289.25 112.03C289.212 112.116 289.149 112.19 289.07 112.24L287.91 112.91C287.899 112.922 287.886 112.93 287.871 112.936C287.856 112.943 287.841 112.946 287.825 112.946C287.809 112.946 287.794 112.943 287.779 112.936C287.764 112.93 287.751 112.922 287.74 112.91C287.711 112.88 287.689 112.843 287.676 112.804C287.662 112.764 287.657 112.722 287.66 112.68V111.25C287.663 111.142 287.69 111.036 287.74 110.94C287.771 110.851 287.831 110.773 287.91 110.72L289.07 110.05C289.095 110.029 289.127 110.018 289.16 110.018C289.193 110.018 289.225 110.029 289.25 110.05C289.277 110.08 289.297 110.115 289.309 110.153C289.321 110.191 289.325 110.231 289.32 110.27V111.72Z" fill="#CB93F6"/>
<path d="M201.22 232.43C201.265 232.393 201.322 232.372 201.38 232.372C201.439 232.372 201.495 232.393 201.54 232.43C201.59 232.487 201.628 232.554 201.652 232.626C201.677 232.698 201.686 232.774 201.68 232.85V235.61C201.675 235.811 201.628 236.009 201.54 236.19C201.478 236.351 201.366 236.487 201.22 236.58L193.22 241.21C193.175 241.247 193.119 241.268 193.06 241.268C193.002 241.268 192.945 241.247 192.9 241.21C192.852 241.152 192.815 241.085 192.793 241.013C192.771 240.941 192.763 240.865 192.77 240.79V224C192.77 223.803 192.814 223.608 192.9 223.43C192.965 223.271 193.077 223.135 193.22 223.04L201.11 218.48C201.154 218.441 201.211 218.419 201.27 218.419C201.329 218.419 201.386 218.441 201.43 218.48C201.479 218.536 201.516 218.601 201.539 218.671C201.561 218.742 201.568 218.816 201.56 218.89V221.66C201.56 221.857 201.516 222.052 201.43 222.23C201.365 222.389 201.253 222.525 201.11 222.62L195.9 225.62V228.43L200.73 225.64C200.777 225.604 200.835 225.584 200.895 225.584C200.955 225.584 201.013 225.604 201.06 225.64C201.108 225.698 201.145 225.765 201.167 225.837C201.19 225.909 201.197 225.985 201.19 226.06V228.82C201.19 229.017 201.146 229.212 201.06 229.39C200.991 229.553 200.877 229.692 200.73 229.79L195.9 232.58V235.5L201.22 232.43Z" fill="#404040"/>
<path d="M209.09 213.83C209.703 213.447 210.381 213.179 211.09 213.04C211.601 212.929 212.136 213.011 212.59 213.27C213.053 213.579 213.39 214.044 213.54 214.58C213.784 215.376 213.895 216.207 213.87 217.04C213.884 218.241 213.705 219.436 213.34 220.58C213.018 221.603 212.517 222.562 211.86 223.41L213.95 228.41C213.986 228.488 214.003 228.574 214 228.66C214.002 228.823 213.965 228.985 213.89 229.13C213.836 229.26 213.746 229.371 213.63 229.45L211.33 230.78C211.11 230.91 210.95 230.92 210.85 230.78C210.756 230.683 210.678 230.572 210.62 230.45L208.73 226L207.18 226.89V232.47C207.176 232.668 207.129 232.863 207.04 233.04C206.97 233.199 206.86 233.337 206.72 233.44L204.5 234.71C204.457 234.752 204.4 234.775 204.34 234.775C204.28 234.775 204.223 234.752 204.18 234.71C204.13 234.653 204.093 234.586 204.07 234.514C204.048 234.441 204.041 234.365 204.05 234.29V217.44C204.05 217.243 204.094 217.048 204.18 216.87C204.246 216.708 204.357 216.57 204.5 216.47L209.09 213.83ZM207.18 222.83L209.09 221.73C209.557 221.456 209.957 221.08 210.26 220.63C210.593 220.098 210.757 219.477 210.73 218.85C210.73 218.12 210.57 217.71 210.26 217.61C210.058 217.571 209.849 217.573 209.648 217.618C209.447 217.663 209.257 217.749 209.09 217.87L207.18 219V222.83Z" fill="#404040"/>
<path d="M221.27 206.79C221.885 206.411 222.562 206.143 223.27 206C223.778 205.9 224.306 205.981 224.76 206.23C225.239 206.537 225.594 207.005 225.76 207.55C225.973 208.348 226.054 209.176 226 210C226.012 211.203 225.836 212.401 225.48 213.55C225.15 214.569 224.646 215.523 223.99 216.37L226.08 221.37C226.119 221.451 226.139 221.54 226.14 221.63C226.137 221.793 226.1 221.953 226.03 222.1C225.97 222.229 225.877 222.339 225.76 222.42L223.46 223.75C223.24 223.88 223.08 223.89 222.98 223.75C222.883 223.652 222.805 223.536 222.75 223.41L220.91 219L219.36 219.9V225.48C219.356 225.678 219.309 225.873 219.22 226.05C219.155 226.209 219.043 226.345 218.9 226.44L216.68 227.72C216.636 227.759 216.579 227.781 216.52 227.781C216.461 227.781 216.404 227.759 216.36 227.72C216.312 227.662 216.275 227.595 216.253 227.523C216.231 227.451 216.223 227.375 216.23 227.3V210.41C216.23 210.209 216.274 210.011 216.36 209.83C216.425 209.671 216.537 209.535 216.68 209.44L221.27 206.79ZM219.36 215.79L221.27 214.68C221.741 214.415 222.143 214.041 222.44 213.59C222.772 213.057 222.936 212.437 222.91 211.81C222.91 211.08 222.75 210.67 222.44 210.57C222.238 210.531 222.029 210.534 221.828 210.579C221.627 210.624 221.437 210.709 221.27 210.83L219.36 211.93V215.79Z" fill="#404040"/>
<path d="M228 209.69C228.033 208.678 228.17 207.673 228.41 206.69C228.641 205.71 228.976 204.758 229.41 203.85C229.851 202.969 230.398 202.146 231.04 201.4C231.667 200.668 232.414 200.049 233.25 199.57C233.908 199.143 234.667 198.898 235.45 198.86C236.045 198.845 236.624 199.047 237.08 199.43C237.557 199.874 237.903 200.442 238.08 201.07C238.337 201.882 238.475 202.728 238.49 203.58C238.49 204.31 238.49 205.09 238.49 205.9C238.49 206.71 238.49 207.49 238.49 208.22C238.458 209.231 238.32 210.237 238.08 211.22C237.852 212.203 237.517 213.159 237.08 214.07C236.644 214.953 236.096 215.776 235.45 216.52C234.823 217.244 234.079 217.859 233.25 218.34C232.588 218.768 231.827 219.019 231.04 219.07C230.445 219.085 229.866 218.882 229.41 218.5C228.94 218.041 228.596 217.469 228.41 216.84C228.153 216.027 228.015 215.182 228 214.33C228 213.63 228 212.87 228 212.06C228 211.25 228 210.45 228 209.69ZM235.43 209.91C235.43 209.59 235.43 209.24 235.43 208.85C235.43 208.46 235.43 208.07 235.43 207.67C235.43 207.27 235.43 206.89 235.43 206.52C235.43 206.15 235.43 205.83 235.43 205.52C235.409 205.148 235.349 204.779 235.25 204.42C235.176 204.149 235.035 203.901 234.84 203.7C234.662 203.538 234.431 203.445 234.19 203.44C233.865 203.455 233.55 203.559 233.28 203.74C232.931 203.936 232.619 204.194 232.36 204.5C232.101 204.803 231.882 205.139 231.71 205.5C231.534 205.881 231.399 206.28 231.31 206.69C231.209 207.116 231.149 207.552 231.13 207.99C231.13 208.3 231.13 208.64 231.13 208.99C231.13 209.34 231.13 209.76 231.13 210.16C231.13 210.56 231.13 210.95 231.13 211.32C231.13 211.69 231.13 212.04 231.13 212.32C231.11 212.978 231.315 213.623 231.71 214.15C232.06 214.52 232.58 214.51 233.28 214.1C233.976 213.703 234.521 213.088 234.83 212.35C235.175 211.578 235.384 210.752 235.45 209.91H235.43Z" fill="#404040"/>
<path d="M246 192.5C246.615 192.121 247.292 191.853 248 191.71C248.508 191.609 249.036 191.691 249.49 191.94C249.969 192.247 250.324 192.715 250.49 193.26C250.733 194.053 250.845 194.881 250.82 195.71C250.832 196.913 250.656 198.111 250.3 199.26C249.968 200.281 249.464 201.238 248.81 202.09L250.9 207.09C250.939 207.171 250.959 207.26 250.96 207.35C250.957 207.513 250.92 207.673 250.85 207.82C250.79 207.949 250.697 208.059 250.58 208.14L248.28 209.47C248.06 209.6 247.9 209.61 247.8 209.47C247.703 209.371 247.625 209.256 247.57 209.13L245.69 204.64L244.14 205.54V211.12C244.136 211.318 244.089 211.513 244 211.69C243.935 211.849 243.823 211.985 243.68 212.08L241.46 213.36C241.416 213.399 241.359 213.421 241.3 213.421C241.241 213.421 241.184 213.399 241.14 213.36C241.092 213.302 241.055 213.235 241.033 213.163C241.011 213.091 241.003 213.015 241.01 212.94V196.12C241.011 195.919 241.055 195.722 241.14 195.54C241.205 195.381 241.317 195.245 241.46 195.15L246 192.5ZM244.09 201.5L246 200.39C246.472 200.123 246.876 199.749 247.18 199.3C247.509 198.766 247.669 198.146 247.64 197.52C247.64 196.79 247.49 196.38 247.18 196.28C246.976 196.24 246.766 196.243 246.563 196.288C246.36 196.332 246.169 196.418 246 196.54L244.09 197.64V201.5Z" fill="#404040"/>
<path d="M170.71 261.23C171.71 260.63 172.57 260.54 173.15 260.97C173.73 261.4 174.02 262.33 174.02 263.8C174.049 265.135 173.751 266.457 173.15 267.65C172.602 268.724 171.755 269.617 170.71 270.22L168.64 271.41V275.87C168.636 276.02 168.598 276.167 168.53 276.3C168.483 276.425 168.4 276.533 168.29 276.61L167.29 277.21C167.256 277.242 167.212 277.26 167.165 277.26C167.118 277.26 167.074 277.242 167.04 277.21C167.003 277.168 166.974 277.119 166.957 277.066C166.94 277.012 166.934 276.956 166.94 276.9V264C166.939 263.848 166.974 263.697 167.04 263.56C167.093 263.438 167.18 263.334 167.29 263.26L170.71 261.23ZM168.64 268.92L170.64 267.76C171.164 267.475 171.595 267.045 171.882 266.522C172.169 265.999 172.3 265.405 172.26 264.81C172.26 264.06 172.11 263.63 171.82 263.51C171.616 263.464 171.405 263.463 171.201 263.508C170.997 263.553 170.806 263.643 170.64 263.77L168.64 264.93V268.92Z" fill="#E0E0E0"/>
<path d="M179.48 256.18C179.61 256.1 179.72 256.09 179.79 256.18C179.883 256.296 179.945 256.434 179.97 256.58L183.15 267.36C183.15 267.36 183.15 267.44 183.15 267.49C183.147 267.642 183.113 267.792 183.05 267.93C182.999 268.053 182.912 268.158 182.8 268.23L181.87 268.77C181.69 268.87 181.57 268.89 181.5 268.77C181.433 268.7 181.384 268.614 181.36 268.52L180.8 266.63L176.72 269L176.16 271.53C176.124 271.67 176.077 271.807 176.02 271.94C175.944 272.105 175.813 272.239 175.65 272.32L174.72 272.86C174.685 272.89 174.641 272.907 174.595 272.907C174.549 272.907 174.505 272.89 174.47 272.86C174.396 272.771 174.36 272.656 174.37 272.54C174.365 272.49 174.365 272.44 174.37 272.39L177.56 258C177.597 257.791 177.657 257.586 177.74 257.39C177.801 257.242 177.91 257.118 178.05 257.04L179.48 256.18ZM180.19 264.53L178.76 259.66L177.34 266.17L180.19 264.53Z" fill="#E0E0E0"/>
<path d="M184.16 258.64C184.171 257.849 184.265 257.061 184.44 256.29C184.611 255.555 184.863 254.84 185.19 254.16C185.516 253.509 185.926 252.904 186.41 252.36C186.896 251.822 187.463 251.364 188.09 251C188.643 250.63 189.286 250.416 189.95 250.38C190.371 250.377 190.781 250.518 191.11 250.78C191.409 251.045 191.621 251.393 191.72 251.78C191.83 252.103 191.897 252.439 191.92 252.78C191.931 252.935 191.9 253.091 191.83 253.23C191.774 253.35 191.683 253.451 191.57 253.52L190.57 254.13C190.48 254.18 190.4 254.19 190.35 254.13C190.291 254.091 190.246 254.035 190.22 253.97C190.182 253.877 190.139 253.787 190.09 253.7C190.006 253.552 189.885 253.428 189.74 253.34C189.548 253.232 189.33 253.18 189.11 253.19C188.754 253.211 188.409 253.325 188.11 253.52C187.433 253.924 186.89 254.519 186.55 255.23C186.153 256.011 185.941 256.874 185.93 257.75C185.93 258.27 185.93 258.82 185.93 259.39C185.93 259.96 185.93 260.51 185.93 261C185.93 262.09 186.16 262.78 186.55 263C186.796 263.132 187.075 263.188 187.353 263.162C187.63 263.135 187.894 263.026 188.11 262.85C188.429 262.662 188.724 262.437 188.99 262.18C189.266 261.91 189.499 261.6 189.68 261.26C189.891 260.882 190.043 260.474 190.13 260.05C190.248 259.545 190.305 259.028 190.3 258.51V258.35L188.71 259.27C188.676 259.298 188.634 259.313 188.59 259.313C188.546 259.313 188.504 259.298 188.47 259.27C188.432 259.226 188.404 259.175 188.387 259.12C188.37 259.065 188.364 259.007 188.37 258.95V257.53C188.369 257.378 188.404 257.227 188.47 257.09C188.523 256.971 188.606 256.868 188.71 256.79L191.71 255.07C191.742 255.038 191.785 255.02 191.83 255.02C191.875 255.02 191.918 255.038 191.95 255.07C191.99 255.112 192.021 255.163 192.04 255.218C192.059 255.273 192.066 255.332 192.06 255.39V257.58C192.058 258.37 191.974 259.157 191.81 259.93C191.656 260.678 191.407 261.404 191.07 262.09C190.745 262.759 190.331 263.381 189.84 263.94C189.347 264.5 188.766 264.976 188.12 265.35C187.602 265.68 187.012 265.883 186.4 265.94C186.181 265.953 185.962 265.921 185.756 265.847C185.55 265.773 185.361 265.659 185.2 265.51C184.84 265.153 184.587 264.703 184.47 264.21C184.288 263.559 184.194 262.886 184.19 262.21C184.19 261.96 184.19 261.68 184.19 261.38C184.19 261.08 184.19 260.76 184.19 260.44C184.19 260.12 184.19 259.81 184.19 259.5C184.19 259.19 184.15 258.9 184.16 258.64Z" fill="#E0E0E0"/>
<path d="M200 255.79C200.034 255.757 200.078 255.739 200.125 255.739C200.172 255.739 200.217 255.757 200.25 255.79C200.29 255.832 200.321 255.883 200.34 255.938C200.359 255.993 200.366 256.052 200.36 256.11V257.52C200.358 257.673 200.32 257.823 200.25 257.96C200.203 258.085 200.115 258.191 200 258.26L194.31 261.55C194.277 261.579 194.234 261.595 194.19 261.595C194.146 261.595 194.103 261.579 194.07 261.55C194.03 261.507 193.999 261.457 193.981 261.402C193.962 261.346 193.955 261.288 193.96 261.23V248.34C193.963 248.187 194 248.036 194.07 247.9C194.117 247.777 194.201 247.672 194.31 247.6L199.9 244.37C199.935 244.339 199.979 244.323 200.025 244.323C200.071 244.323 200.115 244.339 200.15 244.37C200.188 244.413 200.216 244.464 200.233 244.519C200.251 244.574 200.256 244.632 200.25 244.69V246.11C200.249 246.259 200.215 246.406 200.15 246.54C200.1 246.666 200.013 246.774 199.9 246.85L195.71 249.26V252.44L199.62 250.18C199.654 250.152 199.696 250.137 199.74 250.137C199.784 250.137 199.826 250.152 199.86 250.18C199.899 250.223 199.929 250.273 199.948 250.328C199.967 250.383 199.974 250.442 199.97 250.5V252C199.968 252.153 199.93 252.303 199.86 252.44C199.807 252.559 199.724 252.662 199.62 252.74L195.73 255V258.32L200 255.79Z" fill="#E0E0E0"/>
<path d="M211.47 251.67C211.32 251.76 211.21 251.76 211.14 251.67L210.97 251.49L207.34 245.28V253.5C207.338 253.653 207.3 253.803 207.23 253.94C207.183 254.062 207.099 254.167 206.99 254.24L205.94 254.85C205.906 254.882 205.862 254.9 205.815 254.9C205.768 254.9 205.724 254.882 205.69 254.85C205.652 254.806 205.623 254.755 205.606 254.7C205.589 254.645 205.583 254.587 205.59 254.53V241.64C205.589 241.487 205.624 241.337 205.69 241.2C205.737 241.074 205.825 240.968 205.94 240.9L206.84 240.37C206.99 240.29 207.1 240.28 207.18 240.37C207.242 240.424 207.299 240.484 207.35 240.55L210.98 246.76V238.54C210.979 238.387 211.014 238.237 211.08 238.1C211.131 237.976 211.218 237.872 211.33 237.8L212.33 237.19C212.364 237.157 212.408 237.139 212.455 237.139C212.502 237.139 212.546 237.157 212.58 237.19C212.653 237.279 212.689 237.394 212.68 237.51V250.4C212.675 250.551 212.641 250.701 212.58 250.84C212.529 250.963 212.442 251.068 212.33 251.14L211.47 251.67Z" fill="#E0E0E0"/>
<path d="M214.77 241C214.791 240.237 214.881 239.477 215.04 238.73C215.197 237.999 215.435 237.288 215.75 236.61C216.054 235.949 216.448 235.333 216.92 234.78C217.385 234.22 217.947 233.749 218.58 233.39C219.07 233.072 219.636 232.889 220.22 232.86C220.437 232.858 220.652 232.9 220.853 232.983C221.054 233.065 221.237 233.186 221.39 233.34C221.733 233.71 221.977 234.16 222.1 234.65C222.278 235.285 222.376 235.94 222.39 236.6C222.39 236.85 222.39 237.12 222.39 237.43V239.32C222.39 239.63 222.39 239.91 222.39 240.17C222.362 240.933 222.268 241.693 222.11 242.44C221.955 243.171 221.717 243.883 221.4 244.56C221.096 245.221 220.702 245.837 220.23 246.39C219.764 246.939 219.205 247.402 218.58 247.76C218.085 248.084 217.512 248.271 216.92 248.3C216.484 248.302 216.064 248.133 215.75 247.83C215.407 247.46 215.163 247.009 215.04 246.52C214.871 245.883 214.78 245.229 214.77 244.57C214.77 244.33 214.77 244.05 214.77 243.75C214.77 243.45 214.77 243.13 214.77 242.8C214.77 242.47 214.77 242.16 214.77 241.85C214.77 241.54 214.76 241.27 214.77 241ZM220.64 237.71C220.691 237.029 220.476 236.355 220.04 235.83C219.824 235.678 219.565 235.601 219.302 235.61C219.038 235.619 218.785 235.714 218.58 235.88C217.94 236.268 217.432 236.839 217.12 237.52C216.732 238.321 216.527 239.199 216.52 240.09C216.52 240.61 216.52 241.17 216.52 241.79C216.52 242.41 216.52 242.97 216.52 243.46C216.489 243.796 216.526 244.135 216.629 244.456C216.732 244.778 216.899 245.075 217.12 245.33C217.49 245.64 217.97 245.62 218.58 245.27C219.215 244.884 219.722 244.321 220.04 243.65C220.418 242.845 220.622 241.969 220.64 241.08C220.64 240.57 220.64 240 220.64 239.38C220.64 238.76 220.65 238.22 220.64 237.72V237.71Z" fill="#E0E0E0"/>
<path d="M230.28 226.84C230.315 226.81 230.359 226.793 230.405 226.793C230.451 226.793 230.495 226.81 230.53 226.84C230.568 226.883 230.596 226.934 230.613 226.989C230.631 227.045 230.636 227.103 230.63 227.16V228.58C230.631 228.732 230.596 228.883 230.53 229.02C230.477 229.142 230.391 229.246 230.28 229.32L228 230.68V241.62C227.997 241.772 227.963 241.921 227.9 242.06C227.849 242.183 227.762 242.288 227.65 242.36L226.65 242.97C226.615 243 226.571 243.017 226.525 243.017C226.479 243.017 226.435 243 226.4 242.97C226.362 242.927 226.333 242.876 226.316 242.821C226.299 242.765 226.293 242.707 226.3 242.65V231.7L223.87 233C223.836 233.032 223.792 233.05 223.745 233.05C223.698 233.05 223.654 233.032 223.62 233C223.583 232.958 223.554 232.909 223.537 232.856C223.52 232.802 223.514 232.746 223.52 232.69V231.27C223.519 231.117 223.554 230.967 223.62 230.83C223.667 230.704 223.755 230.599 223.87 230.53L230.28 226.84Z" fill="#E0E0E0"/>
<path d="M241.1 220.6C241.133 220.571 241.176 220.554 241.22 220.554C241.264 220.554 241.307 220.571 241.34 220.6C241.38 220.642 241.411 220.693 241.43 220.748C241.449 220.803 241.456 220.862 241.45 220.92V222.33C241.448 222.483 241.41 222.634 241.34 222.77C241.293 222.893 241.209 222.997 241.1 223.07L237 225.48V229.35L240.88 227.12C240.913 227.091 240.956 227.074 241 227.074C241.044 227.074 241.087 227.091 241.12 227.12C241.159 227.163 241.188 227.214 241.207 227.269C241.226 227.324 241.234 227.382 241.23 227.44V228.86C241.228 229.013 241.19 229.164 241.12 229.3C241.073 229.423 240.989 229.527 240.88 229.6L237 231.85V236.42C237.001 236.572 236.966 236.723 236.9 236.86C236.853 236.985 236.765 237.091 236.65 237.16L235.6 237.77C235.565 237.8 235.521 237.817 235.475 237.817C235.429 237.817 235.385 237.8 235.35 237.77C235.312 237.726 235.284 237.676 235.267 237.62C235.25 237.565 235.244 237.507 235.25 237.45V224.54C235.249 224.388 235.284 224.237 235.35 224.1C235.397 223.975 235.485 223.869 235.6 223.8L241.1 220.6Z" fill="#E0E0E0"/>
<path d="M242.86 224.79C242.884 224.026 242.978 223.266 243.14 222.52C243.292 221.789 243.526 221.078 243.84 220.4C244.148 219.741 244.541 219.126 245.01 218.57C245.477 218.013 246.039 217.542 246.67 217.18C247.163 216.86 247.733 216.677 248.32 216.65C248.536 216.649 248.749 216.691 248.948 216.774C249.147 216.856 249.328 216.977 249.48 217.13C249.822 217.502 250.069 217.952 250.2 218.44C250.375 219.076 250.469 219.731 250.48 220.39C250.48 220.64 250.48 220.91 250.48 221.22C250.48 221.53 250.48 221.84 250.48 222.16C250.48 222.48 250.48 222.8 250.48 223.11C250.48 223.42 250.48 223.71 250.48 223.96C250.456 224.724 250.363 225.483 250.2 226.23C250.048 226.961 249.814 227.672 249.5 228.35C249.192 229.011 248.795 229.627 248.32 230.18C247.854 230.729 247.295 231.192 246.67 231.55C246.175 231.876 245.602 232.062 245.01 232.09C244.574 232.09 244.155 231.922 243.84 231.62C243.498 231.251 243.257 230.8 243.14 230.31C242.967 229.674 242.873 229.019 242.86 228.36C242.86 228.12 242.86 227.84 242.86 227.54C242.86 227.24 242.86 226.92 242.86 226.54C242.86 226.16 242.86 225.9 242.86 225.59C242.86 225.28 242.85 225.05 242.86 224.79ZM248.73 221.5C248.76 221.162 248.722 220.822 248.619 220.5C248.516 220.177 248.35 219.878 248.13 219.62C247.76 219.31 247.27 219.33 246.67 219.68C246.033 220.067 245.525 220.634 245.21 221.31C244.822 222.111 244.617 222.989 244.61 223.88C244.61 224.4 244.61 224.96 244.61 225.58C244.61 226.2 244.61 226.76 244.61 227.25C244.579 227.586 244.616 227.925 244.719 228.246C244.822 228.568 244.989 228.865 245.21 229.12C245.58 229.43 246.07 229.41 246.67 229.06C247.305 228.674 247.812 228.111 248.13 227.44C248.518 226.638 248.723 225.76 248.73 224.87C248.73 224.36 248.73 223.79 248.73 223.17C248.73 222.55 248.75 222 248.73 221.5Z" fill="#E0E0E0"/>
<path d="M259.53 210C259.565 209.97 259.609 209.953 259.655 209.953C259.701 209.953 259.745 209.97 259.78 210C259.854 210.089 259.89 210.204 259.88 210.32V218.51C259.881 219.306 259.804 220.099 259.65 220.88C259.515 221.609 259.296 222.32 259 223C258.698 223.647 258.304 224.246 257.83 224.78C257.366 225.305 256.818 225.751 256.21 226.1C255.723 226.42 255.161 226.609 254.58 226.65C254.368 226.659 254.156 226.626 253.957 226.552C253.757 226.479 253.575 226.366 253.42 226.22C253.073 225.852 252.834 225.395 252.73 224.9C252.566 224.212 252.489 223.507 252.5 222.8V214.61C252.505 214.457 252.542 214.307 252.61 214.17C252.66 214.049 252.743 213.945 252.85 213.87L253.85 213.26C253.885 213.23 253.929 213.213 253.975 213.213C254.021 213.213 254.065 213.23 254.1 213.26C254.174 213.349 254.21 213.464 254.2 213.58V221.66C254.187 222.105 254.238 222.549 254.35 222.98C254.407 223.255 254.547 223.506 254.75 223.7C254.836 223.77 254.935 223.822 255.042 223.853C255.148 223.884 255.26 223.893 255.37 223.88C255.649 223.834 255.917 223.735 256.16 223.59C256.777 223.232 257.274 222.699 257.59 222.06C257.773 221.682 257.907 221.282 257.99 220.87C258.095 220.384 258.145 219.887 258.14 219.39V211.3C258.143 211.147 258.18 210.996 258.25 210.86C258.3 210.737 258.383 210.63 258.49 210.55L259.53 210Z" fill="#E0E0E0"/>
<path d="M268.05 219C267.9 219.08 267.79 219.09 267.71 219C267.648 218.946 267.591 218.885 267.54 218.82L263.91 212.62V220.84C263.911 220.992 263.876 221.143 263.81 221.28C263.76 221.404 263.673 221.508 263.56 221.58L262.51 222.19C262.477 222.22 262.434 222.236 262.39 222.236C262.346 222.236 262.303 222.22 262.27 222.19C262.231 222.147 262.201 222.096 262.182 222.041C262.163 221.986 262.156 221.928 262.16 221.87V209C262.164 208.85 262.202 208.703 262.27 208.57C262.32 208.447 262.403 208.34 262.51 208.26L263.42 207.74C263.57 207.66 263.68 207.65 263.76 207.74L263.93 207.92L267.56 214.12V205.9C267.559 205.748 267.594 205.597 267.66 205.46C267.713 205.341 267.796 205.238 267.9 205.16L268.96 204.55C268.994 204.522 269.036 204.507 269.08 204.507C269.124 204.507 269.166 204.522 269.2 204.55C269.239 204.593 269.268 204.644 269.287 204.699C269.306 204.754 269.314 204.812 269.31 204.87V217.76C269.308 217.913 269.27 218.064 269.2 218.2C269.15 218.323 269.067 218.43 268.96 218.51L268.05 219Z" fill="#E0E0E0"/>
<path d="M275.2 200.91C275.703 200.588 276.275 200.389 276.87 200.33C277.086 200.318 277.301 200.35 277.504 200.424C277.707 200.498 277.892 200.612 278.05 200.76C278.403 201.128 278.652 201.584 278.77 202.08C278.959 202.765 279.063 203.47 279.08 204.18C279.08 205.18 279.08 206.13 279.08 207.13C279.051 207.954 278.948 208.774 278.77 209.58C278.621 210.323 278.383 211.045 278.06 211.73C277.756 212.373 277.366 212.972 276.9 213.51C276.432 214.038 275.881 214.487 275.27 214.84L272 216.73C271.967 216.759 271.924 216.776 271.88 216.776C271.836 216.776 271.793 216.759 271.76 216.73C271.721 216.687 271.691 216.636 271.672 216.581C271.653 216.526 271.646 216.468 271.65 216.41V203.5C271.653 203.347 271.69 203.196 271.76 203.06C271.804 202.936 271.888 202.83 272 202.76L275.2 200.91ZM277.33 205.19C277.318 204.818 277.265 204.449 277.17 204.09C277.099 203.82 276.962 203.573 276.77 203.37C276.682 203.284 276.577 203.218 276.461 203.175C276.346 203.132 276.223 203.113 276.1 203.12C275.744 203.132 275.397 203.243 275.1 203.44L273.36 204.44V213.44L275.16 212.44C275.511 212.246 275.823 211.988 276.08 211.68C276.343 211.379 276.562 211.043 276.73 210.68C276.908 210.3 277.042 209.9 277.13 209.49C277.219 209.065 277.273 208.634 277.29 208.2C277.36 207.14 277.36 206.15 277.33 205.19Z" fill="#E0E0E0"/>
<path d="M421.33 48.7102L371.12 77.7102C370.742 77.9544 370.427 78.2846 370.201 78.674C369.975 79.0633 369.844 79.5007 369.82 79.9502V144.15C369.844 144.599 369.974 145.035 370.2 145.423C370.426 145.811 370.741 146.139 371.12 146.38L375.76 148.98C376.162 149.182 376.605 149.288 377.055 149.288C377.505 149.288 377.948 149.182 378.35 148.98L428.57 119.98C428.944 119.733 429.256 119.401 429.479 119.012C429.703 118.624 429.834 118.188 429.86 117.74V53.5202C429.837 53.0732 429.706 52.6383 429.48 52.252C429.254 51.8658 428.938 51.5394 428.56 51.3002L423.93 48.7002C423.526 48.4994 423.08 48.3957 422.629 48.3975C422.178 48.3992 421.733 48.5063 421.33 48.7102Z" fill="#CB93F6"/>
<path d="M377.06 148.22V84.0001C377.084 83.5517 377.213 83.1152 377.438 82.726C377.662 82.3369 377.974 82.006 378.35 81.7601L428.57 52.7601C429.28 52.3501 429.86 52.6801 429.86 53.5001V117.71C429.834 118.158 429.703 118.594 429.479 118.982C429.256 119.371 428.944 119.702 428.57 119.95L378.35 148.95C377.63 149.38 377.06 149 377.06 148.22Z" fill="#CB93F6"/>
<path opacity="0.2" d="M378.35 149C377.944 149.195 377.5 149.296 377.05 149.296C376.6 149.296 376.156 149.195 375.75 149L371.12 146.4C370.743 146.159 370.429 145.832 370.203 145.446C369.977 145.061 369.846 144.627 369.82 144.18V80.0002C369.839 79.5319 369.98 79.0768 370.23 78.6802L377.44 82.7902C377.204 83.1728 377.073 83.6108 377.06 84.0602V148.26C377.06 149 377.59 149.41 378.35 149Z" fill="black"/>
<path opacity="0.4" d="M429.84 53.29C429.74 52.64 429.21 52.41 428.57 52.78L378.35 81.78C377.966 82.0293 377.652 82.3738 377.44 82.78L370.23 78.67C370.443 78.2923 370.75 77.9756 371.12 77.75L421.34 48.75C421.742 48.5477 422.185 48.4424 422.635 48.4424C423.085 48.4424 423.528 48.5477 423.93 48.75L428.56 51.34C428.898 51.5568 429.187 51.8425 429.408 52.1785C429.628 52.5145 429.776 52.8932 429.84 53.29Z" fill="white"/>
<path d="M369.82 99.3003L359.42 109.88C359.299 110.001 359.206 110.147 359.149 110.308C359.092 110.469 359.072 110.641 359.09 110.811C359.108 110.981 359.164 111.145 359.254 111.29C359.344 111.435 359.466 111.558 359.61 111.65C359.83 111.79 366.81 115.8 366.81 115.8L377.06 103.47L369.82 99.3003Z" fill="#CB93F6"/>
<path opacity="0.1" d="M369.82 99.3003L359.42 109.88C359.299 110.001 359.206 110.147 359.149 110.308C359.092 110.469 359.072 110.641 359.09 110.811C359.108 110.981 359.164 111.145 359.254 111.29C359.344 111.435 359.466 111.558 359.61 111.65C359.83 111.79 366.81 115.8 366.81 115.8L377.06 103.47L369.82 99.3003Z" fill="black"/>
<path d="M377.06 103.47L366.65 114.05C366.481 114.223 366.371 114.444 366.335 114.683C366.299 114.922 366.34 115.166 366.45 115.381C366.561 115.596 366.736 115.77 366.952 115.879C367.167 115.989 367.411 116.028 367.65 115.99L377.08 114.63C378.07 114.63 378.07 103.47 377.06 103.47Z" fill="#CB93F6"/>
<path d="M395 101C394.743 100.999 394.495 100.899 394.31 100.72L386.85 93.5399C386.744 93.4523 386.657 93.3438 386.595 93.2211C386.532 93.0985 386.496 92.9642 386.488 92.8269C386.48 92.6896 386.501 92.5521 386.548 92.423C386.596 92.2939 386.669 92.176 386.764 92.0766C386.86 91.9773 386.974 91.8987 387.101 91.8457C387.228 91.7927 387.365 91.7665 387.502 91.7687C387.64 91.7709 387.775 91.8014 387.901 91.8584C388.026 91.9154 388.138 91.9976 388.23 92.0999L395.7 99.2799C395.794 99.3728 395.868 99.4834 395.919 99.6053C395.97 99.7271 395.996 99.8579 395.996 99.9899C395.996 100.122 395.97 100.253 395.919 100.374C395.868 100.496 395.794 100.607 395.7 100.7C395.515 100.888 395.264 100.996 395 101Z" fill="#404040"/>
<path d="M387.54 105.34C387.392 105.339 387.246 105.309 387.11 105.25C386.872 105.136 386.689 104.931 386.601 104.682C386.513 104.433 386.527 104.159 386.64 103.92L394.1 88.1202C394.213 87.8802 394.416 87.6948 394.666 87.6048C394.915 87.5148 395.19 87.5275 395.43 87.6402C395.67 87.7529 395.855 87.9564 395.945 88.2058C396.035 88.4552 396.023 88.7302 395.91 88.9702L388.45 104.77C388.368 104.942 388.239 105.087 388.078 105.188C387.917 105.289 387.73 105.342 387.54 105.34Z" fill="#404040"/>
<path d="M419.38 86.9998C419.119 87.0014 418.868 86.9009 418.68 86.7198L411.22 79.5398C411.034 79.3524 410.929 79.099 410.929 78.8348C410.929 78.5706 411.034 78.3171 411.22 78.1298C411.313 78.0361 411.424 77.9617 411.545 77.9109C411.667 77.8601 411.798 77.834 411.93 77.834C412.062 77.834 412.193 77.8601 412.315 77.9109C412.436 77.9617 412.547 78.0361 412.64 78.1298L420.1 85.3098C420.243 85.4479 420.342 85.6256 420.384 85.8202C420.426 86.0148 420.408 86.2174 420.334 86.4021C420.26 86.5868 420.133 86.7452 419.968 86.857C419.803 86.9688 419.609 87.029 419.41 87.0298L419.38 86.9998Z" fill="#404040"/>
<path d="M411.91 91.2699C411.765 91.2707 411.622 91.24 411.49 91.1799C411.37 91.1242 411.262 91.0451 411.173 90.9473C411.084 90.8495 411.015 90.7349 410.97 90.6103C410.925 90.4856 410.906 90.3533 410.913 90.2211C410.92 90.0889 410.953 89.9593 411.01 89.8399L418.47 74.0499C418.524 73.9286 418.602 73.8193 418.699 73.7284C418.796 73.6375 418.91 73.5669 419.035 73.5206C419.159 73.4743 419.292 73.4533 419.425 73.4589C419.557 73.4644 419.688 73.4964 419.808 73.5529C419.928 73.6093 420.036 73.6892 420.125 73.7879C420.214 73.8865 420.283 74.0019 420.327 74.1274C420.371 74.2528 420.389 74.3857 420.381 74.5184C420.373 74.651 420.339 74.7807 420.28 74.8999L412.82 90.6999C412.738 90.8717 412.609 91.0165 412.448 91.1174C412.287 91.2184 412.1 91.2713 411.91 91.2699Z" fill="#404040"/>
<path d="M387.21 123.24C387.034 123.241 386.861 123.195 386.708 123.107C386.555 123.019 386.428 122.893 386.34 122.74C386.21 122.51 386.175 122.239 386.245 121.984C386.314 121.729 386.481 121.512 386.71 121.38L419.21 102.61C419.441 102.477 419.715 102.442 419.972 102.511C420.229 102.581 420.447 102.749 420.58 102.98C420.713 103.211 420.748 103.485 420.679 103.742C420.609 103.999 420.441 104.217 420.21 104.35L387.71 123.11C387.558 123.196 387.385 123.241 387.21 123.24Z" fill="#404040"/>
<path d="M409.86 123.77C409.313 123.772 408.775 123.631 408.3 123.36C407.698 122.944 407.216 122.376 406.904 121.714C406.591 121.052 406.459 120.319 406.52 119.59V110.52C406.52 110.255 406.625 110 406.813 109.813C407 109.625 407.255 109.52 407.52 109.52C407.785 109.52 408.04 109.625 408.227 109.813C408.415 110 408.52 110.255 408.52 110.52V119.59C408.478 119.962 408.526 120.338 408.662 120.687C408.798 121.035 409.017 121.345 409.3 121.59C409.593 121.705 409.911 121.742 410.223 121.699C410.535 121.655 410.83 121.531 411.08 121.34C412.132 120.606 413 119.64 413.617 118.516C414.235 117.392 414.585 116.141 414.64 114.86V105.79C414.64 105.525 414.745 105.27 414.933 105.083C415.12 104.895 415.375 104.79 415.64 104.79C415.905 104.79 416.16 104.895 416.347 105.083C416.535 105.27 416.64 105.525 416.64 105.79V114.86C416.588 116.493 416.148 118.089 415.355 119.517C414.561 120.945 413.439 122.163 412.08 123.07C411.415 123.495 410.649 123.736 409.86 123.77Z" fill="#404040"/>
<path d="M411.58 117.93C411.315 117.93 411.06 117.825 410.873 117.637C410.685 117.449 410.58 117.195 410.58 116.93V108.17C410.58 107.905 410.685 107.65 410.873 107.463C411.06 107.275 411.315 107.17 411.58 107.17C411.845 107.17 412.1 107.275 412.287 107.463C412.475 107.65 412.58 107.905 412.58 108.17V116.93C412.58 117.195 412.475 117.449 412.287 117.637C412.1 117.825 411.845 117.93 411.58 117.93Z" fill="#404040"/>
</svg>
