<svg width="500" height="500" viewBox="0 0 500 500" fill="none" xmlns="http://www.w3.org/2000/svg">
<path d="M250.56 489.48C383.28 489.48 490.87 433.802 490.87 365.12C490.87 296.438 383.28 240.76 250.56 240.76C117.84 240.76 10.25 296.438 10.25 365.12C10.25 433.802 117.84 489.48 250.56 489.48Z" fill="#F5F5F5"/>
<path d="M106.08 45.1302L96.9 50.4302C96.9 50.0202 96.98 49.6202 96.98 49.2202V46.5602C96.98 41.8302 93.65 39.9102 89.56 42.2802C87.7935 43.3565 86.2847 44.8073 85.14 46.5302C84.46 40.5302 79.8 38.3602 74.14 41.6402C68 45.1702 63 53.7802 63 60.8602V64.8602C62.9824 66.4461 63.3243 68.0154 64 69.4502L56.37 73.8502C55.1642 74.6302 54.1603 75.6849 53.4407 76.9277C52.7211 78.1705 52.3062 79.5661 52.23 81.0002C52.23 83.6202 54.07 84.6802 56.34 83.3702L106.08 54.6602C107.276 53.8776 108.272 52.8244 108.986 51.5858C109.7 50.3471 110.112 48.9578 110.19 47.5302C110.19 44.8902 108.35 43.8202 106.08 45.1302Z" fill="#EBEBEB"/>
<path d="M150.24 65.0001L143.31 69.0001C143.35 68.695 143.37 68.3877 143.37 68.0801V66.0801C143.37 62.5101 140.87 61.0801 137.77 62.8501C136.441 63.6666 135.305 64.7618 134.44 66.0601C133.93 61.5701 130.44 59.9001 126.13 62.3701C121.5 65.0401 117.75 71.5301 117.75 76.8801V79.8801C117.723 81.0786 117.966 82.2679 118.46 83.3601L112.71 86.6801C111.805 87.2688 111.051 88.0629 110.511 88.9978C109.97 89.9326 109.658 90.9818 109.6 92.0601C109.6 94.0601 110.99 94.8401 112.71 93.8501L150.24 72.1801C151.145 71.5914 151.899 70.7973 152.439 69.8624C152.98 68.9276 153.292 67.8783 153.35 66.8001C153.35 64.8301 152 64.0001 150.24 65.0001Z" fill="#EBEBEB"/>
<path d="M398.11 432.13C425.332 432.13 447.4 419.388 447.4 403.67C447.4 387.952 425.332 375.21 398.11 375.21C370.888 375.21 348.82 387.952 348.82 403.67C348.82 419.388 370.888 432.13 398.11 432.13Z" fill="#E0E0E0"/>
<path d="M79.49 431.39L35.75 406.13C33.28 404.71 33.28 402.4 35.75 400.98L280.51 259.83C281.894 259.13 283.424 258.765 284.975 258.765C286.526 258.765 288.056 259.13 289.44 259.83L333.19 285.09C335.65 286.51 335.65 288.82 333.19 290.24L88.42 431.39C87.0358 432.09 85.5062 432.455 83.955 432.455C82.4037 432.455 80.8741 432.09 79.49 431.39Z" fill="#E0E0E0"/>
<path d="M314.39 341.39L309 338.25C296.65 331.12 277.15 330.77 265.54 337.47L245.18 349.2C244.835 349.399 244.583 349.727 244.48 350.111C244.377 350.495 244.431 350.905 244.63 351.25C244.829 351.595 245.157 351.846 245.541 351.949C245.925 352.053 246.335 351.999 246.68 351.8L267 340.07C277.78 333.84 295.94 334.19 307.46 340.84L312.9 343.99C318.2 347.05 321.12 350.99 321.12 355.19C321.12 359.39 318.2 363.33 312.9 366.39L238.41 409.39C226.88 416.05 208.13 416.04 196.6 409.39L174.9 396.88C162.55 389.75 142.45 389.75 130.1 396.88L124.66 400C118.13 403.77 114.53 408.79 114.53 414.12C114.53 419.04 117.65 423.55 123.32 426.82L142.74 438.04L134.74 442.75C131.09 444.9 131.11 448.39 134.74 450.51L149.39 459C149.521 459.044 149.634 459.128 149.714 459.24C149.795 459.353 149.838 459.487 149.838 459.625C149.838 459.763 149.795 459.897 149.714 460.009C149.634 460.121 149.521 460.206 149.39 460.25L148.17 460.94C147.57 461.28 147.57 461.84 148.17 462.19L150.06 463.28C150.395 463.453 150.767 463.543 151.145 463.543C151.522 463.543 151.894 463.453 152.23 463.28L158.85 459.48C159.187 459.313 159.558 459.225 159.935 459.225C160.311 459.225 160.683 459.313 161.02 459.48L173.02 466.48C173.355 466.648 173.725 466.735 174.1 466.735C174.475 466.735 174.845 466.648 175.18 466.48L177.08 465.38C177.68 465.04 177.68 464.48 177.08 464.13L165.08 457.13C164.48 456.78 164.48 456.22 165.08 455.88L169.7 453.21C170.034 453.037 170.404 452.947 170.78 452.947C171.156 452.947 171.526 453.037 171.86 453.21L183.92 460.16C184.254 460.333 184.624 460.423 185 460.423C185.376 460.423 185.746 460.333 186.08 460.16L188 459C188.131 458.956 188.244 458.871 188.324 458.759C188.405 458.647 188.448 458.513 188.448 458.375C188.448 458.237 188.405 458.103 188.324 457.99C188.244 457.878 188.131 457.794 188 457.75L176 450.75C175.869 450.706 175.756 450.621 175.676 450.509C175.595 450.397 175.552 450.263 175.552 450.125C175.552 449.987 175.595 449.853 175.676 449.74C175.756 449.628 175.869 449.544 176 449.5L182 446.06C182.131 446.016 182.244 445.931 182.324 445.819C182.405 445.707 182.448 445.573 182.448 445.435C182.448 445.297 182.405 445.163 182.324 445.05C182.244 444.938 182.131 444.854 182 444.81L180.1 443.72C179.764 443.547 179.392 443.457 179.015 443.457C178.637 443.457 178.265 443.547 177.93 443.72L176.04 444.81C175.703 444.977 175.331 445.064 174.955 445.064C174.578 445.064 174.207 444.977 173.87 444.81L155.34 434.11C154.419 433.639 153.399 433.394 152.365 433.394C151.331 433.394 150.311 433.639 149.39 434.11L145.7 436.28C145.574 436.116 145.418 435.977 145.24 435.87L124.93 424.15C120.23 421.43 117.64 417.85 117.64 414.04C117.64 409.88 120.79 405.68 126.27 402.52L131.71 399.37C143.24 392.72 161.99 392.72 173.51 399.37L195.09 412C207.45 419.13 227.54 419.13 239.9 412L314.39 369C320.66 365.38 324.11 360.48 324.11 355.2C324.11 349.92 320.66 345 314.39 341.39Z" fill="#E0E0E0"/>
<path d="M416.43 402.36C416.04 383.07 423.61 365.64 430.09 357.06C436.57 348.48 447.44 340.06 455 342.46C462 344.66 461.53 353.83 453.23 360.13C444.93 366.43 432.42 374.39 429 385L420.62 404.48L416.43 402.36Z" fill="#CB93F6"/>
<path opacity="0.15" d="M416.43 402.36C416.04 383.07 423.61 365.64 430.09 357.06C436.57 348.48 447.44 340.06 455 342.46C462 344.66 461.53 353.83 453.23 360.13C444.93 366.43 432.42 374.39 429 385L420.62 404.48L416.43 402.36Z" fill="black"/>
<path d="M418.73 400.52C418.832 400.506 418.927 400.46 419.001 400.388C419.075 400.315 419.124 400.222 419.14 400.12C420.94 389.44 424.52 377.12 430.6 367.4C437.14 356.96 446.6 350.55 452.14 348.34C452.255 348.293 452.347 348.203 452.396 348.088C452.445 347.974 452.446 347.845 452.4 347.73C452.377 347.671 452.343 347.618 452.299 347.574C452.255 347.529 452.202 347.493 452.145 347.469C452.087 347.445 452.025 347.433 451.962 347.433C451.9 347.433 451.838 347.445 451.78 347.47C446.15 349.73 436.41 356.38 429.71 367.1C423.6 376.86 420.02 389.23 418.21 399.97C418.2 400.031 418.202 400.093 418.216 400.153C418.231 400.214 418.257 400.271 418.293 400.321C418.329 400.371 418.375 400.413 418.428 400.446C418.48 400.478 418.539 400.5 418.6 400.51L418.73 400.52Z" fill="white"/>
<path d="M423.4 406.55C424.34 402.89 428.62 396.77 435.66 391.62C443.45 385.93 453.43 383.14 455.66 378.81C458.31 373.61 453.86 368.89 445.73 370.12C437.6 371.35 422.37 383.07 419.24 404.12L423.4 406.55Z" fill="#CB93F6"/>
<path d="M421.72 402.781C421.811 402.772 421.896 402.737 421.967 402.68C422.038 402.623 422.091 402.547 422.12 402.461C428.37 383.371 442.61 376.341 449.27 375.291C449.331 375.281 449.39 375.259 449.442 375.226C449.495 375.194 449.541 375.151 449.577 375.101C449.613 375.051 449.639 374.994 449.653 374.934C449.668 374.874 449.67 374.812 449.66 374.751C449.65 374.689 449.628 374.631 449.596 374.578C449.563 374.526 449.521 374.48 449.471 374.444C449.421 374.407 449.364 374.381 449.304 374.367C449.243 374.353 449.181 374.351 449.12 374.36C441.76 375.52 427.6 382.681 421.22 402.161C421.182 402.28 421.192 402.41 421.248 402.522C421.304 402.634 421.402 402.719 421.52 402.761C421.584 402.782 421.653 402.788 421.72 402.781Z" fill="white"/>
<path d="M144.38 434.11C144.117 434.109 143.859 434.04 143.63 433.91L123.32 422.18C117.65 418.91 114.53 414.4 114.53 409.48C114.53 404.14 118.13 399.13 124.66 395.36L130.1 392.21C142.45 385.08 162.55 385.08 174.9 392.21L196.59 404.74C208.12 411.39 226.87 411.39 238.4 404.74L312.89 361.74C318.19 358.68 321.11 354.74 321.11 350.53C321.11 346.32 318.19 342.39 312.89 339.33L307.45 336.19C295.92 329.54 277.77 329.19 266.99 335.42L246.68 347.14C246.335 347.339 245.925 347.393 245.541 347.29C245.157 347.187 244.829 346.935 244.63 346.59C244.431 346.246 244.377 345.836 244.48 345.451C244.583 345.067 244.835 344.739 245.18 344.54L265.49 332.82C277.1 326.11 296.6 326.46 308.95 333.59L314.39 336.74C320.66 340.35 324.11 345.25 324.11 350.53C324.11 355.81 320.66 360.72 314.39 364.33L239.9 407.33C227.54 414.47 207.45 414.47 195.09 407.33L173.4 394.81C161.88 388.16 143.13 388.16 131.6 394.81L126.16 398C120.68 401.17 117.53 405.37 117.53 409.53C117.53 413.33 120.12 416.92 124.82 419.63L145.13 431.36C145.416 431.525 145.64 431.78 145.767 432.085C145.894 432.391 145.916 432.729 145.831 433.048C145.745 433.368 145.556 433.65 145.294 433.851C145.032 434.052 144.71 434.161 144.38 434.16V434.11Z" fill="#404040"/>
<path d="M131.76 437.36V439.09C131.843 440.592 132.278 442.054 133.03 443.357C133.782 444.66 134.83 445.767 136.09 446.59L152.09 455.81L168.33 446.43V432.36L152.55 425.08C151.127 424.515 149.601 424.258 148.072 424.327C146.543 424.396 145.046 424.789 143.68 425.48L136.09 429.86C134.83 430.682 133.781 431.79 133.029 433.093C132.277 434.396 131.842 435.858 131.76 437.36Z" fill="#404040"/>
<path d="M152.55 425.08C151.127 424.515 149.601 424.258 148.072 424.327C146.543 424.396 145.046 424.789 143.68 425.48L136.09 429.86C133.7 431.24 133.8 433.3 136.3 434.46L152.07 441.74L168.33 432.36L152.55 425.08Z" fill="#404040"/>
<path opacity="0.1" d="M150.54 438.35C149.91 438.761 149.387 439.315 149.011 439.967C148.636 440.618 148.42 441.349 148.38 442.1V453.68L152.08 455.81L168.32 446.43V432.36L164.2 430.46L150.54 438.35Z" fill="black"/>
<path d="M169.71 429.94C169.466 429.83 169.197 429.786 168.93 429.812C168.663 429.838 168.408 429.934 168.19 430.09L152.19 439.32C151.558 439.73 151.033 440.284 150.656 440.935C150.279 441.587 150.061 442.319 150.02 443.07V456.83C149.991 457.1 150.036 457.372 150.148 457.618C150.261 457.864 150.438 458.076 150.66 458.23L152.66 459.4C152.905 459.516 153.176 459.563 153.446 459.536C153.715 459.51 153.972 459.411 154.19 459.25L170.19 450.03C170.818 449.618 171.341 449.064 171.717 448.413C172.092 447.761 172.309 447.031 172.35 446.28V432.51C172.377 432.242 172.332 431.972 172.222 431.726C172.111 431.481 171.938 431.268 171.72 431.11L169.71 429.94Z" fill="#404040"/>
<path d="M154.24 440.49L170.24 431.26C171.43 430.57 172.4 431.13 172.4 432.51V446.28C172.359 447.031 172.142 447.761 171.767 448.412C171.391 449.064 170.868 449.618 170.24 450.03L154.24 459.25C153.04 459.94 152.07 459.38 152.07 458V444.24C152.111 443.488 152.329 442.757 152.706 442.105C153.083 441.454 153.608 440.9 154.24 440.49Z" fill="#404040"/>
<path d="M170.79 450.891L157.57 443.261L156.14 444.091V453.471L169.35 461.101C169.658 461.322 170.02 461.457 170.398 461.492C170.776 461.527 171.156 461.461 171.5 461.301L172.94 460.471C173.256 460.25 173.505 459.947 173.66 459.594C173.816 459.241 173.871 458.853 173.82 458.471V456.091C173.756 455.048 173.449 454.034 172.923 453.131C172.396 452.228 171.666 451.461 170.79 450.891ZM168.36 453.401C168.945 453.788 169.432 454.307 169.779 454.917C170.126 455.527 170.325 456.21 170.36 456.911C170.359 457.1 170.335 457.288 170.29 457.471C170.109 457.421 169.935 457.35 169.77 457.261C169.185 456.87 168.7 456.349 168.353 455.738C168.005 455.127 167.806 454.443 167.77 453.741C167.771 453.549 167.794 453.357 167.84 453.171C168.023 453.224 168.198 453.301 168.36 453.401Z" fill="#CB93F6"/>
<path opacity="0.85" d="M170.79 450.891L157.57 443.261L156.14 444.091L169.35 451.721C170.227 452.299 170.956 453.075 171.477 453.987C171.998 454.9 172.297 455.922 172.35 456.971V459.351C172.395 459.74 172.329 460.133 172.161 460.487C171.994 460.84 171.73 461.14 171.4 461.351H171.47L172.91 460.511C173.227 460.291 173.477 459.988 173.632 459.635C173.787 459.282 173.842 458.893 173.79 458.511V456.131C173.733 455.084 173.432 454.065 172.912 453.155C172.391 452.245 171.664 451.47 170.79 450.891Z" fill="white"/>
<path d="M173.82 456.14V458.52C173.872 458.902 173.817 459.291 173.662 459.644C173.507 459.997 173.257 460.3 172.94 460.52L171.5 461.36H171.44C171.768 461.148 172.03 460.848 172.196 460.494C172.362 460.141 172.426 459.748 172.38 459.36V457C172.344 455.94 172.038 454.908 171.49 454L172.93 453.17C173.474 454.068 173.78 455.09 173.82 456.14Z" fill="#CB93F6"/>
<path opacity="0.6" d="M173.82 456.14V458.52C173.872 458.902 173.817 459.291 173.662 459.644C173.507 459.997 173.257 460.3 172.94 460.52L171.5 461.36H171.44C171.768 461.148 172.03 460.848 172.196 460.494C172.362 460.141 172.426 459.748 172.38 459.36V457C172.344 455.94 172.038 454.908 171.49 454L172.93 453.17C173.474 454.068 173.78 455.09 173.82 456.14Z" fill="white"/>
<path opacity="0.05" d="M173.82 456.14V458.52C173.872 458.902 173.817 459.291 173.662 459.644C173.507 459.997 173.257 460.3 172.94 460.52L171.5 461.36H171.44C171.768 461.148 172.03 460.848 172.196 460.494C172.362 460.141 172.426 459.748 172.38 459.36V457C172.344 455.94 172.038 454.908 171.49 454L172.93 453.17C173.474 454.068 173.78 455.09 173.82 456.14Z" fill="black"/>
<path opacity="0.6" d="M167.77 453.741C167.77 453.549 167.794 453.357 167.84 453.171C166.97 452.931 166.33 453.481 166.33 454.571C166.364 455.273 166.563 455.958 166.911 456.569C167.258 457.18 167.744 457.702 168.33 458.091C169.27 458.641 170.07 458.351 170.33 457.471C170.146 457.43 169.971 457.359 169.81 457.261C169.217 456.876 168.723 456.357 168.368 455.745C168.014 455.133 167.809 454.447 167.77 453.741Z" fill="white"/>
<path opacity="0.1" d="M167.77 453.741C167.77 453.549 167.794 453.357 167.84 453.171C166.97 452.931 166.33 453.481 166.33 454.571C166.364 455.273 166.563 455.958 166.911 456.569C167.258 457.18 167.744 457.702 168.33 458.091C169.27 458.641 170.07 458.351 170.33 457.471C170.146 457.43 169.971 457.359 169.81 457.261C169.217 456.876 168.723 456.357 168.368 455.745C168.014 455.133 167.809 454.447 167.77 453.741Z" fill="black"/>
<path opacity="0.7" d="M169.35 451.72L156.14 444.09V453.47L169.35 461.1C171.03 462.1 172.35 461.28 172.35 459.35V457C172.304 455.945 172.008 454.916 171.487 453.998C170.965 453.08 170.233 452.299 169.35 451.72ZM168.35 458.09C167.765 457.7 167.28 457.178 166.933 456.567C166.585 455.956 166.386 455.272 166.35 454.57C166.35 453.27 167.26 452.75 168.35 453.4C168.935 453.787 169.422 454.306 169.769 454.916C170.117 455.526 170.315 456.209 170.35 456.91C170.39 458.21 169.48 458.73 168.36 458.09H168.35Z" fill="white"/>
<path d="M181.54 444.681L168.33 437.051L166.89 437.881V447.261L180.1 454.891C180.407 455.115 180.768 455.253 181.146 455.29C181.524 455.327 181.906 455.262 182.25 455.101L183.69 454.261C183.999 454.045 184.243 453.75 184.398 453.407C184.553 453.064 184.613 452.685 184.57 452.311V449.931C184.514 448.879 184.21 447.855 183.684 446.943C183.157 446.031 182.423 445.256 181.54 444.681ZM179.11 447.191C179.697 447.579 180.184 448.1 180.531 448.711C180.879 449.323 181.077 450.008 181.11 450.711C181.11 450.896 181.086 451.081 181.04 451.261C180.856 451.22 180.681 451.149 180.52 451.051C179.934 450.662 179.448 450.14 179.101 449.529C178.753 448.918 178.554 448.233 178.52 447.531C178.52 447.342 178.544 447.154 178.59 446.971C178.772 447.02 178.947 447.094 179.11 447.191Z" fill="#CB93F6"/>
<path opacity="0.85" d="M181.54 444.681L168.32 437.051L166.89 437.881L180.1 445.511C180.977 446.089 181.706 446.865 182.227 447.778C182.748 448.69 183.047 449.712 183.1 450.761V453.141C183.145 453.53 183.079 453.923 182.911 454.277C182.744 454.631 182.48 454.93 182.15 455.141H182.22L183.66 454.301C183.969 454.085 184.213 453.79 184.368 453.447C184.523 453.104 184.582 452.725 184.54 452.351V449.971C184.491 448.915 184.194 447.886 183.673 446.967C183.151 446.048 182.421 445.265 181.54 444.681Z" fill="white"/>
<path d="M184.57 449.931V452.311C184.613 452.685 184.553 453.063 184.398 453.407C184.243 453.75 183.999 454.045 183.69 454.261L182.25 455.101H182.19C182.518 454.888 182.78 454.589 182.946 454.235C183.112 453.882 183.176 453.489 183.13 453.101V450.721C183.094 449.661 182.788 448.628 182.24 447.721L183.68 446.891C184.236 447.809 184.542 448.857 184.57 449.931Z" fill="#CB93F6"/>
<path opacity="0.6" d="M184.57 449.931V452.311C184.613 452.685 184.553 453.063 184.398 453.407C184.243 453.75 183.999 454.045 183.69 454.261L182.25 455.101H182.19C182.518 454.888 182.78 454.589 182.946 454.235C183.112 453.882 183.176 453.489 183.13 453.101V450.721C183.094 449.661 182.788 448.628 182.24 447.721L183.68 446.891C184.236 447.809 184.542 448.857 184.57 449.931Z" fill="white"/>
<path opacity="0.05" d="M184.57 449.931V452.311C184.613 452.685 184.553 453.063 184.398 453.407C184.243 453.75 183.999 454.045 183.69 454.261L182.25 455.101H182.19C182.518 454.888 182.78 454.589 182.946 454.235C183.112 453.882 183.176 453.489 183.13 453.101V450.721C183.094 449.661 182.788 448.628 182.24 447.721L183.68 446.891C184.236 447.809 184.542 448.857 184.57 449.931Z" fill="black"/>
<path opacity="0.6" d="M178.52 447.53C178.52 447.341 178.544 447.153 178.59 446.97C177.73 446.73 177.08 447.27 177.08 448.36C177.114 449.063 177.313 449.747 177.661 450.359C178.008 450.97 178.494 451.491 179.08 451.88C180.02 452.43 180.82 452.14 181.08 451.26C180.896 451.219 180.721 451.148 180.56 451.05C179.967 450.666 179.473 450.146 179.118 449.535C178.764 448.923 178.559 448.236 178.52 447.53Z" fill="white"/>
<path opacity="0.1" d="M178.52 447.53C178.52 447.341 178.544 447.153 178.59 446.97C177.73 446.73 177.08 447.27 177.08 448.36C177.114 449.063 177.313 449.747 177.661 450.359C178.008 450.97 178.494 451.491 179.08 451.88C180.02 452.43 180.82 452.14 181.08 451.26C180.896 451.219 180.721 451.148 180.56 451.05C179.967 450.666 179.473 450.146 179.118 449.535C178.764 448.923 178.559 448.236 178.52 447.53Z" fill="black"/>
<path opacity="0.7" d="M180.11 445.51L166.89 437.88V447.26L180.1 454.89C181.78 455.89 183.1 455.08 183.1 453.14V450.76C183.046 449.712 182.747 448.692 182.228 447.78C181.709 446.868 180.984 446.091 180.11 445.51ZM179.11 451.88C178.524 451.491 178.038 450.969 177.691 450.358C177.343 449.747 177.144 449.062 177.11 448.36C177.11 447.07 178.02 446.54 179.11 447.19C179.697 447.578 180.184 448.099 180.531 448.71C180.879 449.322 181.077 450.007 181.11 450.71C181.14 452 180.23 452.53 179.11 451.88Z" fill="white"/>
<path d="M227.05 392.14L264.65 370.39C268.53 368.16 270.47 365.22 270.47 362.29C270.47 359.36 270.47 357.06 270.47 357.06L231.47 335.06C230.379 334.349 229.471 333.391 228.82 332.263C228.168 331.135 227.791 329.87 227.72 328.57V282.21L162.04 320.21V366.58C162.109 367.878 162.483 369.142 163.133 370.268C163.783 371.394 164.69 372.351 165.78 373.06L199 392.14C206.73 396.61 219.3 396.61 227.05 392.14Z" fill="#CB93F6"/>
<g opacity="0.6">
<path d="M227.05 392.14L264.65 370.39C268.53 368.16 270.47 365.22 270.47 362.29C270.47 359.36 270.47 357.06 270.47 357.06L231.47 335.06C230.379 334.349 229.471 333.391 228.82 332.263C228.168 331.135 227.791 329.87 227.72 328.57V282.21L162.04 320.21V366.58C162.109 367.878 162.483 369.142 163.133 370.268C163.783 371.394 164.69 372.351 165.78 373.06L199 392.14C206.73 396.61 219.3 396.61 227.05 392.14Z" fill="black"/>
</g>
<path opacity="0.3" d="M177.81 374.74V380L165.81 373.06C164.723 372.348 163.818 371.391 163.168 370.265C162.519 369.14 162.143 367.877 162.07 366.58V320.17L174.55 313C174.8 316.17 175.09 319.46 175.35 322.66L166.57 327.74V363.96C166.634 365.26 167.006 366.525 167.657 367.652C168.307 368.779 169.217 369.735 170.31 370.44L177.81 374.74Z" fill="black"/>
<path d="M166.57 363.92C166.639 365.219 167.013 366.483 167.663 367.609C168.313 368.735 169.22 369.691 170.31 370.4L199 386.91C206.75 391.38 219.32 391.39 227.08 386.91L264.7 365.17C272.45 360.7 272.45 353.44 264.7 348.96L236 332.45C234.91 331.739 234.004 330.78 233.354 329.653C232.704 328.525 232.329 327.26 232.26 325.96V289.73L166.58 327.73L166.57 363.92Z" fill="#CB93F6"/>
<path opacity="0.3" d="M166.57 363.92C166.639 365.219 167.013 366.483 167.663 367.609C168.313 368.735 169.22 369.691 170.31 370.4L199 386.91C206.75 391.38 219.32 391.39 227.08 386.91L264.7 365.17C272.45 360.7 272.45 353.44 264.7 348.96L236 332.45C234.91 331.739 234.004 330.78 233.354 329.653C232.704 328.525 232.329 327.26 232.26 325.96V289.73L166.58 327.73L166.57 363.92Z" fill="black"/>
<path opacity="0.5" d="M243.62 336.85L236 332.45C234.91 331.739 234.004 330.78 233.354 329.653C232.704 328.525 232.329 327.26 232.26 325.96V289.73L166.58 327.73V363.96C166.649 365.259 167.023 366.523 167.673 367.649C168.323 368.775 169.23 369.731 170.32 370.44L177.82 374.77L243.62 336.85Z" fill="black"/>
<path d="M270.48 357.061V362.291C270.48 365.231 268.48 368.151 264.66 370.401L227.05 392.131C222.929 394.335 218.324 395.479 213.65 395.461V390.251C218.324 390.269 222.929 389.125 227.05 386.921L264.66 365.171C268.53 362.941 270.48 360.001 270.48 357.061Z" fill="#CB93F6"/>
<path opacity="0.5" d="M270.48 357.061V362.291C270.48 365.231 268.48 368.151 264.66 370.401L227.05 392.131C222.929 394.335 218.324 395.479 213.65 395.461V390.251C218.324 390.269 222.929 389.125 227.05 386.921L264.66 365.171C268.53 362.941 270.48 360.001 270.48 357.061Z" fill="black"/>
<path d="M61.1 409C62.5182 409.689 64.0791 410.032 65.6554 410.003C67.2316 409.973 68.7786 409.571 70.17 408.83L324.17 262.17C326.75 260.68 328.84 257.05 328.84 258.07V26.7202C328.84 19.7202 326.84 16.1802 324.45 14.7802C323.033 14.0932 321.474 13.7505 319.9 13.7801C318.325 13.8096 316.78 14.2105 315.39 14.9502L61.4 161.61C60.037 162.496 58.9027 163.692 58.0895 165.099C57.2762 166.507 56.8069 168.087 56.72 169.71V401C56.7634 402.585 57.1832 404.138 57.9448 405.529C58.7064 406.92 59.7879 408.11 61.1 409Z" fill="#CB93F6"/>
<path d="M70.17 408.78L324.17 262.12C326.75 260.63 328.85 257 328.85 258.01V26.7104C328.85 19.7104 326.75 18.5204 324.17 20.0104L70.17 166.67C68.8071 167.557 67.6728 168.752 66.8595 170.16C66.0462 171.567 65.577 173.147 65.49 174.77V406.07C65.49 409.06 67.59 410.27 70.17 408.78Z" fill="#CB93F6"/>
<path opacity="0.5" d="M70.17 408.78L324.17 262.12C326.75 260.63 328.85 257 328.85 258.01V26.7104C328.85 19.7104 326.75 18.5204 324.17 20.0104L70.17 166.67C68.8071 167.557 67.6728 168.752 66.8595 170.16C66.0462 171.567 65.577 173.147 65.49 174.77V406.07C65.49 409.06 67.59 410.27 70.17 408.78Z" fill="black"/>
<path d="M69.48 414.12C68.1518 414.693 66.7162 414.973 65.2704 414.942C63.8245 414.911 62.4023 414.569 61.1 413.94C59.7941 413.057 58.7156 411.877 57.9527 410.497C57.1897 409.117 56.7639 407.576 56.71 406V391.28L65.49 396.36V411.07C65.49 413.79 67.22 415 69.48 414.12Z" fill="#CB93F6"/>
<path opacity="0.5" d="M69.48 414.12C68.1518 414.693 66.7162 414.973 65.2704 414.942C63.8245 414.911 62.4023 414.569 61.1 413.94C59.7941 413.057 58.7156 411.877 57.9527 410.497C57.1897 409.117 56.7639 407.576 56.71 406V391.28L65.49 396.36V411.07C65.49 413.79 67.22 415 69.48 414.12Z" fill="black"/>
<path d="M65.49 396.36V411.06C65.49 414.06 67.59 415.26 70.17 413.76L324.17 267.11C325.533 266.221 326.666 265.023 327.48 263.614C328.293 262.205 328.762 260.624 328.85 259V244.26L65.49 396.36Z" fill="#CB93F6"/>
<path opacity="0.3" d="M65.49 396.32V411.06C65.49 414.06 67.59 415.26 70.17 413.76L324.17 267.11C325.533 266.221 326.666 265.023 327.48 263.614C328.293 262.205 328.762 260.624 328.85 259V244.26L65.49 396.32Z" fill="black"/>
<path d="M74.27 377.88V177.69C74.3239 176.715 74.6063 175.766 75.0944 174.92C75.5825 174.074 76.2627 173.355 77.08 172.82L317.28 34.1401C318.83 33.2501 320.09 33.9701 320.09 35.7601V236C320.036 236.974 319.754 237.921 319.266 238.766C318.777 239.61 318.097 240.328 317.28 240.86L77.08 379.51C75.53 380.4 74.27 379.67 74.27 377.88Z" fill="#CB93F6"/>
<path d="M74.27 377.88V177.69C74.3239 176.715 74.6063 175.766 75.0944 174.92C75.5825 174.074 76.2627 173.355 77.08 172.82L317.28 34.1401C318.83 33.2501 320.09 33.9701 320.09 35.7601V236C320.036 236.974 319.754 237.921 319.266 238.766C318.777 239.61 318.097 240.328 317.28 240.86L77.08 379.51C75.53 380.4 74.27 379.67 74.27 377.88Z" fill="#263238"/>
<path opacity="0.7" d="M66.87 170.14C66.0385 171.547 65.5646 173.137 65.49 174.77V396.36L56.71 391.28V169.71C56.7703 168.079 57.2416 166.49 58.08 165.09L66.87 170.14Z" fill="black"/>
<path opacity="0.3" d="M328.83 21.9401C328.5 19.5301 326.55 18.6601 324.19 20.0101L70.19 166.67C68.8068 167.527 67.667 168.726 66.88 170.15L58.1 165.08C58.8928 163.66 60.0313 162.463 61.41 161.6L315.42 15.0001C316.811 14.2588 318.358 13.857 319.935 13.8274C321.511 13.7979 323.072 14.1415 324.49 14.8301C325.677 15.6384 326.679 16.6908 327.427 17.9168C328.176 19.1429 328.654 20.5145 328.83 21.9401Z" fill="black"/>
<path d="M98.4 390.08C97.8434 390.408 97.2154 390.597 96.57 390.63C95.6496 390.75 94.7144 390.586 93.89 390.16C93.2358 389.713 92.697 389.118 92.318 388.422C91.9389 387.727 91.7306 386.951 91.71 386.16V204.56L96.1 207.09V388.73C96.1 389.79 96.63 390.4 97.39 390.4C97.7465 390.37 98.0918 390.261 98.4 390.08Z" fill="#F0F0F0"/>
<path d="M339.83 248C339.782 248.803 339.546 249.582 339.141 250.277C338.736 250.972 338.174 251.562 337.5 252L98.4001 390.08C97.1201 390.82 96.0801 390.22 96.0801 388.73V192L102.49 188.3C103.77 187.56 105.86 176.3 107.15 175.51L162.75 143.41C164.04 142.67 167.07 151.02 168.35 150.27L339.83 51.27V248Z" fill="#FAFAFA"/>
<path d="M338.75 53.0997V248C338.706 248.618 338.521 249.218 338.211 249.755C337.901 250.292 337.473 250.752 336.96 251.1L97.8601 389.15C97.7121 389.244 97.5444 389.302 97.3701 389.32C97.1501 389.32 97.1501 388.76 97.1501 388.73V192.61L103.03 189.21C103.96 188.67 104.54 186.86 105.85 182.21C106.318 180.217 106.96 178.269 107.77 176.39L162.87 144.58C163.524 145.464 164.109 146.397 164.62 147.37C166.12 150.01 166.96 151.37 168.18 151.37C168.431 151.37 168.676 151.301 168.89 151.17L338.75 53.0997ZM339.83 51.2397L168.35 150.24C168.299 150.271 168.24 150.288 168.18 150.29C166.88 150.29 164.18 143.29 162.92 143.29C162.864 143.275 162.806 143.275 162.75 143.29L107.15 175.39C105.86 176.14 103.77 187.39 102.49 188.18L96.0801 192V388.73C96.0801 389.79 96.6001 390.4 97.3701 390.4C97.726 390.384 98.0712 390.274 98.3701 390.08L337.5 252C338.174 251.562 338.736 250.972 339.141 250.277C339.546 249.582 339.782 248.802 339.83 248V51.2397Z" fill="#E0E0E0"/>
<path d="M93.8901 199.15C93.234 198.705 92.6933 198.11 92.3125 197.414C91.9317 196.719 91.7218 195.943 91.7001 195.15V177C91.746 176.2 91.9778 175.423 92.377 174.728C92.7763 174.034 93.332 173.442 94.0001 173L333.1 35.0001C333.773 34.5737 334.55 34.3398 335.346 34.3236C336.142 34.3075 336.928 34.5099 337.617 34.9087C338.307 35.3076 338.874 35.8877 339.257 36.586C339.64 37.2844 339.824 38.0743 339.79 38.8701V57.0001C339.743 57.803 339.508 58.5835 339.103 59.2785C338.698 59.9734 338.135 60.5632 337.46 61.0001L98.4001 199.07C97.7072 199.436 96.938 199.634 96.1546 199.648C95.3712 199.661 94.5955 199.491 93.8901 199.15Z" fill="#CB93F6"/>
<path opacity="0.4" d="M339.8 38.4099C339.64 37.1999 338.66 36.7599 337.5 37.4099L98.4 175.49C97.7176 175.932 97.1517 176.533 96.75 177.24L92.38 174.71C92.7716 174.016 93.328 173.428 94 173L333.1 34.9999C333.744 34.5894 334.485 34.356 335.248 34.3233C336.011 34.2906 336.769 34.4599 337.445 34.8139C338.122 35.168 338.693 35.6943 339.101 36.3397C339.51 36.9851 339.74 37.7269 339.77 38.4899L339.8 38.4099Z" fill="white"/>
<path opacity="0.1" d="M96.75 177.24C96.3343 177.934 96.1035 178.722 96.08 179.53V207.14L91.69 204.61V177C91.685 176.907 91.685 176.813 91.69 176.72C91.7079 176.525 91.738 176.331 91.78 176.14C91.9052 175.635 92.1004 175.151 92.36 174.7L96.75 177.24Z" fill="black"/>
<path d="M339.82 38.7799V51.2399L168.34 150.24C167.06 150.99 166.02 150.38 166.02 148.9V144.18C166.02 142.7 165.02 142.09 163.68 142.84L107.14 175.48C106.466 175.919 105.905 176.509 105.5 177.203C105.096 177.898 104.859 178.678 104.81 179.48V184.19C104.759 184.992 104.522 185.771 104.118 186.465C103.713 187.16 103.153 187.75 102.48 188.19L96.0801 192V179.53C96.1298 178.729 96.3653 177.95 96.768 177.256C97.1706 176.562 97.7294 175.971 98.4001 175.53L337.5 37.5299C338.78 36.6899 339.82 37.2999 339.82 38.7799Z" fill="#CB93F6"/>
<path d="M328.9 46.5897C330.52 45.6597 331.83 46.4197 331.83 48.2897C331.775 49.307 331.481 50.297 330.972 51.1795C330.463 52.0621 329.753 52.8124 328.9 53.3697C327.28 54.2997 325.96 53.5397 325.96 51.6697C326.017 50.6517 326.313 49.6615 326.824 48.779C327.335 47.8965 328.046 47.1466 328.9 46.5897Z" fill="white"/>
<path d="M318.34 52.6801C319.96 51.7501 321.27 52.5001 321.27 54.3701C321.216 55.3878 320.923 56.3784 320.414 57.2612C319.904 58.144 319.194 58.894 318.34 59.4501C316.72 60.3901 315.41 59.6301 315.41 57.7601C315.465 56.7428 315.76 55.7529 316.269 54.8703C316.778 53.9878 317.487 53.2375 318.34 52.6801Z" fill="white"/>
<path d="M307.78 58.77C309.4 57.83 310.71 58.59 310.71 60.46C310.655 61.4773 310.361 62.4673 309.852 63.3498C309.343 64.2323 308.633 64.9826 307.78 65.54C306.16 66.47 304.85 65.72 304.85 63.85C304.904 62.8323 305.197 61.8417 305.706 60.959C306.216 60.0762 306.926 59.3262 307.78 58.77Z" fill="white"/>
<path d="M339.83 51.2397V66.3897L96.0801 207.14V192L100.87 189.23C102.15 188.49 102.58 187.36 103.19 185.23L104.82 179.59C105.33 177.59 105.82 176.3 107.15 175.59L162.75 143.49C164.04 142.75 165.05 142.67 166.03 144.29L168.03 147.91C168.76 149.17 169.13 149.91 170.41 149.17L339.83 51.2397Z" fill="#E6E6E6"/>
<path d="M96.0801 191.98V207.14L91.6901 204.61V189.47L96.0801 191.98Z" fill="#E0E0E0"/>
<path opacity="0.5" d="M106.77 193.08L103.11 195.19L104.5 192.51C104.556 192.409 104.585 192.296 104.585 192.18C104.585 192.065 104.556 191.951 104.5 191.85C104.39 191.72 104.21 191.85 104.08 192.05L102.08 195.86C102.08 195.86 102.08 195.95 102.03 196C101.98 196.05 102.03 196 102.03 196C102.025 196.063 102.025 196.127 102.03 196.19C102.023 196.247 102.023 196.304 102.03 196.36C102.044 196.388 102.061 196.415 102.08 196.44L104.08 197.96C104.108 197.983 104.144 197.995 104.18 197.995C104.216 197.995 104.252 197.983 104.28 197.96C104.382 197.894 104.46 197.795 104.5 197.68C104.61 197.43 104.59 197.15 104.5 197.06L103.11 195.98L106.77 193.87C106.863 193.796 106.937 193.702 106.988 193.594C107.038 193.487 107.063 193.369 107.06 193.25C107.06 193.11 106.93 193 106.77 193.08Z" fill="#404040"/>
<path opacity="0.5" d="M109.82 191.31L113.48 189.2L112.08 188.13C112.021 188.036 111.989 187.927 111.989 187.815C111.989 187.704 112.021 187.594 112.08 187.5C112.18 187.25 112.37 187.13 112.49 187.22L114.49 188.75C114.517 188.771 114.538 188.798 114.55 188.83C114.56 188.886 114.56 188.944 114.55 189C114.56 189.067 114.56 189.134 114.55 189.2L114.49 189.35L112.49 193.17C112.452 193.262 112.385 193.339 112.3 193.39C112.27 193.418 112.231 193.434 112.19 193.434C112.149 193.434 112.11 193.418 112.08 193.39C112.023 193.291 111.993 193.179 111.993 193.065C111.993 192.951 112.023 192.839 112.08 192.74L113.48 190.06L109.82 192.17C109.66 192.26 109.53 192.17 109.53 191.89C109.535 191.779 109.563 191.669 109.613 191.569C109.663 191.469 109.733 191.381 109.82 191.31Z" fill="#404040"/>
<path opacity="0.5" d="M121.82 180.78C121.82 180.56 121.61 180.58 121.51 180.78L121.01 182.01C120.15 181.92 119.12 182.75 118.42 184.23C117.51 186.15 117.51 188.42 118.42 189.29C118.639 189.494 118.923 189.616 119.222 189.635C119.521 189.653 119.818 189.566 120.06 189.39C120.792 188.897 121.365 188.202 121.71 187.39C121.765 187.292 121.794 187.182 121.794 187.07C121.794 186.958 121.765 186.847 121.71 186.75C121.59 186.64 121.41 186.75 121.29 186.99C120.61 188.42 119.51 189.06 118.84 188.41C118.17 187.76 118.16 186.06 118.84 184.63C119.32 183.63 120.01 183.01 120.61 182.97L120.24 183.9C120.14 184.14 120.24 184.36 120.38 184.26L121.87 183.26C121.931 183.214 121.979 183.153 122.009 183.083C122.039 183.012 122.05 182.935 122.04 182.86L121.82 180.78Z" fill="#404040"/>
<path opacity="0.5" d="M161.14 150.31L162.48 147.49C162.555 147.356 162.595 147.204 162.595 147.05C162.595 146.896 162.555 146.744 162.48 146.61C162.32 146.46 162.06 146.61 161.91 146.94L160.57 149.76L159.24 148.48C159.08 148.33 158.83 148.48 158.67 148.81C158.59 148.943 158.547 149.095 158.547 149.25C158.547 149.405 158.59 149.557 158.67 149.69L160 151L158.67 153.82C158.59 153.953 158.547 154.105 158.547 154.26C158.547 154.415 158.59 154.567 158.67 154.7C158.708 154.734 158.758 154.754 158.81 154.754C158.862 154.754 158.911 154.734 158.95 154.7C159.081 154.616 159.182 154.494 159.24 154.35L160.57 151.53L161.91 152.81C161.948 152.844 161.998 152.864 162.05 152.864C162.102 152.864 162.151 152.844 162.19 152.81C162.321 152.726 162.422 152.604 162.48 152.46C162.555 152.326 162.595 152.174 162.595 152.02C162.595 151.866 162.555 151.714 162.48 151.58L161.14 150.31Z" fill="#404040"/>
<path d="M126.68 184.25V179.53C126.729 178.727 126.965 177.947 127.369 177.253C127.774 176.558 128.336 175.968 129.01 175.53L324.38 62.7398C325.67 61.9898 326.71 62.5998 326.71 64.0798V68.7998C326.662 69.6023 326.426 70.3822 326.021 71.0769C325.616 71.7716 325.054 72.3617 324.38 72.7998L129 185.59C127.72 186.34 126.68 185.73 126.68 184.25Z" fill="#FAFAFA"/>
<path d="M321.21 73.1997C321.14 73.2111 321.07 73.2111 321 73.1997C320.869 73.1392 320.763 73.0357 320.7 72.9065C320.636 72.7773 320.618 72.6302 320.65 72.4897L320.88 70.5797L319.98 69.9297C319.902 69.8681 319.839 69.7889 319.797 69.6985C319.756 69.6081 319.736 69.5092 319.74 69.4097C319.736 69.2544 319.768 69.1004 319.834 68.9598C319.9 68.8192 319.998 68.6959 320.12 68.5997L321.49 67.5397C321.517 67.5073 321.537 67.4699 321.55 67.4297L322.16 65.4297C322.197 65.2651 322.283 65.1153 322.406 64.9996C322.529 64.8838 322.683 64.8073 322.85 64.7797C322.963 64.7669 323.076 64.7913 323.174 64.849C323.271 64.9068 323.347 64.9948 323.39 65.0997L323.9 66.1897L325.06 65.7497C325.163 65.7036 325.278 65.6924 325.388 65.7176C325.498 65.7429 325.597 65.8033 325.67 65.8897C325.765 66.028 325.816 66.1919 325.816 66.3597C325.816 66.5275 325.765 66.6914 325.67 66.8297L324.67 68.6897C324.666 68.7262 324.666 68.7632 324.67 68.7997L324.91 70.4797C324.928 70.6334 324.911 70.7892 324.859 70.935C324.807 71.0808 324.722 71.2124 324.61 71.3197C324.544 71.3967 324.461 71.4562 324.367 71.4929C324.272 71.5295 324.17 71.5422 324.07 71.5297L323 71.3597L321.79 72.8997C321.726 72.9937 321.639 73.0703 321.538 73.1226C321.437 73.175 321.324 73.2015 321.21 73.1997ZM320.55 69.2997L321.45 69.9497C321.543 70.0257 321.614 70.1249 321.656 70.2373C321.698 70.3498 321.71 70.4713 321.69 70.5897L321.53 71.8697L322.34 70.8697C322.409 70.7712 322.503 70.692 322.611 70.6395C322.72 70.587 322.84 70.563 322.96 70.5697L324.08 70.7097C324.087 70.6667 324.087 70.6227 324.08 70.5797L323.84 68.8997C323.821 68.6923 323.863 68.4839 323.96 68.2997L324.83 66.6697L324 66.9997C323.868 67.0539 323.721 67.0551 323.589 67.0029C323.456 66.9507 323.349 66.8492 323.29 66.7197L322.89 65.8597L322.34 67.6497C322.283 67.8511 322.164 68.0295 322 68.1597L320.63 69.1597C320.591 69.1979 320.563 69.2464 320.55 69.2997Z" fill="#E0E0E0"/>
<g opacity="0.5">
<path d="M329.46 62.1601C329.281 62.1653 329.105 62.1101 328.961 62.0034C328.816 61.8966 328.712 61.7445 328.665 61.5714C328.618 61.3983 328.63 61.2144 328.7 61.0491C328.77 60.8838 328.893 60.7468 329.05 60.6601L335.61 56.8701C335.702 56.8096 335.806 56.7686 335.914 56.7495C336.023 56.7305 336.134 56.7337 336.241 56.7591C336.349 56.7846 336.449 56.8316 336.538 56.8974C336.626 56.9631 336.7 57.0463 336.756 57.1417C336.811 57.2371 336.846 57.3427 336.859 57.4521C336.872 57.5616 336.862 57.6725 336.831 57.7782C336.799 57.8838 336.747 57.9819 336.676 58.0665C336.606 58.1511 336.518 58.2204 336.42 58.2701L329.86 62.0501C329.74 62.1247 329.601 62.1629 329.46 62.1601Z" fill="#404040"/>
<path d="M329.46 66.0003C329.318 66.0016 329.179 65.9652 329.056 65.8949C328.933 65.8247 328.831 65.723 328.76 65.6003C328.654 65.4141 328.624 65.1937 328.679 64.9862C328.733 64.7787 328.866 64.6007 329.05 64.4903L335.61 60.7103C335.702 60.6563 335.804 60.621 335.909 60.6063C336.015 60.5917 336.122 60.598 336.225 60.6249C336.328 60.6519 336.425 60.6989 336.51 60.7633C336.595 60.8277 336.666 60.9083 336.72 61.0003C336.773 61.092 336.808 61.1935 336.822 61.2987C336.836 61.4039 336.828 61.5108 336.8 61.6131C336.772 61.7155 336.724 61.8113 336.659 61.8949C336.594 61.9786 336.513 62.0484 336.42 62.1003L329.86 65.8903C329.74 65.9649 329.601 66.0031 329.46 66.0003Z" fill="#404040"/>
<path d="M329.46 69.74C329.282 69.7406 329.108 69.6823 328.967 69.5742C328.825 69.4661 328.723 69.3143 328.676 69.1423C328.629 68.9702 328.641 68.7876 328.708 68.6227C328.776 68.4577 328.896 68.3197 329.05 68.23L335.61 64.44C335.797 64.3345 336.019 64.3068 336.226 64.3629C336.434 64.419 336.611 64.5544 336.72 64.74C336.773 64.8317 336.808 64.9332 336.822 65.0384C336.836 65.1436 336.828 65.2505 336.8 65.3528C336.772 65.4552 336.724 65.551 336.659 65.6346C336.594 65.7183 336.513 65.7881 336.42 65.84L329.86 69.63C329.738 69.7 329.601 69.7378 329.46 69.74Z" fill="#404040"/>
</g>
<g opacity="0.5">
<path d="M103.27 211.38C103.091 211.385 102.915 211.33 102.771 211.223C102.626 211.117 102.522 210.964 102.475 210.791C102.428 210.618 102.44 210.434 102.51 210.269C102.58 210.104 102.703 209.967 102.86 209.88L109.42 206.09C109.605 205.997 109.818 205.978 110.016 206.037C110.215 206.096 110.383 206.228 110.487 206.407C110.59 206.586 110.621 206.798 110.574 207C110.526 207.201 110.403 207.377 110.23 207.49L103.67 211.27C103.549 211.343 103.411 211.381 103.27 211.38Z" fill="#404040"/>
<path d="M103.27 215.171C103.128 215.172 102.989 215.135 102.866 215.065C102.743 214.995 102.641 214.893 102.57 214.771C102.516 214.679 102.481 214.577 102.466 214.471C102.451 214.366 102.458 214.258 102.485 214.155C102.511 214.052 102.559 213.955 102.623 213.871C102.687 213.786 102.768 213.714 102.86 213.661L109.42 209.881C109.511 209.827 109.612 209.792 109.717 209.777C109.822 209.763 109.928 209.769 110.03 209.796C110.133 209.823 110.229 209.87 110.313 209.934C110.397 209.999 110.467 210.079 110.52 210.171C110.574 210.262 110.609 210.364 110.624 210.47C110.639 210.575 110.632 210.683 110.605 210.786C110.578 210.889 110.531 210.986 110.467 211.071C110.403 211.155 110.322 211.227 110.23 211.281L103.67 215.061C103.549 215.134 103.411 215.172 103.27 215.171Z" fill="#404040"/>
<path d="M103.27 219.001C103.092 219.001 102.918 218.943 102.776 218.835C102.635 218.727 102.533 218.575 102.486 218.403C102.439 218.231 102.45 218.048 102.518 217.883C102.586 217.718 102.706 217.58 102.86 217.491L109.42 213.711C109.511 213.655 109.612 213.619 109.717 213.604C109.822 213.589 109.929 213.595 110.032 213.622C110.134 213.649 110.23 213.696 110.314 213.761C110.398 213.827 110.468 213.908 110.52 214.001C110.574 214.092 110.609 214.193 110.623 214.297C110.638 214.402 110.632 214.509 110.605 214.611C110.578 214.713 110.531 214.809 110.466 214.893C110.402 214.977 110.322 215.048 110.23 215.101L103.67 218.891C103.548 218.959 103.41 218.997 103.27 219.001Z" fill="#404040"/>
</g>
<path d="M161.45 178V183.81C161.45 185 162.29 185.48 163.32 184.89L241.25 139.83V129.69L163.33 174.75C162.783 175.106 162.327 175.585 162 176.15C161.674 176.715 161.485 177.349 161.45 178Z" fill="#E6E6E6"/>
<path d="M251.07 124C252.07 123.4 252.94 123.89 252.94 125.08V130.89C252.904 131.538 252.716 132.17 252.391 132.732C252.066 133.295 251.614 133.774 251.07 134.13L241.25 139.8V129.69L251.07 124Z" fill="#CB93F6"/>
<path d="M250.34 132L249.25 131.65C249.361 131.189 249.418 130.715 249.42 130.24C249.471 129.797 249.405 129.348 249.23 128.938C249.055 128.528 248.775 128.17 248.42 127.9C248.173 127.769 247.894 127.707 247.614 127.721C247.334 127.735 247.063 127.825 246.83 127.98C246.133 128.515 245.571 129.207 245.191 129.999C244.81 130.791 244.622 131.662 244.64 132.54C244.589 132.984 244.655 133.433 244.83 133.843C245.005 134.253 245.285 134.611 245.64 134.88C245.85 134.999 246.088 135.061 246.33 135.06C246.648 135.057 246.959 134.967 247.23 134.8C248.066 134.228 248.688 133.394 249 132.43L250.1 132.77C250.139 132.78 250.181 132.78 250.22 132.77C250.322 132.781 250.425 132.752 250.506 132.689C250.587 132.626 250.641 132.534 250.656 132.433C250.672 132.331 250.647 132.227 250.589 132.143C250.53 132.059 250.441 132.001 250.34 131.98V132ZM246.83 134.1C246.717 134.183 246.584 134.233 246.445 134.245C246.306 134.257 246.166 134.232 246.04 134.17C245.819 133.965 245.651 133.71 245.548 133.427C245.446 133.143 245.412 132.839 245.45 132.54C245.439 131.805 245.594 131.076 245.902 130.408C246.21 129.74 246.664 129.15 247.23 128.68C247.381 128.589 247.553 128.538 247.73 128.53C247.833 128.527 247.934 128.555 248.02 128.61C248.241 128.816 248.409 129.071 248.512 129.354C248.614 129.638 248.648 129.941 248.61 130.24C248.619 130.974 248.464 131.701 248.156 132.367C247.848 133.033 247.395 133.622 246.83 134.09V134.1Z" fill="#FAFAFA"/>
<path d="M129.06 194.53L117.81 201C117.266 201.351 116.813 201.826 116.488 202.386C116.163 202.945 115.975 203.574 115.94 204.22V210.01C115.94 211.2 116.78 211.68 117.81 211.09L129.06 204.58C129.603 204.226 130.054 203.749 130.377 203.188C130.7 202.627 130.886 201.997 130.92 201.35V195.6C130.92 194.42 130.09 193.93 129.06 194.53Z" fill="#CB93F6"/>
<path d="M324.71 81.5601C323.435 82.3928 322.375 83.5138 321.614 84.8323C320.853 86.1509 320.413 87.6301 320.33 89.1501C320.33 91.9501 322.33 93.0801 324.71 91.6901C325.987 90.857 327.05 89.7348 327.813 88.4145C328.575 87.0941 329.016 85.6127 329.1 84.0901C329.1 81.2901 327.13 80.1601 324.71 81.5601Z" fill="#CB93F6"/>
<path d="M324.2 86.0004C324.063 86.0027 323.929 85.9682 323.81 85.9004C323.671 85.8017 323.559 85.6691 323.485 85.515C323.412 85.361 323.379 85.1907 323.39 85.0204C323.409 84.6195 323.523 84.2289 323.723 83.8811C323.923 83.5332 324.203 83.2381 324.54 83.0204C324.677 82.9123 324.843 82.8478 325.017 82.8353C325.191 82.8227 325.364 82.8627 325.515 82.95C325.666 83.0373 325.787 83.1679 325.863 83.3248C325.939 83.4818 325.965 83.658 325.94 83.8304C325.919 84.2318 325.802 84.6223 325.601 84.97C325.399 85.3177 325.118 85.6126 324.78 85.8304C324.604 85.9344 324.404 85.9928 324.2 86.0004Z" fill="white"/>
<path d="M326.44 86.3103C326.197 86.1888 325.925 86.1357 325.653 86.1569C325.382 86.178 325.122 86.2725 324.9 86.4303L324.26 86.8003C323.679 87.1686 323.195 87.6701 322.847 88.2631C322.499 88.8562 322.298 89.5238 322.26 90.2103V90.6703C322.652 90.8396 323.08 90.9047 323.504 90.8591C323.928 90.8136 324.333 90.6589 324.68 90.4103C325.689 89.7828 326.522 88.9087 327.1 87.8703V87.7603C327.127 87.482 327.081 87.2013 326.965 86.9467C326.849 86.6921 326.668 86.4726 326.44 86.3103Z" fill="white"/>
<path d="M309.2 95.12V93.57C309.2 91.81 308.13 91 306.81 91.76C306.08 92.2825 305.482 92.969 305.065 93.7645C304.648 94.5599 304.424 95.4421 304.41 96.34V97.73C304.378 98.685 304.099 99.6153 303.6 100.43C303.476 100.643 303.407 100.884 303.4 101.13C303.4 101.58 303.67 101.78 304 101.59L309.61 98.36C309.793 98.226 309.942 98.0515 310.046 97.8503C310.15 97.6491 310.206 97.4265 310.21 97.2C310.216 97.1133 310.204 97.0261 310.173 96.9449C310.141 96.8636 310.093 96.7902 310.03 96.73C309.748 96.5738 309.518 96.3375 309.371 96.0509C309.223 95.7643 309.164 95.4404 309.2 95.12Z" fill="#CB93F6"/>
<path d="M308 99.8003C307.993 100.231 307.885 100.654 307.685 101.036C307.486 101.418 307.2 101.748 306.85 102C306.21 102.36 305.69 102 305.69 101.13L308 99.8003Z" fill="#CB93F6"/>
<path d="M288.52 102.48C288.826 102.299 289.167 102.183 289.52 102.14C289.797 102.108 290.077 102.164 290.32 102.3C290.555 102.444 290.74 102.657 290.85 102.91C290.979 103.258 291.03 103.63 291 104C291.003 104.337 290.967 104.673 290.89 105C290.818 105.293 290.724 105.581 290.61 105.86C290.501 106.124 290.377 106.381 290.24 106.63L289.84 107.35C289.72 107.58 289.6 107.82 289.5 108.05C289.404 108.272 289.334 108.503 289.29 108.74C289.28 108.854 289.253 108.965 289.21 109.07C289.176 109.151 289.121 109.22 289.05 109.27L287.92 109.92C287.85 109.92 287.79 109.92 287.75 109.92C287.721 109.89 287.699 109.853 287.686 109.814C287.672 109.774 287.667 109.732 287.67 109.69C287.668 109.382 287.712 109.076 287.8 108.78C287.881 108.491 287.981 108.207 288.1 107.93C288.23 107.66 288.36 107.39 288.51 107.14C288.66 106.89 288.78 106.64 288.91 106.42C289.04 106.2 289.13 105.97 289.22 105.76C289.295 105.573 289.336 105.373 289.34 105.17C289.34 104.89 289.27 104.71 289.14 104.64C289.01 104.57 288.79 104.64 288.51 104.76C288.27 104.886 288.067 105.072 287.92 105.3C287.81 105.48 287.719 105.671 287.65 105.87L287.51 106.37C287.479 106.506 287.396 106.624 287.28 106.7L286.15 107.35C286.13 107.365 286.105 107.373 286.08 107.373C286.055 107.373 286.03 107.365 286.01 107.35C285.987 107.323 285.97 107.291 285.96 107.256C285.95 107.222 285.946 107.186 285.95 107.15C285.964 106.761 286.025 106.375 286.13 106C286.257 105.556 286.425 105.124 286.63 104.71C286.848 104.274 287.117 103.864 287.43 103.49C287.729 103.091 288.099 102.749 288.52 102.48ZM289.32 111.72C289.32 111.828 289.296 111.933 289.25 112.03C289.212 112.116 289.149 112.19 289.07 112.24L287.91 112.91C287.899 112.922 287.886 112.93 287.871 112.936C287.856 112.943 287.841 112.946 287.825 112.946C287.809 112.946 287.794 112.943 287.779 112.936C287.764 112.93 287.751 112.922 287.74 112.91C287.711 112.88 287.689 112.843 287.676 112.804C287.662 112.764 287.657 112.722 287.66 112.68V111.25C287.663 111.142 287.69 111.036 287.74 110.94C287.771 110.851 287.831 110.773 287.91 110.72L289.07 110.05C289.095 110.029 289.127 110.018 289.16 110.018C289.193 110.018 289.225 110.029 289.25 110.05C289.277 110.08 289.297 110.115 289.309 110.153C289.321 110.191 289.325 110.231 289.32 110.27V111.72Z" fill="#CB93F6"/>
<path d="M161.56 282.63C160.641 282.63 159.758 282.272 159.1 281.63C158.634 281.15 158.273 280.579 158.039 279.952C157.805 279.326 157.703 278.658 157.74 277.99V270.59L138 282C137.397 282.364 136.705 282.554 136 282.55C135.083 282.553 134.203 282.194 133.55 281.55C133.081 281.07 132.716 280.498 132.48 279.869C132.245 279.241 132.142 278.57 132.18 277.9V265.7C132.164 263.511 132.55 261.339 133.32 259.29L155.67 203C156.063 201.935 156.595 200.927 157.25 200C157.87 199.215 158.638 198.56 159.51 198.07L170.79 191.56C171.393 191.196 172.085 191.005 172.79 191.01C173.706 191.01 174.586 191.369 175.24 192.01C175.708 192.489 176.071 193.06 176.307 193.686C176.543 194.313 176.646 194.981 176.61 195.65V235.48L179.28 233.94C179.883 233.575 180.575 233.384 181.28 233.39C182.195 233.394 183.073 233.752 183.73 234.39C184.185 234.888 184.532 235.475 184.751 236.113C184.969 236.751 185.054 237.427 185 238.1V250.29C184.994 251.534 184.707 252.762 184.16 253.88C183.66 255.053 182.812 256.045 181.73 256.72L176.56 259.72V270C176.553 271.248 176.265 272.478 175.72 273.6C175.22 274.773 174.372 275.764 173.29 276.44L163.51 282.09C162.917 282.434 162.246 282.62 161.56 282.63ZM154.68 248.16L158.11 246.16V239.51L154.68 248.16Z" fill="#E0E0E0"/>
<path d="M203.29 257.631H202.69C199.532 257.546 196.533 256.225 194.34 253.951C192.08 251.472 190.498 248.451 189.75 245.181C188.792 241.398 188.252 237.521 188.14 233.621C188.04 230.531 187.99 227.131 187.99 223.501C187.99 219.871 187.99 216.331 188.14 212.981C188.304 208.542 188.832 204.123 189.72 199.771C190.602 195.369 191.992 191.083 193.86 187.001C195.689 182.975 198.043 179.209 200.86 175.801C203.754 172.323 207.245 169.391 211.17 167.141C215.11 164.861 218.51 163.761 221.58 163.761H222.18C225.336 163.855 228.331 165.175 230.53 167.441C232.786 169.922 234.367 172.942 235.12 176.211C236.076 179.994 236.616 183.87 236.73 187.771C236.83 191.081 236.88 194.561 236.88 198.131C236.88 201.701 236.88 205.131 236.73 208.411C236.561 212.85 236.033 217.267 235.15 221.621C234.257 226.018 232.865 230.299 231 234.381C229.171 238.407 226.818 242.173 224 245.581C221.104 249.059 217.613 251.994 213.69 254.251C209.76 256.521 206.35 257.631 203.29 257.631ZM215.82 189.001C215.058 189.093 214.33 189.371 213.7 189.811C212.545 190.468 211.527 191.34 210.7 192.381C209.861 193.462 209.187 194.662 208.7 195.941C208.146 197.389 207.744 198.89 207.5 200.421C207.211 202.153 207.047 203.905 207.01 205.661C206.76 212.111 206.76 218.541 207.01 224.821C207.039 226.377 207.189 227.928 207.46 229.461C207.573 230.31 207.874 231.123 208.34 231.841C208.417 231.965 208.523 232.07 208.648 232.146C208.773 232.222 208.914 232.269 209.06 232.281C209.843 232.206 210.594 231.931 211.24 231.481C212.393 230.817 213.411 229.942 214.24 228.901C215.101 227.807 215.798 226.595 216.31 225.301C216.876 223.874 217.279 222.388 217.51 220.871C217.767 219.132 217.917 217.378 217.96 215.621C218.16 209.071 218.16 202.621 217.96 196.451C217.889 194.911 217.716 193.377 217.44 191.861C217.313 190.989 217.011 190.152 216.55 189.401C216.485 189.288 216.393 189.193 216.284 189.124C216.174 189.054 216.049 189.012 215.92 189.001H215.82Z" fill="#E0E0E0"/>
<path d="M271.23 219.31C270.311 219.311 269.428 218.952 268.77 218.31C268.304 217.83 267.943 217.259 267.709 216.633C267.475 216.006 267.373 215.338 267.41 214.67V207.27L247.63 218.69C247.045 219.045 246.375 219.235 245.69 219.24C244.77 219.245 243.886 218.886 243.23 218.24C242.764 217.761 242.402 217.19 242.168 216.563C241.934 215.936 241.832 215.268 241.87 214.6V202.37C241.85 200.195 242.233 198.036 243 196L265.34 139.73C265.73 138.666 266.258 137.658 266.91 136.73C267.533 135.948 268.3 135.293 269.17 134.8L280.45 128.29C281.054 127.927 281.746 127.737 282.45 127.74C283.367 127.737 284.248 128.096 284.9 128.74C285.368 129.219 285.731 129.79 285.967 130.417C286.203 131.043 286.306 131.712 286.27 132.38V172.21L288.95 170.67C289.535 170.314 290.205 170.124 290.89 170.12C291.805 170.124 292.683 170.483 293.34 171.12C293.808 171.603 294.172 172.177 294.407 172.807C294.643 173.437 294.746 174.109 294.71 174.78V187C294.703 188.247 294.42 189.477 293.88 190.6C293.377 191.772 292.53 192.762 291.45 193.44L286.27 196.44V206.72C286.261 207.967 285.978 209.196 285.44 210.32C284.937 211.494 284.085 212.486 283 213.16L273.22 218.81C272.613 219.151 271.926 219.323 271.23 219.31ZM264.36 184.84L267.79 182.84V176.19L264.36 184.84Z" fill="#E0E0E0"/>
<path d="M190.48 241.301C190.406 241.226 190.322 241.162 190.23 241.111L182.64 236.73V200.73C182.669 200.399 182.631 200.065 182.528 199.749C182.425 199.433 182.259 199.141 182.04 198.89L181.8 198.711L173.69 194.001C173.504 193.902 173.294 193.857 173.084 193.871C172.873 193.885 172.671 193.958 172.5 194.081L161.22 200.59C160.632 200.918 160.112 201.356 159.69 201.881C159.174 202.615 158.76 203.415 158.46 204.26L136.12 260.511C135.446 262.265 135.107 264.131 135.12 266.011V278.201C135.089 278.532 135.127 278.866 135.23 279.183C135.333 279.499 135.5 279.791 135.72 280.041C135.794 280.115 135.878 280.179 135.97 280.231L144.08 284.921C144.265 285.018 144.474 285.062 144.683 285.046C144.892 285.03 145.092 284.955 145.26 284.83L160.7 276.001V278.351C160.672 278.681 160.71 279.014 160.811 279.33C160.912 279.645 161.075 279.938 161.29 280.191L161.53 280.37L169.66 285.061C169.844 285.16 170.053 285.205 170.262 285.191C170.47 285.177 170.671 285.104 170.84 284.981L180.62 279.33C181.257 278.906 181.752 278.3 182.04 277.59C182.428 276.803 182.633 275.938 182.64 275.061V263.311L189.06 259.601C189.701 259.181 190.197 258.573 190.48 257.86C190.868 257.073 191.073 256.208 191.08 255.331V243.14C191.109 242.809 191.071 242.475 190.968 242.159C190.865 241.843 190.699 241.551 190.48 241.301Z" fill="#CB93F6"/>
<path opacity="0.15" d="M167.76 206.6V206.74C167.299 207.446 166.916 208.2 166.62 208.99L144.29 265.24C143.998 265.987 143.777 266.761 143.63 267.55L135.45 262.83C135.603 262.053 135.82 261.291 136.1 260.55L158.43 204.3C158.739 203.457 159.156 202.657 159.67 201.92L167.76 206.6Z" fill="black"/>
<path opacity="0.3" d="M144 284.9C143.08 284.37 136.31 280.46 136 280.28C135.91 280.223 135.826 280.156 135.75 280.08C135.53 279.831 135.363 279.539 135.26 279.222C135.157 278.906 135.119 278.572 135.15 278.24V266.06C135.153 264.986 135.26 263.914 135.47 262.86L143.59 267.55C143.378 268.604 143.274 269.676 143.28 270.75V282.94C143.251 283.269 143.288 283.601 143.39 283.915C143.491 284.229 143.654 284.52 143.87 284.77L144 284.9Z" fill="black"/>
<path opacity="0.3" d="M169.2 231.521V252.68L162.36 248.73L169.2 231.521Z" fill="black"/>
<path opacity="0.4" d="M169.2 252.68L158.29 258.97L162.36 248.73L169.2 252.68Z" fill="black"/>
<path opacity="0.3" d="M169.42 284.861L169.56 284.981L161.56 280.361C161.47 280.312 161.388 280.247 161.32 280.171C161.1 279.921 160.934 279.629 160.831 279.312C160.728 278.996 160.69 278.662 160.72 278.331V276.001L168.84 271.311V283.001C168.804 283.334 168.837 283.671 168.937 283.991C169.037 284.311 169.201 284.607 169.42 284.861Z" fill="black"/>
<path opacity="0.15" d="M190.14 241.07C189.965 241.002 189.775 240.978 189.589 241.001C189.402 241.023 189.224 241.092 189.07 241.2L182.64 244.91V236.74L190.14 241.07Z" fill="black"/>
<path opacity="0.4" d="M181.75 198.7C181.569 198.618 181.369 198.585 181.17 198.605C180.972 198.624 180.782 198.695 180.62 198.81L169.35 205.32C168.764 205.647 168.245 206.081 167.82 206.6L159.7 201.91C160.121 201.391 160.637 200.957 161.22 200.63L172.5 194.12C172.671 193.995 172.874 193.923 173.085 193.91C173.296 193.898 173.506 193.946 173.69 194.05L181.75 198.7Z" fill="white"/>
<path d="M170.84 285C170.631 285.159 170.372 285.236 170.111 285.217C169.85 285.199 169.604 285.086 169.42 284.9C169.2 284.65 169.034 284.358 168.931 284.042C168.828 283.726 168.79 283.392 168.82 283.06V271.29L145.29 284.87C145.082 285.031 144.823 285.109 144.561 285.091C144.299 285.072 144.053 284.958 143.87 284.77C143.65 284.521 143.483 284.229 143.38 283.912C143.277 283.596 143.239 283.262 143.27 282.93V270.74C143.257 268.861 143.597 266.995 144.27 265.24L166.58 209C166.891 208.16 167.304 207.36 167.81 206.62C168.237 206.1 168.755 205.663 169.34 205.33L180.62 198.82C180.829 198.662 181.088 198.585 181.349 198.603C181.61 198.622 181.856 198.734 182.04 198.92C182.259 199.171 182.425 199.463 182.528 199.779C182.631 200.095 182.669 200.429 182.64 200.76V244.92L189.06 241.21C189.27 241.056 189.528 240.981 189.788 241C190.049 241.018 190.294 241.128 190.48 241.31C190.699 241.561 190.865 241.853 190.968 242.169C191.071 242.485 191.109 242.819 191.08 243.15V255.34C191.073 256.218 190.868 257.083 190.48 257.87C190.197 258.583 189.701 259.19 189.06 259.61L182.64 263.32V275C182.633 275.878 182.428 276.743 182.04 277.53C181.752 278.24 181.257 278.846 180.62 279.27L170.84 285ZM169.19 252.71V231.51L158.29 259L169.19 252.71Z" fill="#CB93F6"/>
<path d="M242.84 192.9C242.735 189.188 242.222 185.499 241.31 181.9C240.659 179.045 239.281 176.406 237.31 174.24C236.719 173.618 236.047 173.08 235.31 172.64C233.96 171.84 227.92 168.37 227.18 167.94C225.763 167.132 224.17 166.682 222.54 166.63C219.873 166.49 216.663 167.49 212.91 169.63C209.237 171.727 205.972 174.467 203.27 177.72C200.58 180.957 198.334 184.539 196.59 188.37C194.787 192.278 193.445 196.382 192.59 200.6C191.73 204.814 191.218 209.092 191.06 213.39C190.96 216.723 190.91 220.2 190.91 223.82C190.91 227.43 190.96 230.77 191.06 233.82C191.163 237.532 191.677 241.221 192.59 244.82C193.24 247.679 194.618 250.321 196.59 252.49C197.183 253.107 197.855 253.642 198.59 254.08C199.95 254.88 206.07 258.41 206.85 258.85C208.24 259.619 209.793 260.047 211.38 260.1C214.06 260.24 217.28 259.23 221.01 257.1C224.678 254.997 227.943 252.258 230.65 249.01C233.337 245.77 235.583 242.189 237.33 238.36C239.133 234.452 240.475 230.348 241.33 226.13C242.19 221.916 242.702 217.638 242.86 213.34C242.96 210.14 243.01 206.74 243.01 203.14C243.01 199.54 242.953 196.127 242.84 192.9ZM213.33 233.77C213.146 232.521 213.036 231.262 213 230C212.753 223.627 212.753 217.187 213 210.68C213.042 208.807 213.216 206.939 213.52 205.09C213.796 203.381 214.248 201.706 214.87 200.09C215.451 198.578 216.257 197.162 217.26 195.89C218.169 194.754 219.265 193.78 220.5 193.01C220.67 194.15 220.79 195.39 220.86 196.74C221.06 202.993 221.06 209.433 220.86 216.06C220.818 217.925 220.655 219.786 220.37 221.63C220.117 223.343 219.667 225.02 219.03 226.63C218.427 228.146 217.609 229.568 216.6 230.85C215.686 232.005 214.58 232.992 213.33 233.77Z" fill="#CB93F6"/>
<path opacity="0.15" d="M206.66 258.79L198.66 254.15C197.927 253.706 197.255 253.168 196.66 252.55C194.689 250.384 193.311 247.745 192.66 244.89C191.747 241.291 191.234 237.602 191.13 233.89C191.03 230.803 190.98 227.47 190.98 223.89C190.98 220.31 191.03 216.83 191.13 213.45C191.288 209.152 191.8 204.874 192.66 200.66C193.257 197.679 194.1 194.752 195.18 191.91L203.29 196.61C202.221 199.451 201.385 202.374 200.79 205.35C199.922 209.563 199.407 213.841 199.25 218.14C199.15 221.473 199.1 224.953 199.1 228.58C199.1 232.207 199.15 235.54 199.25 238.58C199.352 242.293 199.869 245.982 200.79 249.58C201.438 252.437 202.817 255.076 204.79 257.24C205.345 257.834 205.973 258.355 206.66 258.79Z" fill="black"/>
<path opacity="0.4" d="M235 172.45C233.655 171.755 232.173 171.362 230.66 171.3C227.993 171.167 224.78 172.167 221.02 174.3C217.354 176.406 214.093 179.149 211.39 182.4C208.7 185.636 206.451 189.214 204.7 193.04C204.43 193.62 204.18 194.21 203.93 194.81C203.68 195.41 203.48 195.95 203.26 196.53L195.15 191.83C195.34 191.32 195.54 190.83 195.75 190.31C196.02 189.65 196.29 189 196.59 188.31C198.343 184.484 200.589 180.904 203.27 177.66C205.98 174.415 209.244 171.676 212.91 169.57C216.64 167.41 219.91 166.41 222.55 166.57C224.177 166.626 225.765 167.076 227.18 167.88C227.88 168.33 233.22 171.4 235 172.45Z" fill="white"/>
<path opacity="0.3" d="M229 220.781C228.954 222.646 228.79 224.506 228.51 226.351C228.258 228.064 227.808 229.741 227.17 231.351C226.903 232.017 226.592 232.665 226.24 233.291L218.12 228.601C218.465 227.973 218.772 227.325 219.04 226.661C219.677 225.05 220.13 223.373 220.39 221.661C220.666 219.816 220.827 217.956 220.87 216.091C221.07 209.464 221.07 203.024 220.87 196.771C220.8 195.421 220.68 194.181 220.52 193.041C220.52 193.041 220.73 192.891 221 192.731C222.095 191.967 223.406 191.574 224.74 191.611C225.219 191.664 225.681 191.82 226.093 192.068C226.506 192.317 226.86 192.652 227.13 193.051C227.805 194.092 228.252 195.264 228.44 196.491C228.735 198.143 228.922 199.814 229 201.491C229.213 207.724 229.213 214.154 229 220.781Z" fill="black"/>
<path opacity="0.4" d="M226.27 233.26C225.836 234.062 225.334 234.824 224.77 235.54C223.742 236.836 222.472 237.919 221.03 238.73C219.937 239.489 218.631 239.881 217.3 239.85C216.818 239.803 216.351 239.652 215.932 239.409C215.513 239.166 215.151 238.835 214.87 238.44C214.17 237.417 213.712 236.247 213.53 235.02C213.45 234.62 213.39 234.2 213.33 233.77C214.597 232.999 215.717 232.011 216.64 230.85C217.207 230.135 217.712 229.372 218.15 228.57L226.27 233.26Z" fill="black"/>
<path d="M221 174.33C224.74 172.17 227.953 171.17 230.64 171.33C233.163 171.394 235.56 172.442 237.32 174.25C239.291 176.416 240.669 179.055 241.32 181.91C242.232 185.509 242.745 189.198 242.85 192.91C242.95 196.15 243 199.573 243 203.18C243 206.787 242.95 210.187 242.85 213.38C242.692 217.678 242.18 221.956 241.32 226.17C240.465 230.388 239.123 234.492 237.32 238.4C235.575 242.208 233.339 245.771 230.67 249C227.963 252.248 224.698 254.987 221.03 257.09C217.3 259.25 214.08 260.26 211.4 260.09C208.874 260.029 206.472 258.981 204.71 257.17C202.738 255.001 201.36 252.359 200.71 249.5C199.797 245.901 199.283 242.212 199.18 238.5C199.08 235.41 199.03 232.07 199.03 228.5C199.03 224.93 199.08 221.42 199.18 218.07C199.338 213.772 199.85 209.494 200.71 205.28C201.565 201.062 202.907 196.958 204.71 193.05C206.461 189.221 208.71 185.64 211.4 182.4C214.091 179.157 217.343 176.424 221 174.33ZM229 220.78C229.2 214.153 229.2 207.713 229 201.46C228.927 199.783 228.74 198.112 228.44 196.46C228.254 195.234 227.811 194.062 227.14 193.02C226.873 192.618 226.52 192.28 226.107 192.031C225.694 191.782 225.23 191.628 224.75 191.58C223.417 191.554 222.109 191.946 221.01 192.7C219.572 193.511 218.305 194.595 217.28 195.89C216.277 197.162 215.471 198.578 214.89 200.09C214.268 201.705 213.816 203.381 213.54 205.09C213.236 206.939 213.062 208.807 213.02 210.68C212.773 217.187 212.773 223.627 213.02 230C213.05 231.677 213.21 233.348 213.5 235C213.681 236.229 214.143 237.399 214.85 238.42C215.13 238.816 215.492 239.148 215.911 239.393C216.33 239.638 216.797 239.791 217.28 239.84C218.61 239.865 219.914 239.473 221.01 238.72C222.447 237.903 223.717 236.821 224.75 235.53C225.752 234.245 226.567 232.824 227.17 231.31C227.81 229.701 228.263 228.023 228.52 226.31C228.795 224.478 228.955 222.632 229 220.78Z" fill="#CB93F6"/>
<path d="M300.16 178C300.083 177.925 299.995 177.861 299.9 177.81L292.31 173.43V137.43C292.339 137.1 292.302 136.767 292.201 136.451C292.1 136.135 291.936 135.842 291.72 135.59C291.648 135.521 291.567 135.46 291.48 135.41L283.36 130.72C283.174 130.621 282.964 130.576 282.754 130.59C282.543 130.605 282.341 130.677 282.17 130.8L270.89 137.31C270.301 137.637 269.782 138.075 269.36 138.6C268.852 139.339 268.439 140.138 268.13 140.98L245.8 197.23C245.126 198.985 244.787 200.851 244.8 202.73V214.92C244.769 215.251 244.805 215.585 244.906 215.901C245.007 216.217 245.172 216.51 245.39 216.76C245.467 216.835 245.555 216.899 245.65 216.95L253.76 221.64C253.945 221.738 254.154 221.782 254.363 221.766C254.572 221.75 254.772 221.675 254.94 221.55L270.34 212.66V215C270.311 215.332 270.349 215.665 270.452 215.981C270.555 216.298 270.721 216.59 270.94 216.84L271.18 217.02L279.3 221.71C279.485 221.807 279.693 221.851 279.901 221.837C280.11 221.823 280.31 221.751 280.48 221.63L290.3 216C290.934 215.572 291.428 214.967 291.72 214.26C292.099 213.47 292.301 212.607 292.31 211.73V200L298.74 196.29C299.379 195.867 299.874 195.261 300.16 194.55C300.539 193.76 300.741 192.897 300.75 192.02V179.82C300.801 179.159 300.589 178.505 300.16 178Z" fill="#CB93F6"/>
<path opacity="0.15" d="M277.43 143.28V143.42C276.968 144.126 276.586 144.88 276.29 145.67L253.96 201.92C253.668 202.668 253.447 203.441 253.3 204.23L245.12 199.51C245.273 198.733 245.49 197.971 245.77 197.23L268.06 141C268.369 140.157 268.786 139.357 269.3 138.62L277.43 143.28Z" fill="black"/>
<path opacity="0.3" d="M253.69 221.58C252.77 221.05 246 217.14 245.69 216.96C245.6 216.903 245.516 216.836 245.44 216.76C245.22 216.51 245.053 216.219 244.95 215.902C244.847 215.586 244.809 215.251 244.84 214.92V202.74C244.842 201.666 244.95 200.594 245.16 199.54L253.28 204.23C253.068 205.283 252.964 206.356 252.97 207.43V219.62C252.941 219.949 252.978 220.28 253.08 220.595C253.181 220.909 253.344 221.2 253.56 221.45L253.69 221.58Z" fill="black"/>
<path opacity="0.3" d="M278.87 168.2V189.36L272.03 185.41L278.87 168.2Z" fill="black"/>
<path opacity="0.4" d="M278.87 189.36L267.96 195.65L272.03 185.41L278.87 189.36Z" fill="black"/>
<path opacity="0.3" d="M279.09 221.541L279.23 221.661L271.23 217.041C271.14 216.992 271.058 216.928 270.99 216.851C270.77 216.601 270.604 216.309 270.501 215.992C270.398 215.676 270.36 215.342 270.39 215.011V212.661L278.51 207.971V219.701C278.477 220.031 278.512 220.364 278.611 220.68C278.711 220.996 278.874 221.289 279.09 221.541Z" fill="black"/>
<path opacity="0.15" d="M299.81 177.75C299.635 177.682 299.445 177.658 299.259 177.68C299.072 177.703 298.894 177.772 298.74 177.88L292.31 181.59V173.42L299.81 177.75Z" fill="black"/>
<path opacity="0.4" d="M291.42 135.38C291.239 135.298 291.039 135.265 290.84 135.284C290.642 135.304 290.452 135.375 290.29 135.49L279 142C278.414 142.327 277.895 142.761 277.47 143.28L269.35 138.59C269.771 138.071 270.287 137.637 270.87 137.31L282.15 130.8C282.321 130.675 282.524 130.602 282.735 130.59C282.946 130.577 283.156 130.626 283.34 130.73L291.42 135.38Z" fill="white"/>
<path d="M280.51 221.64C280.301 221.798 280.042 221.875 279.781 221.857C279.52 221.839 279.274 221.726 279.09 221.54C278.873 221.289 278.709 220.996 278.608 220.68C278.506 220.364 278.47 220.031 278.5 219.7V208L255 221.55C254.792 221.71 254.533 221.789 254.271 221.77C254.009 221.752 253.763 221.638 253.58 221.45C253.36 221.2 253.193 220.908 253.09 220.592C252.987 220.276 252.949 219.941 252.98 219.61V207.42C252.967 205.54 253.306 203.675 253.98 201.92L276.31 145.67C276.617 144.826 277.034 144.025 277.55 143.29C277.946 142.771 278.438 142.333 279 142L290.28 135.49C290.489 135.334 290.748 135.258 291.009 135.276C291.269 135.294 291.515 135.406 291.7 135.59C291.916 135.842 292.079 136.134 292.181 136.45C292.282 136.766 292.319 137.099 292.29 137.43V181.59L298.72 177.88C298.929 177.724 299.188 177.648 299.449 177.666C299.709 177.684 299.955 177.796 300.14 177.98C300.355 178.232 300.518 178.525 300.619 178.841C300.72 179.157 300.758 179.489 300.73 179.82V192C300.721 192.876 300.519 193.74 300.14 194.53C299.854 195.24 299.359 195.847 298.72 196.27L292.31 200V211.73C292.301 212.606 292.099 213.47 291.72 214.26C291.428 214.967 290.934 215.572 290.3 216L280.51 221.64ZM278.87 189.35V168.19L268 195.65L278.87 189.35Z" fill="#CB93F6"/>
<path d="M201.22 292.43C201.265 292.393 201.322 292.372 201.38 292.372C201.439 292.372 201.495 292.393 201.54 292.43C201.59 292.487 201.628 292.554 201.652 292.626C201.677 292.698 201.686 292.774 201.68 292.85V295.61C201.675 295.811 201.628 296.009 201.54 296.19C201.478 296.351 201.366 296.487 201.22 296.58L193.22 301.21C193.175 301.247 193.119 301.268 193.06 301.268C193.002 301.268 192.945 301.247 192.9 301.21C192.852 301.152 192.815 301.085 192.793 301.013C192.771 300.941 192.763 300.865 192.77 300.79V284C192.77 283.803 192.814 283.608 192.9 283.43C192.965 283.271 193.077 283.135 193.22 283.04L201.11 278.48C201.154 278.441 201.211 278.419 201.27 278.419C201.329 278.419 201.386 278.441 201.43 278.48C201.479 278.536 201.516 278.601 201.539 278.671C201.561 278.742 201.568 278.816 201.56 278.89V281.66C201.56 281.857 201.516 282.052 201.43 282.23C201.365 282.389 201.253 282.525 201.11 282.62L195.9 285.62V288.43L200.73 285.64C200.777 285.604 200.835 285.584 200.895 285.584C200.955 285.584 201.013 285.604 201.06 285.64C201.108 285.698 201.145 285.765 201.167 285.837C201.19 285.909 201.197 285.985 201.19 286.06V288.82C201.19 289.017 201.146 289.212 201.06 289.39C200.991 289.553 200.877 289.692 200.73 289.79L195.9 292.58V295.5L201.22 292.43Z" fill="#404040"/>
<path d="M209.09 273.83C209.703 273.448 210.381 273.18 211.09 273.041C211.601 272.929 212.136 273.011 212.59 273.27C213.053 273.58 213.39 274.044 213.54 274.58C213.784 275.377 213.895 276.208 213.87 277.041C213.884 278.241 213.705 279.436 213.34 280.58C213.018 281.604 212.517 282.562 211.86 283.41L213.95 288.41C213.986 288.489 214.003 288.574 214 288.66C214.002 288.824 213.965 288.985 213.89 289.13C213.836 289.26 213.746 289.371 213.63 289.451L211.33 290.78C211.11 290.91 210.95 290.92 210.85 290.78C210.756 290.684 210.678 290.572 210.62 290.451L208.73 286L207.18 286.891V292.47C207.176 292.669 207.129 292.863 207.04 293.041C206.97 293.199 206.86 293.337 206.72 293.44L204.5 294.71C204.457 294.752 204.4 294.775 204.34 294.775C204.28 294.775 204.223 294.752 204.18 294.71C204.13 294.654 204.093 294.587 204.07 294.514C204.048 294.442 204.041 294.366 204.05 294.291V277.44C204.05 277.243 204.094 277.048 204.18 276.87C204.246 276.709 204.357 276.57 204.5 276.47L209.09 273.83ZM207.18 282.83L209.09 281.731C209.557 281.456 209.957 281.08 210.26 280.63C210.593 280.098 210.757 279.478 210.73 278.85C210.73 278.12 210.57 277.71 210.26 277.61C210.058 277.571 209.849 277.574 209.648 277.619C209.447 277.663 209.257 277.749 209.09 277.87L207.18 279V282.83Z" fill="#404040"/>
<path d="M221.27 266.79C221.885 266.411 222.562 266.143 223.27 266C223.778 265.9 224.306 265.981 224.76 266.23C225.239 266.537 225.594 267.005 225.76 267.55C225.973 268.348 226.054 269.176 226 270C226.012 271.203 225.836 272.401 225.48 273.55C225.15 274.569 224.646 275.523 223.99 276.37L226.08 281.37C226.119 281.451 226.139 281.54 226.14 281.63C226.137 281.793 226.1 281.953 226.03 282.1C225.97 282.229 225.877 282.339 225.76 282.42L223.46 283.75C223.24 283.88 223.08 283.89 222.98 283.75C222.883 283.652 222.805 283.536 222.75 283.41L220.91 279L219.36 279.9V285.48C219.356 285.678 219.309 285.873 219.22 286.05C219.155 286.209 219.043 286.345 218.9 286.44L216.68 287.72C216.636 287.759 216.579 287.781 216.52 287.781C216.461 287.781 216.404 287.759 216.36 287.72C216.312 287.662 216.275 287.595 216.253 287.523C216.231 287.451 216.223 287.375 216.23 287.3V270.41C216.23 270.209 216.274 270.011 216.36 269.83C216.425 269.671 216.537 269.535 216.68 269.44L221.27 266.79ZM219.36 275.79L221.27 274.68C221.741 274.415 222.143 274.041 222.44 273.59C222.772 273.057 222.936 272.437 222.91 271.81C222.91 271.08 222.75 270.67 222.44 270.57C222.238 270.531 222.029 270.534 221.828 270.579C221.627 270.624 221.437 270.709 221.27 270.83L219.36 271.93V275.79Z" fill="#404040"/>
<path d="M228 269.69C228.033 268.679 228.17 267.673 228.41 266.69C228.641 265.711 228.976 264.758 229.41 263.85C229.851 262.97 230.398 262.147 231.04 261.4C231.667 260.668 232.414 260.049 233.25 259.57C233.908 259.143 234.667 258.898 235.45 258.86C236.045 258.845 236.624 259.048 237.08 259.43C237.557 259.875 237.903 260.442 238.08 261.07C238.337 261.883 238.475 262.728 238.49 263.58C238.49 264.31 238.49 265.09 238.49 265.9C238.49 266.71 238.49 267.49 238.49 268.22C238.458 269.232 238.32 270.237 238.08 271.22C237.852 272.204 237.517 273.16 237.08 274.07C236.644 274.953 236.096 275.777 235.45 276.52C234.823 277.245 234.079 277.86 233.25 278.34C232.588 278.769 231.827 279.02 231.04 279.07C230.445 279.085 229.866 278.883 229.41 278.5C228.94 278.041 228.596 277.47 228.41 276.84C228.153 276.028 228.015 275.182 228 274.33C228 273.63 228 272.87 228 272.06C228 271.25 228 270.45 228 269.69ZM235.43 269.91C235.43 269.59 235.43 269.24 235.43 268.85C235.43 268.46 235.43 268.07 235.43 267.67C235.43 267.27 235.43 266.89 235.43 266.52C235.43 266.15 235.43 265.83 235.43 265.52C235.409 265.148 235.349 264.779 235.25 264.42C235.176 264.15 235.035 263.902 234.84 263.7C234.662 263.538 234.431 263.446 234.19 263.44C233.865 263.456 233.55 263.559 233.28 263.74C232.931 263.937 232.619 264.194 232.36 264.5C232.101 264.804 231.882 265.14 231.71 265.5C231.534 265.881 231.399 266.28 231.31 266.69C231.209 267.117 231.149 267.552 231.13 267.99C231.13 268.3 231.13 268.64 231.13 268.99C231.13 269.34 231.13 269.76 231.13 270.16C231.13 270.56 231.13 270.95 231.13 271.32C231.13 271.69 231.13 272.04 231.13 272.32C231.11 272.978 231.315 273.624 231.71 274.15C232.06 274.52 232.58 274.51 233.28 274.1C233.976 273.704 234.521 273.088 234.83 272.35C235.175 271.578 235.384 270.753 235.45 269.91H235.43Z" fill="#404040"/>
<path d="M246 252.5C246.615 252.121 247.292 251.853 248 251.71C248.508 251.609 249.036 251.691 249.49 251.94C249.969 252.247 250.324 252.715 250.49 253.26C250.733 254.053 250.845 254.881 250.82 255.71C250.832 256.913 250.656 258.111 250.3 259.26C249.968 260.281 249.464 261.238 248.81 262.09L250.9 267.09C250.939 267.171 250.959 267.26 250.96 267.35C250.957 267.513 250.92 267.673 250.85 267.82C250.79 267.949 250.697 268.059 250.58 268.14L248.28 269.47C248.06 269.6 247.9 269.61 247.8 269.47C247.703 269.371 247.625 269.256 247.57 269.13L245.69 264.64L244.14 265.54V271.12C244.136 271.318 244.089 271.513 244 271.69C243.935 271.849 243.823 271.985 243.68 272.08L241.46 273.36C241.416 273.399 241.359 273.421 241.3 273.421C241.241 273.421 241.184 273.399 241.14 273.36C241.092 273.302 241.055 273.235 241.033 273.163C241.011 273.091 241.003 273.015 241.01 272.94V256.12C241.011 255.919 241.055 255.722 241.14 255.54C241.205 255.381 241.317 255.245 241.46 255.15L246 252.5ZM244.09 261.5L246 260.39C246.472 260.123 246.876 259.749 247.18 259.3C247.509 258.766 247.669 258.146 247.64 257.52C247.64 256.79 247.49 256.38 247.18 256.28C246.976 256.24 246.766 256.243 246.563 256.288C246.36 256.332 246.169 256.418 246 256.54L244.09 257.64V261.5Z" fill="#404040"/>
<path d="M170.71 321.231C171.71 320.631 172.57 320.541 173.15 320.971C173.73 321.401 174.02 322.331 174.02 323.801C174.049 325.136 173.751 326.458 173.15 327.651C172.602 328.725 171.755 329.618 170.71 330.221L168.64 331.411V335.871C168.636 336.02 168.598 336.167 168.53 336.301C168.483 336.426 168.4 336.534 168.29 336.61L167.29 337.211C167.256 337.243 167.212 337.261 167.165 337.261C167.118 337.261 167.074 337.243 167.04 337.211C167.003 337.169 166.974 337.12 166.957 337.066C166.94 337.013 166.934 336.956 166.94 336.901V324.001C166.939 323.848 166.974 323.698 167.04 323.561C167.093 323.439 167.18 323.334 167.29 323.261L170.71 321.231ZM168.64 328.921L170.64 327.761C171.164 327.475 171.595 327.046 171.882 326.523C172.169 326 172.3 325.406 172.26 324.811C172.26 324.061 172.11 323.631 171.82 323.511C171.616 323.464 171.405 323.464 171.201 323.509C170.997 323.554 170.806 323.643 170.64 323.771L168.64 324.931V328.921Z" fill="#E0E0E0"/>
<path d="M179.48 316.18C179.61 316.1 179.72 316.09 179.79 316.18C179.883 316.296 179.945 316.434 179.97 316.58L183.15 327.36C183.15 327.36 183.15 327.44 183.15 327.49C183.147 327.642 183.113 327.792 183.05 327.93C182.999 328.053 182.912 328.158 182.8 328.23L181.87 328.77C181.69 328.87 181.57 328.89 181.5 328.77C181.433 328.7 181.384 328.614 181.36 328.52L180.8 326.63L176.72 329L176.16 331.53C176.124 331.67 176.077 331.807 176.02 331.94C175.944 332.105 175.813 332.239 175.65 332.32L174.72 332.86C174.685 332.89 174.641 332.907 174.595 332.907C174.549 332.907 174.505 332.89 174.47 332.86C174.396 332.771 174.36 332.656 174.37 332.54C174.365 332.49 174.365 332.44 174.37 332.39L177.56 318C177.597 317.791 177.657 317.586 177.74 317.39C177.801 317.242 177.91 317.118 178.05 317.04L179.48 316.18ZM180.19 324.53L178.76 319.66L177.34 326.17L180.19 324.53Z" fill="#E0E0E0"/>
<path d="M184.16 318.64C184.171 317.849 184.265 317.061 184.44 316.29C184.611 315.555 184.863 314.84 185.19 314.16C185.516 313.509 185.926 312.904 186.41 312.36C186.896 311.822 187.463 311.364 188.09 311C188.643 310.63 189.286 310.416 189.95 310.38C190.371 310.377 190.781 310.518 191.11 310.78C191.409 311.045 191.621 311.393 191.72 311.78C191.83 312.103 191.897 312.439 191.92 312.78C191.931 312.935 191.9 313.091 191.83 313.23C191.774 313.35 191.683 313.451 191.57 313.52L190.57 314.13C190.48 314.18 190.4 314.19 190.35 314.13C190.291 314.091 190.246 314.035 190.22 313.97C190.182 313.877 190.139 313.787 190.09 313.7C190.006 313.552 189.885 313.428 189.74 313.34C189.548 313.232 189.33 313.18 189.11 313.19C188.754 313.211 188.409 313.325 188.11 313.52C187.433 313.924 186.89 314.519 186.55 315.23C186.153 316.011 185.941 316.874 185.93 317.75C185.93 318.27 185.93 318.82 185.93 319.39C185.93 319.96 185.93 320.51 185.93 321C185.93 322.09 186.16 322.78 186.55 323C186.796 323.132 187.075 323.188 187.353 323.162C187.63 323.135 187.894 323.026 188.11 322.85C188.429 322.662 188.724 322.437 188.99 322.18C189.266 321.91 189.499 321.6 189.68 321.26C189.891 320.882 190.043 320.474 190.13 320.05C190.248 319.545 190.305 319.028 190.3 318.51V318.35L188.71 319.27C188.676 319.298 188.634 319.313 188.59 319.313C188.546 319.313 188.504 319.298 188.47 319.27C188.432 319.226 188.404 319.175 188.387 319.12C188.37 319.065 188.364 319.007 188.37 318.95V317.53C188.369 317.378 188.404 317.227 188.47 317.09C188.523 316.971 188.606 316.868 188.71 316.79L191.71 315.07C191.742 315.038 191.785 315.02 191.83 315.02C191.875 315.02 191.918 315.038 191.95 315.07C191.99 315.112 192.021 315.163 192.04 315.218C192.059 315.273 192.066 315.332 192.06 315.39V317.58C192.058 318.37 191.974 319.157 191.81 319.93C191.656 320.678 191.407 321.404 191.07 322.09C190.745 322.759 190.331 323.381 189.84 323.94C189.347 324.5 188.766 324.976 188.12 325.35C187.602 325.68 187.012 325.883 186.4 325.94C186.181 325.953 185.962 325.921 185.756 325.847C185.55 325.773 185.361 325.659 185.2 325.51C184.84 325.153 184.587 324.703 184.47 324.21C184.288 323.559 184.194 322.886 184.19 322.21C184.19 321.96 184.19 321.68 184.19 321.38C184.19 321.08 184.19 320.76 184.19 320.44C184.19 320.12 184.19 319.81 184.19 319.5C184.19 319.19 184.15 318.9 184.16 318.64Z" fill="#E0E0E0"/>
<path d="M200 315.79C200.034 315.758 200.078 315.74 200.125 315.74C200.172 315.74 200.217 315.758 200.25 315.79C200.29 315.833 200.321 315.883 200.34 315.938C200.359 315.993 200.366 316.052 200.36 316.11V317.52C200.358 317.673 200.32 317.824 200.25 317.96C200.203 318.086 200.115 318.191 200 318.26L194.31 321.55C194.277 321.58 194.234 321.596 194.19 321.596C194.146 321.596 194.103 321.58 194.07 321.55C194.03 321.508 193.999 321.457 193.981 321.402C193.962 321.347 193.955 321.288 193.96 321.23V308.34C193.963 308.187 194 308.036 194.07 307.9C194.117 307.778 194.201 307.673 194.31 307.6L199.9 304.37C199.935 304.34 199.979 304.323 200.025 304.323C200.071 304.323 200.115 304.34 200.15 304.37C200.188 304.414 200.216 304.465 200.233 304.52C200.251 304.575 200.256 304.633 200.25 304.69V306.11C200.249 306.259 200.215 306.406 200.15 306.54C200.1 306.666 200.013 306.775 199.9 306.85L195.71 309.26V312.44L199.62 310.18C199.654 310.153 199.696 310.137 199.74 310.137C199.784 310.137 199.826 310.153 199.86 310.18C199.899 310.223 199.929 310.274 199.948 310.329C199.967 310.384 199.974 310.442 199.97 310.5V312C199.968 312.153 199.93 312.304 199.86 312.44C199.807 312.559 199.724 312.662 199.62 312.74L195.73 315V318.32L200 315.79Z" fill="#E0E0E0"/>
<path d="M211.47 311.67C211.32 311.76 211.21 311.76 211.14 311.67L210.97 311.49L207.34 305.28V313.5C207.338 313.653 207.3 313.804 207.23 313.94C207.183 314.063 207.099 314.168 206.99 314.24L205.94 314.85C205.906 314.883 205.862 314.901 205.815 314.901C205.768 314.901 205.724 314.883 205.69 314.85C205.652 314.807 205.623 314.756 205.606 314.701C205.589 314.646 205.583 314.587 205.59 314.53V301.64C205.589 301.488 205.624 301.337 205.69 301.2C205.737 301.075 205.825 300.969 205.94 300.9L206.84 300.37C206.99 300.29 207.1 300.28 207.18 300.37C207.242 300.424 207.299 300.485 207.35 300.55L210.98 306.76V298.54C210.979 298.388 211.014 298.237 211.08 298.1C211.131 297.977 211.218 297.872 211.33 297.8L212.33 297.19C212.364 297.158 212.408 297.14 212.455 297.14C212.502 297.14 212.546 297.158 212.58 297.19C212.653 297.28 212.689 297.395 212.68 297.51V310.4C212.675 310.552 212.641 310.701 212.58 310.84C212.529 310.963 212.442 311.068 212.33 311.14L211.47 311.67Z" fill="#E0E0E0"/>
<path d="M214.77 301C214.791 300.237 214.881 299.477 215.04 298.73C215.197 297.999 215.435 297.288 215.75 296.61C216.054 295.95 216.448 295.334 216.92 294.78C217.385 294.22 217.947 293.749 218.58 293.39C219.07 293.072 219.636 292.889 220.22 292.86C220.437 292.859 220.652 292.901 220.853 292.983C221.054 293.065 221.237 293.187 221.39 293.34C221.733 293.71 221.977 294.161 222.1 294.65C222.278 295.286 222.376 295.941 222.39 296.6C222.39 296.85 222.39 297.12 222.39 297.43V299.32C222.39 299.63 222.39 299.91 222.39 300.17C222.362 300.934 222.268 301.693 222.11 302.44C221.955 303.172 221.717 303.883 221.4 304.56C221.096 305.221 220.702 305.837 220.23 306.39C219.764 306.939 219.205 307.403 218.58 307.76C218.085 308.085 217.512 308.271 216.92 308.3C216.484 308.303 216.064 308.134 215.75 307.83C215.407 307.46 215.163 307.01 215.04 306.52C214.871 305.884 214.78 305.229 214.77 304.57C214.77 304.33 214.77 304.05 214.77 303.75C214.77 303.45 214.77 303.13 214.77 302.8C214.77 302.47 214.77 302.16 214.77 301.85C214.77 301.54 214.76 301.27 214.77 301ZM220.64 297.71C220.691 297.03 220.476 296.356 220.04 295.83C219.824 295.678 219.565 295.601 219.302 295.61C219.038 295.619 218.785 295.714 218.58 295.88C217.94 296.269 217.432 296.84 217.12 297.52C216.732 298.322 216.527 299.2 216.52 300.09C216.52 300.61 216.52 301.17 216.52 301.79C216.52 302.41 216.52 302.97 216.52 303.46C216.489 303.796 216.526 304.135 216.629 304.457C216.732 304.778 216.899 305.075 217.12 305.33C217.49 305.64 217.97 305.62 218.58 305.27C219.215 304.885 219.722 304.321 220.04 303.65C220.418 302.845 220.622 301.97 220.64 301.08C220.64 300.57 220.64 300 220.64 299.38C220.64 298.76 220.65 298.22 220.64 297.72V297.71Z" fill="#E0E0E0"/>
<path d="M230.28 286.84C230.315 286.81 230.359 286.793 230.405 286.793C230.451 286.793 230.495 286.81 230.53 286.84C230.568 286.883 230.596 286.934 230.613 286.989C230.631 287.045 230.636 287.103 230.63 287.16V288.58C230.631 288.732 230.596 288.883 230.53 289.02C230.477 289.142 230.391 289.246 230.28 289.32L228 290.68V301.62C227.997 301.772 227.963 301.921 227.9 302.06C227.849 302.183 227.762 302.288 227.65 302.36L226.65 302.97C226.615 303 226.571 303.017 226.525 303.017C226.479 303.017 226.435 303 226.4 302.97C226.362 302.927 226.333 302.876 226.316 302.821C226.299 302.765 226.293 302.707 226.3 302.65V291.7L223.87 293C223.836 293.032 223.792 293.05 223.745 293.05C223.698 293.05 223.654 293.032 223.62 293C223.583 292.958 223.554 292.909 223.537 292.856C223.52 292.802 223.514 292.746 223.52 292.69V291.27C223.519 291.117 223.554 290.967 223.62 290.83C223.667 290.704 223.755 290.599 223.87 290.53L230.28 286.84Z" fill="#E0E0E0"/>
<path d="M241.1 280.601C241.133 280.571 241.176 280.555 241.22 280.555C241.264 280.555 241.307 280.571 241.34 280.601C241.38 280.643 241.411 280.693 241.43 280.749C241.449 280.804 241.456 280.862 241.45 280.921V282.331C241.448 282.484 241.41 282.634 241.34 282.771C241.293 282.893 241.209 282.998 241.1 283.071L237 285.481V289.351L240.88 287.121C240.913 287.091 240.956 287.075 241 287.075C241.044 287.075 241.087 287.091 241.12 287.121C241.159 287.164 241.188 287.215 241.207 287.27C241.226 287.324 241.234 287.383 241.23 287.441V288.861C241.228 289.014 241.19 289.164 241.12 289.301C241.073 289.423 240.989 289.528 240.88 289.601L237 291.851V296.421C237.001 296.573 236.966 296.723 236.9 296.861C236.853 296.986 236.765 297.092 236.65 297.161L235.6 297.771C235.565 297.801 235.521 297.817 235.475 297.817C235.429 297.817 235.385 297.801 235.35 297.771C235.312 297.727 235.284 297.676 235.267 297.621C235.25 297.566 235.244 297.508 235.25 297.451V284.541C235.249 284.388 235.284 284.238 235.35 284.101C235.397 283.975 235.485 283.869 235.6 283.801L241.1 280.601Z" fill="#E0E0E0"/>
<path d="M242.86 284.79C242.884 284.027 242.978 283.267 243.14 282.52C243.292 281.789 243.526 281.078 243.84 280.4C244.148 279.742 244.541 279.126 245.01 278.57C245.477 278.013 246.039 277.542 246.67 277.18C247.163 276.861 247.733 276.678 248.32 276.65C248.536 276.65 248.749 276.692 248.948 276.774C249.147 276.857 249.328 276.978 249.48 277.13C249.822 277.503 250.069 277.952 250.2 278.44C250.375 279.076 250.469 279.731 250.48 280.39C250.48 280.64 250.48 280.91 250.48 281.22C250.48 281.53 250.48 281.84 250.48 282.16C250.48 282.48 250.48 282.8 250.48 283.11C250.48 283.42 250.48 283.71 250.48 283.96C250.456 284.724 250.363 285.484 250.2 286.23C250.048 286.962 249.814 287.673 249.5 288.35C249.192 289.011 248.795 289.627 248.32 290.18C247.854 290.729 247.295 291.193 246.67 291.55C246.175 291.876 245.602 292.063 245.01 292.09C244.574 292.091 244.155 291.922 243.84 291.62C243.498 291.251 243.257 290.8 243.14 290.31C242.967 289.674 242.873 289.019 242.86 288.36C242.86 288.12 242.86 287.84 242.86 287.54C242.86 287.24 242.86 286.92 242.86 286.54C242.86 286.16 242.86 285.9 242.86 285.59C242.86 285.28 242.85 285.05 242.86 284.79ZM248.73 281.5C248.76 281.163 248.722 280.823 248.619 280.5C248.516 280.177 248.35 279.878 248.13 279.62C247.76 279.31 247.27 279.33 246.67 279.68C246.033 280.067 245.525 280.635 245.21 281.31C244.822 282.112 244.617 282.99 244.61 283.88C244.61 284.4 244.61 284.96 244.61 285.58C244.61 286.2 244.61 286.76 244.61 287.25C244.579 287.586 244.616 287.925 244.719 288.247C244.822 288.568 244.989 288.865 245.21 289.12C245.58 289.43 246.07 289.41 246.67 289.06C247.305 288.675 247.812 288.111 248.13 287.44C248.518 286.639 248.723 285.761 248.73 284.87C248.73 284.36 248.73 283.79 248.73 283.17C248.73 282.55 248.75 282 248.73 281.5Z" fill="#E0E0E0"/>
<path d="M259.53 270C259.565 269.97 259.609 269.953 259.655 269.953C259.701 269.953 259.745 269.97 259.78 270C259.854 270.089 259.89 270.204 259.88 270.32V278.51C259.881 279.306 259.804 280.099 259.65 280.88C259.515 281.609 259.296 282.32 259 283C258.698 283.647 258.304 284.246 257.83 284.78C257.366 285.305 256.818 285.751 256.21 286.1C255.723 286.42 255.161 286.609 254.58 286.65C254.368 286.659 254.156 286.626 253.957 286.552C253.757 286.479 253.575 286.366 253.42 286.22C253.073 285.852 252.834 285.395 252.73 284.9C252.566 284.212 252.489 283.507 252.5 282.8V274.61C252.505 274.457 252.542 274.307 252.61 274.17C252.66 274.049 252.743 273.945 252.85 273.87L253.85 273.26C253.885 273.23 253.929 273.213 253.975 273.213C254.021 273.213 254.065 273.23 254.1 273.26C254.174 273.349 254.21 273.464 254.2 273.58V281.66C254.187 282.105 254.238 282.549 254.35 282.98C254.407 283.255 254.547 283.506 254.75 283.7C254.836 283.77 254.935 283.822 255.042 283.853C255.148 283.884 255.26 283.893 255.37 283.88C255.649 283.834 255.917 283.735 256.16 283.59C256.777 283.232 257.274 282.699 257.59 282.06C257.773 281.682 257.907 281.282 257.99 280.87C258.095 280.384 258.145 279.887 258.14 279.39V271.3C258.143 271.147 258.18 270.996 258.25 270.86C258.3 270.737 258.383 270.63 258.49 270.55L259.53 270Z" fill="#E0E0E0"/>
<path d="M268.05 279C267.9 279.08 267.79 279.09 267.71 279C267.648 278.946 267.591 278.886 267.54 278.82L263.91 272.62V280.84C263.911 280.993 263.876 281.143 263.81 281.28C263.76 281.404 263.673 281.509 263.56 281.58L262.51 282.19C262.477 282.22 262.434 282.236 262.39 282.236C262.346 282.236 262.303 282.22 262.27 282.19C262.231 282.147 262.201 282.097 262.182 282.042C262.163 281.987 262.156 281.928 262.16 281.87V269C262.164 268.851 262.202 268.704 262.27 268.57C262.32 268.447 262.403 268.34 262.51 268.26L263.42 267.74C263.57 267.66 263.68 267.65 263.76 267.74L263.93 267.921L267.56 274.12V265.9C267.559 265.748 267.594 265.598 267.66 265.46C267.713 265.342 267.796 265.238 267.9 265.16L268.96 264.55C268.994 264.523 269.036 264.508 269.08 264.508C269.124 264.508 269.166 264.523 269.2 264.55C269.239 264.594 269.268 264.645 269.287 264.699C269.306 264.754 269.314 264.813 269.31 264.87V277.76C269.308 277.914 269.27 278.064 269.2 278.201C269.15 278.324 269.067 278.431 268.96 278.51L268.05 279Z" fill="#E0E0E0"/>
<path d="M275.2 260.91C275.703 260.588 276.275 260.389 276.87 260.33C277.086 260.319 277.301 260.351 277.504 260.425C277.707 260.499 277.892 260.613 278.05 260.76C278.403 261.128 278.652 261.584 278.77 262.08C278.959 262.765 279.063 263.47 279.08 264.18C279.08 265.18 279.08 266.13 279.08 267.13C279.051 267.955 278.948 268.775 278.77 269.58C278.621 270.323 278.383 271.045 278.06 271.73C277.756 272.374 277.366 272.973 276.9 273.51C276.432 274.039 275.881 274.488 275.27 274.84L272 276.73C271.967 276.76 271.924 276.776 271.88 276.776C271.836 276.776 271.793 276.76 271.76 276.73C271.721 276.687 271.691 276.637 271.672 276.582C271.653 276.527 271.646 276.468 271.65 276.41V263.5C271.653 263.347 271.69 263.197 271.76 263.06C271.804 262.936 271.888 262.83 272 262.76L275.2 260.91ZM277.33 265.19C277.318 264.819 277.265 264.45 277.17 264.09C277.099 263.821 276.962 263.573 276.77 263.37C276.682 263.285 276.577 263.218 276.461 263.175C276.346 263.132 276.223 263.114 276.1 263.12C275.744 263.133 275.397 263.243 275.1 263.44L273.36 264.44V273.44L275.16 272.44C275.511 272.247 275.823 271.989 276.08 271.68C276.343 271.38 276.562 271.043 276.73 270.68C276.908 270.3 277.042 269.901 277.13 269.49C277.219 269.066 277.273 268.634 277.29 268.2C277.36 267.14 277.36 266.15 277.33 265.19Z" fill="#E0E0E0"/>
<path d="M421.33 48.7102L371.12 77.7102C370.742 77.9544 370.427 78.2846 370.201 78.674C369.975 79.0633 369.844 79.5007 369.82 79.9502V144.15C369.844 144.599 369.974 145.035 370.2 145.423C370.426 145.811 370.741 146.139 371.12 146.38L375.76 148.98C376.162 149.182 376.605 149.288 377.055 149.288C377.505 149.288 377.948 149.182 378.35 148.98L428.57 119.98C428.944 119.733 429.256 119.401 429.479 119.012C429.703 118.624 429.834 118.188 429.86 117.74V53.5202C429.837 53.0732 429.706 52.6383 429.48 52.252C429.254 51.8658 428.938 51.5394 428.56 51.3002L423.93 48.7002C423.526 48.4994 423.08 48.3957 422.629 48.3975C422.178 48.3992 421.733 48.5063 421.33 48.7102Z" fill="#CB93F6"/>
<path d="M377.06 148.22V84.0001C377.084 83.5517 377.213 83.1152 377.438 82.726C377.662 82.3369 377.974 82.006 378.35 81.7601L428.57 52.7601C429.28 52.3501 429.86 52.6801 429.86 53.5001V117.71C429.834 118.158 429.703 118.594 429.479 118.982C429.256 119.371 428.944 119.702 428.57 119.95L378.35 148.95C377.63 149.38 377.06 149 377.06 148.22Z" fill="#CB93F6"/>
<path opacity="0.2" d="M378.35 149C377.944 149.195 377.5 149.296 377.05 149.296C376.6 149.296 376.156 149.195 375.75 149L371.12 146.4C370.743 146.159 370.429 145.832 370.203 145.446C369.977 145.061 369.846 144.627 369.82 144.18V80.0002C369.839 79.5319 369.98 79.0768 370.23 78.6802L377.44 82.7902C377.204 83.1728 377.073 83.6108 377.06 84.0602V148.26C377.06 149 377.59 149.41 378.35 149Z" fill="black"/>
<path opacity="0.4" d="M429.84 53.29C429.74 52.64 429.21 52.41 428.57 52.78L378.35 81.78C377.966 82.0293 377.652 82.3738 377.44 82.78L370.23 78.67C370.443 78.2923 370.75 77.9756 371.12 77.75L421.34 48.75C421.742 48.5477 422.185 48.4424 422.635 48.4424C423.085 48.4424 423.528 48.5477 423.93 48.75L428.56 51.34C428.898 51.5568 429.187 51.8425 429.408 52.1785C429.628 52.5145 429.776 52.8932 429.84 53.29Z" fill="white"/>
<path d="M369.82 99.3003L359.42 109.88C359.299 110.001 359.206 110.147 359.149 110.308C359.092 110.469 359.072 110.641 359.09 110.811C359.108 110.981 359.164 111.145 359.254 111.29C359.344 111.435 359.466 111.558 359.61 111.65C359.83 111.79 366.81 115.8 366.81 115.8L377.06 103.47L369.82 99.3003Z" fill="#CB93F6"/>
<path opacity="0.1" d="M369.82 99.3003L359.42 109.88C359.299 110.001 359.206 110.147 359.149 110.308C359.092 110.469 359.072 110.641 359.09 110.811C359.108 110.981 359.164 111.145 359.254 111.29C359.344 111.435 359.466 111.558 359.61 111.65C359.83 111.79 366.81 115.8 366.81 115.8L377.06 103.47L369.82 99.3003Z" fill="black"/>
<path d="M377.06 103.47L366.65 114.05C366.481 114.223 366.371 114.444 366.335 114.683C366.299 114.922 366.34 115.166 366.45 115.381C366.561 115.596 366.736 115.77 366.952 115.879C367.167 115.989 367.411 116.028 367.65 115.99L377.08 114.63C378.07 114.63 378.07 103.47 377.06 103.47Z" fill="#CB93F6"/>
<path d="M395 101C394.743 100.999 394.495 100.899 394.31 100.72L386.85 93.5399C386.744 93.4523 386.657 93.3438 386.595 93.2211C386.532 93.0985 386.496 92.9642 386.488 92.8269C386.48 92.6896 386.501 92.5521 386.548 92.423C386.596 92.2939 386.669 92.176 386.764 92.0766C386.86 91.9773 386.974 91.8987 387.101 91.8457C387.228 91.7927 387.365 91.7665 387.502 91.7687C387.64 91.7709 387.775 91.8014 387.901 91.8584C388.026 91.9154 388.138 91.9976 388.23 92.0999L395.7 99.2799C395.794 99.3728 395.868 99.4834 395.919 99.6053C395.97 99.7271 395.996 99.8579 395.996 99.9899C395.996 100.122 395.97 100.253 395.919 100.374C395.868 100.496 395.794 100.607 395.7 100.7C395.515 100.888 395.264 100.996 395 101Z" fill="#404040"/>
<path d="M387.54 105.34C387.392 105.339 387.246 105.309 387.11 105.25C386.872 105.136 386.689 104.931 386.601 104.682C386.513 104.433 386.527 104.159 386.64 103.92L394.1 88.1202C394.213 87.8802 394.416 87.6948 394.666 87.6048C394.915 87.5148 395.19 87.5275 395.43 87.6402C395.67 87.7529 395.855 87.9564 395.945 88.2058C396.035 88.4552 396.023 88.7302 395.91 88.9702L388.45 104.77C388.368 104.942 388.239 105.087 388.078 105.188C387.917 105.289 387.73 105.342 387.54 105.34Z" fill="#404040"/>
<path d="M419.38 86.9998C419.119 87.0014 418.868 86.9009 418.68 86.7198L411.22 79.5398C411.034 79.3524 410.929 79.099 410.929 78.8348C410.929 78.5706 411.034 78.3171 411.22 78.1298C411.313 78.0361 411.424 77.9617 411.545 77.9109C411.667 77.8601 411.798 77.834 411.93 77.834C412.062 77.834 412.193 77.8601 412.315 77.9109C412.436 77.9617 412.547 78.0361 412.64 78.1298L420.1 85.3098C420.243 85.4479 420.342 85.6256 420.384 85.8202C420.426 86.0148 420.408 86.2174 420.334 86.4021C420.26 86.5868 420.133 86.7452 419.968 86.857C419.803 86.9688 419.609 87.029 419.41 87.0298L419.38 86.9998Z" fill="#404040"/>
<path d="M411.91 91.2699C411.765 91.2707 411.622 91.24 411.49 91.1799C411.37 91.1242 411.262 91.0451 411.173 90.9473C411.084 90.8495 411.015 90.7349 410.97 90.6103C410.925 90.4856 410.906 90.3533 410.913 90.2211C410.92 90.0889 410.953 89.9593 411.01 89.8399L418.47 74.0499C418.524 73.9286 418.602 73.8193 418.699 73.7284C418.796 73.6375 418.91 73.5669 419.035 73.5206C419.159 73.4743 419.292 73.4533 419.425 73.4589C419.557 73.4644 419.688 73.4964 419.808 73.5529C419.928 73.6093 420.036 73.6892 420.125 73.7879C420.214 73.8865 420.283 74.0019 420.327 74.1274C420.371 74.2528 420.389 74.3857 420.381 74.5184C420.373 74.651 420.339 74.7807 420.28 74.8999L412.82 90.6999C412.738 90.8717 412.609 91.0165 412.448 91.1174C412.287 91.2184 412.1 91.2713 411.91 91.2699Z" fill="#404040"/>
<path d="M387.21 123.24C387.034 123.241 386.861 123.195 386.708 123.107C386.555 123.019 386.428 122.893 386.34 122.74C386.21 122.51 386.175 122.239 386.245 121.984C386.314 121.729 386.481 121.512 386.71 121.38L419.21 102.61C419.441 102.477 419.715 102.442 419.972 102.511C420.229 102.581 420.447 102.749 420.58 102.98C420.713 103.211 420.748 103.485 420.679 103.742C420.609 103.999 420.441 104.217 420.21 104.35L387.71 123.11C387.558 123.196 387.385 123.241 387.21 123.24Z" fill="#404040"/>
<path d="M409.86 123.77C409.313 123.772 408.775 123.631 408.3 123.36C407.698 122.944 407.216 122.376 406.904 121.714C406.591 121.052 406.459 120.319 406.52 119.59V110.52C406.52 110.255 406.625 110 406.813 109.813C407 109.625 407.255 109.52 407.52 109.52C407.785 109.52 408.04 109.625 408.227 109.813C408.415 110 408.52 110.255 408.52 110.52V119.59C408.478 119.962 408.526 120.338 408.662 120.687C408.798 121.035 409.017 121.345 409.3 121.59C409.593 121.705 409.911 121.742 410.223 121.699C410.535 121.655 410.83 121.531 411.08 121.34C412.132 120.606 413 119.64 413.617 118.516C414.235 117.392 414.585 116.141 414.64 114.86V105.79C414.64 105.525 414.745 105.27 414.933 105.083C415.12 104.895 415.375 104.79 415.64 104.79C415.905 104.79 416.16 104.895 416.347 105.083C416.535 105.27 416.64 105.525 416.64 105.79V114.86C416.588 116.493 416.148 118.089 415.355 119.517C414.561 120.945 413.439 122.163 412.08 123.07C411.415 123.495 410.649 123.736 409.86 123.77Z" fill="#404040"/>
<path d="M411.58 117.93C411.315 117.93 411.06 117.825 410.873 117.637C410.685 117.449 410.58 117.195 410.58 116.93V108.17C410.58 107.905 410.685 107.65 410.873 107.463C411.06 107.275 411.315 107.17 411.58 107.17C411.845 107.17 412.1 107.275 412.287 107.463C412.475 107.65 412.58 107.905 412.58 108.17V116.93C412.58 117.195 412.475 117.449 412.287 117.637C412.1 117.825 411.845 117.93 411.58 117.93Z" fill="#404040"/>
</svg>
