<svg width="18" height="18" viewBox="0 0 18 18" fill="none" xmlns="http://www.w3.org/2000/svg">
<path d="M8.16669 8.16675V4.83342H9.83335V8.16675H13.1667V9.83342H9.83335V13.1667H8.16669V9.83342H4.83335V8.16675H8.16669ZM9.00002 17.3334C4.39752 17.3334 0.666687 13.6026 0.666687 9.00008C0.666687 4.39758 4.39752 0.666748 9.00002 0.666748C13.6025 0.666748 17.3334 4.39758 17.3334 9.00008C17.3334 13.6026 13.6025 17.3334 9.00002 17.3334ZM9.00002 15.6667C10.7681 15.6667 12.4638 14.9644 13.7141 13.7141C14.9643 12.4639 15.6667 10.7682 15.6667 9.00008C15.6667 7.23197 14.9643 5.53628 13.7141 4.28604C12.4638 3.03579 10.7681 2.33341 9.00002 2.33341C7.23191 2.33341 5.53622 3.03579 4.28598 4.28604C3.03573 5.53628 2.33335 7.23197 2.33335 9.00008C2.33335 10.7682 3.03573 12.4639 4.28598 13.7141C5.53622 14.9644 7.23191 15.6667 9.00002 15.6667Z" fill="white"/>
</svg>
