<svg width="24" height="24" viewBox="0 0 24 24" fill="none" xmlns="http://www.w3.org/2000/svg">
<path d="M1.89668 17.8334C1.40349 16.9805 1.02012 16.0687 0.755676 15.1197C1.3312 14.827 1.81454 14.3808 2.15221 13.8304C2.48988 13.2801 2.66874 12.647 2.66898 12.0013C2.66922 11.3556 2.49084 10.7225 2.15358 10.1719C1.81632 9.62127 1.33332 9.17469 0.75801 8.88154C1.28538 6.97461 2.28953 5.23331 3.67584 3.8217C4.21729 4.17372 4.84557 4.36906 5.49115 4.38611C6.13674 4.40317 6.77445 4.24127 7.33373 3.91834C7.893 3.59541 8.35202 3.12404 8.65999 2.55638C8.96796 1.98873 9.11287 1.34694 9.07868 0.702038C10.9945 0.20693 13.0048 0.207733 14.9202 0.704371C14.8863 1.34926 15.0315 1.99096 15.3397 2.55845C15.6479 3.12594 16.1071 3.59709 16.6665 3.91978C17.2259 4.24246 17.8636 4.40409 18.5092 4.38678C19.1547 4.36947 19.7829 4.1739 20.3242 3.8217C20.9997 4.51004 21.5993 5.29287 22.1033 6.1667C22.6085 7.04054 22.9865 7.9517 23.2443 8.88037C22.6688 9.17309 22.1855 9.61931 21.8478 10.1697C21.5101 10.72 21.3313 11.3531 21.331 11.9987C21.3308 12.6444 21.5092 13.2776 21.8464 13.8282C22.1837 14.3788 22.6667 14.8254 23.242 15.1185C22.7146 17.0255 21.7105 18.7668 20.3242 20.1784C19.7827 19.8264 19.1545 19.631 18.5089 19.614C17.8633 19.5969 17.2256 19.7588 16.6663 20.0817C16.107 20.4047 15.648 20.876 15.34 21.4437C15.0321 22.0113 14.8872 22.6531 14.9213 23.298C13.0055 23.7931 10.9952 23.7923 9.07984 23.2957C9.11373 22.6508 8.96854 22.0091 8.66033 21.4416C8.35213 20.8741 7.89293 20.403 7.33354 20.0803C6.77416 19.7576 6.13641 19.596 5.49086 19.6133C4.84531 19.6306 4.21713 19.8262 3.67584 20.1784C2.98633 19.4748 2.38854 18.6869 1.89668 17.8334ZM8.50001 18.062C9.74324 18.7791 10.678 19.9299 11.125 21.2937C11.7072 21.3485 12.2917 21.3497 12.8738 21.2949C13.3211 19.9309 14.2563 18.7801 15.5 18.0632C16.7428 17.3442 18.2073 17.1094 19.6125 17.404C19.9508 16.928 20.2425 16.4205 20.4852 15.8897C19.5278 14.8204 18.999 13.4353 19 12C19 10.53 19.5483 9.15687 20.4852 8.11037C20.2408 7.57971 19.9479 7.07278 19.6102 6.59604C18.2058 6.8904 16.7423 6.65609 15.5 5.93804C14.2568 5.22097 13.322 4.07018 12.875 2.70637C12.2928 2.65154 11.7083 2.65037 11.1262 2.7052C10.6789 4.06921 9.74368 5.22002 8.50001 5.93687C7.25726 6.6559 5.79273 6.89064 4.38751 6.59604C4.04984 7.07237 3.75766 7.57938 3.51484 8.11037C4.47218 9.17969 5.00104 10.5648 5.00001 12C5.00001 13.47 4.45168 14.8432 3.51484 15.8897C3.75923 16.4204 4.05214 16.9273 4.38984 17.404C5.79418 17.1097 7.25775 17.344 8.50001 18.062ZM12 15.5C11.0718 15.5 10.1815 15.1313 9.52514 14.4749C8.86876 13.8185 8.50001 12.9283 8.50001 12C8.50001 11.0718 8.86876 10.1815 9.52514 9.52516C10.1815 8.86879 11.0718 8.50004 12 8.50004C12.9283 8.50004 13.8185 8.86879 14.4749 9.52516C15.1313 10.1815 15.5 11.0718 15.5 12C15.5 12.9283 15.1313 13.8185 14.4749 14.4749C13.8185 15.1313 12.9283 15.5 12 15.5ZM12 13.1667C12.3094 13.1667 12.6062 13.0438 12.825 12.825C13.0438 12.6062 13.1667 12.3095 13.1667 12C13.1667 11.6906 13.0438 11.3939 12.825 11.1751C12.6062 10.9563 12.3094 10.8334 12 10.8334C11.6906 10.8334 11.3938 10.9563 11.1751 11.1751C10.9563 11.3939 10.8333 11.6906 10.8333 12C10.8333 12.3095 10.9563 12.6062 11.1751 12.825C11.3938 13.0438 11.6906 13.1667 12 13.1667Z" fill="#B8B8B8"/>
</svg>
