<svg width="22" height="30" viewBox="0 0 22 30" fill="none" xmlns="http://www.w3.org/2000/svg">
<path d="M17.6673 19.3267V28.4893C17.6673 28.6073 17.6361 28.7231 17.5767 28.825C17.5173 28.927 17.432 29.0113 17.3293 29.0695C17.2267 29.1276 17.1105 29.1575 16.9926 29.1561C16.8746 29.1546 16.7592 29.122 16.658 29.0613L11.0007 25.6667L5.34332 29.0613C5.24204 29.122 5.12646 29.1547 5.0084 29.1561C4.89034 29.1575 4.77404 29.1275 4.67138 29.0691C4.56871 29.0108 4.48338 28.9263 4.4241 28.8242C4.36482 28.7221 4.33372 28.6061 4.33398 28.488V19.328C2.60885 17.9468 1.35531 16.0638 0.746596 13.9394C0.137885 11.8149 0.204059 9.55384 0.935973 7.46862C1.66789 5.38339 3.0294 3.57698 4.83236 2.29902C6.63532 1.02107 8.79071 0.334656 11.0007 0.334656C13.2106 0.334656 15.366 1.02107 17.1689 2.29902C18.9719 3.57698 20.3334 5.38339 21.0653 7.46862C21.7972 9.55384 21.8634 11.8149 21.2547 13.9394C20.646 16.0638 19.3925 17.9468 17.6673 19.328V19.3267ZM11.0007 19C13.1224 19 15.1572 18.1571 16.6575 16.6568C18.1578 15.1565 19.0007 13.1217 19.0007 11C19.0007 8.87825 18.1578 6.84342 16.6575 5.34313C15.1572 3.84284 13.1224 2.99999 11.0007 2.99999C8.87892 2.99999 6.84409 3.84284 5.3438 5.34313C3.84351 6.84342 3.00065 8.87825 3.00065 11C3.00065 13.1217 3.84351 15.1565 5.3438 16.6568C6.84409 18.1571 8.87892 19 11.0007 19ZM11.0007 16.3333C9.58616 16.3333 8.22961 15.7714 7.22942 14.7712C6.22922 13.771 5.66732 12.4145 5.66732 11C5.66732 9.5855 6.22922 8.22894 7.22942 7.22875C8.22961 6.22856 9.58616 5.66665 11.0007 5.66665C12.4151 5.66665 13.7717 6.22856 14.7719 7.22875C15.7721 8.22894 16.334 9.5855 16.334 11C16.334 12.4145 15.7721 13.771 14.7719 14.7712C13.7717 15.7714 12.4151 16.3333 11.0007 16.3333Z" fill="#E5C104"/>
</svg>
