<svg width="21" height="22" viewBox="0 0 21 22" fill="none" xmlns="http://www.w3.org/2000/svg">
<g clip-path="url(#clip0_1701_3929)">
<path d="M15.7771 15.0399L19.5247 18.7866L18.2866 20.0247L14.5399 16.2771C13.1458 17.3947 11.4118 18.0025 9.625 18C5.278 18 1.75 14.472 1.75 10.125C1.75 5.778 5.278 2.25 9.625 2.25C13.972 2.25 17.5 5.778 17.5 10.125C17.5025 11.9118 16.8947 13.6458 15.7771 15.0399ZM14.0219 14.3906C15.1323 13.2486 15.7525 11.7179 15.75 10.125C15.75 6.7405 13.0086 4 9.625 4C6.2405 4 3.5 6.7405 3.5 10.125C3.5 13.5086 6.2405 16.25 9.625 16.25C11.2179 16.2525 12.7486 15.6323 13.8906 14.5219L14.0219 14.3906Z" fill="#686868"/>
</g>
<defs>
<clipPath id="clip0_1701_3929">
<rect width="21" height="21" fill="white" transform="translate(0 0.5)"/>
</clipPath>
</defs>
</svg>
