<svg width="28" height="28" viewBox="0 0 28 28" fill="none" xmlns="http://www.w3.org/2000/svg">
<path d="M2.33301 21.0001H10.4997V23.3334H2.33301V21.0001ZM2.33301 12.8334H12.833V15.1667H2.33301V12.8334ZM2.33301 4.66675H25.6663V7.00008H2.33301V4.66675ZM24.1193 15.1959L25.468 14.7397L26.6347 16.7604L25.566 17.6996C25.7005 18.3373 25.7005 18.9962 25.566 19.6339L26.6347 20.5731L25.468 22.5937L24.1193 22.1376C23.641 22.5692 23.0717 22.9017 22.4452 23.1059L22.1663 24.5001H19.833L19.553 23.1047C18.9338 22.9024 18.3639 22.5725 17.88 22.1364L16.5313 22.5937L15.3647 20.5731L16.4333 19.6339C16.2988 18.9962 16.2988 18.3373 16.4333 17.6996L15.3647 16.7604L16.5313 14.7397L17.88 15.1959C18.3583 14.7642 18.9277 14.4317 19.5542 14.2276L19.833 12.8334H22.1663L22.4463 14.2287C23.0717 14.4317 23.641 14.7654 24.1193 15.1971V15.1959ZM20.9997 21.0001C21.6185 21.0001 22.212 20.7542 22.6496 20.3167C23.0872 19.8791 23.333 19.2856 23.333 18.6667C23.333 18.0479 23.0872 17.4544 22.6496 17.0168C22.212 16.5792 21.6185 16.3334 20.9997 16.3334C20.3808 16.3334 19.7873 16.5792 19.3498 17.0168C18.9122 17.4544 18.6663 18.0479 18.6663 18.6667C18.6663 19.2856 18.9122 19.8791 19.3498 20.3167C19.7873 20.7542 20.3808 21.0001 20.9997 21.0001Z" fill="#197DB5"/>
</svg>
