<svg width="28" height="28" viewBox="0 0 28 28" fill="none" xmlns="http://www.w3.org/2000/svg">
<path d="M2.33334 25.6667C2.33334 23.1914 3.31667 20.8174 5.06701 19.0671C6.81735 17.3167 9.19132 16.3334 11.6667 16.3334C14.142 16.3334 16.516 17.3167 18.2663 19.0671C20.0167 20.8174 21 23.1914 21 25.6667H18.6667C18.6667 23.8102 17.9292 22.0298 16.6164 20.717C15.3037 19.4042 13.5232 18.6667 11.6667 18.6667C9.81016 18.6667 8.02968 19.4042 6.71693 20.717C5.40417 22.0298 4.66668 23.8102 4.66668 25.6667H2.33334ZM11.6667 15.1667C7.79918 15.1667 4.66668 12.0342 4.66668 8.16675C4.66668 4.29925 7.79918 1.16675 11.6667 1.16675C15.5342 1.16675 18.6667 4.29925 18.6667 8.16675C18.6667 12.0342 15.5342 15.1667 11.6667 15.1667ZM11.6667 12.8334C14.245 12.8334 16.3333 10.7451 16.3333 8.16675C16.3333 5.58842 14.245 3.50008 11.6667 3.50008C9.08834 3.50008 7.00001 5.58842 7.00001 8.16675C7.00001 10.7451 9.08834 12.8334 11.6667 12.8334ZM21.3313 17.1536C22.9709 17.892 24.3623 19.0882 25.3384 20.5984C26.3144 22.1086 26.8335 23.8686 26.8333 25.6667H24.5C24.5003 24.3181 24.111 22.998 23.3789 21.8653C22.6469 20.7325 21.6033 19.8354 20.3735 19.2816L21.3302 17.1536H21.3313ZM20.5287 3.98191C21.7041 4.46643 22.7091 5.28921 23.4162 6.34585C24.1233 7.40249 24.5005 8.64536 24.5 9.91675C24.5005 11.5178 23.9023 13.0612 22.823 14.2437C21.7436 15.4262 20.2611 16.1625 18.6667 16.3077V13.9592C19.5311 13.8354 20.3331 13.4378 20.9549 12.8246C21.5766 12.2115 21.9855 11.4151 22.1214 10.5525C22.2572 9.68989 22.113 8.80643 21.7098 8.03183C21.3066 7.25723 20.6657 6.63229 19.8812 6.24875L20.5287 3.98191Z" fill="#B8B8B8"/>
</svg>
