<svg width="18" height="16" viewBox="0 0 18 16" fill="none" xmlns="http://www.w3.org/2000/svg">
<path d="M9.72183 0.499882L17.6602 14.2499C17.7333 14.3766 17.7718 14.5203 17.7718 14.6665C17.7718 14.8128 17.7333 14.9565 17.6602 15.0832C17.587 15.2099 17.4818 15.3151 17.3552 15.3882C17.2285 15.4614 17.0848 15.4999 16.9385 15.4999H1.06183C0.915549 15.4999 0.771848 15.4614 0.645169 15.3882C0.518489 15.3151 0.413294 15.2099 0.340156 15.0832C0.267018 14.9565 0.228515 14.8128 0.228516 14.6665C0.228517 14.5203 0.267022 14.3766 0.340161 14.2499L8.27849 0.499882C8.35164 0.373209 8.45683 0.26802 8.58351 0.194887C8.71019 0.121753 8.85389 0.083252 9.00016 0.083252C9.14643 0.083252 9.29013 0.121753 9.41681 0.194887C9.54349 0.26802 9.64868 0.373209 9.72183 0.499882ZM8.16683 11.3332V12.9999H9.83349V11.3332H8.16683ZM8.16683 5.49988V9.66655H9.83349V5.49988H8.16683Z" fill="#DA1515"/>
</svg>
